G04 #@! TF.GenerationSoftware,KiCad,Pcbnew,(5.1.5)-3*
G04 #@! TF.CreationDate,2020-03-21T14:26:23+08:00*
G04 #@! TF.ProjectId,PCB Design,50434220-4465-4736-9967-6e2e6b696361,rev?*
G04 #@! TF.SameCoordinates,Original*
G04 #@! TF.FileFunction,Copper,L2,Bot*
G04 #@! TF.FilePolarity,Positive*
%FSLAX46Y46*%
G04 Gerber Fmt 4.6, Leading zero omitted, Abs format (unit mm)*
G04 Created by KiCad (PCBNEW (5.1.5)-3) date 2020-03-21 14:26:23*
%MOMM*%
%LPD*%
G04 APERTURE LIST*
%ADD10R,1.400000X1.200000*%
%ADD11O,1.700000X2.700000*%
%ADD12R,0.500000X2.250000*%
%ADD13R,0.550000X1.500000*%
%ADD14R,1.500000X0.550000*%
%ADD15R,1.800000X1.100000*%
%ADD16C,0.100000*%
%ADD17C,2.250000*%
%ADD18R,1.200000X0.900000*%
%ADD19C,0.800000*%
%ADD20C,0.254000*%
%ADD21C,0.203200*%
G04 APERTURE END LIST*
D10*
X189706250Y-130175000D03*
X187506250Y-130175000D03*
X187506250Y-131875000D03*
X189706250Y-131875000D03*
D11*
X171293750Y-126206250D03*
X178593750Y-126206250D03*
X178593750Y-130706250D03*
X171293750Y-130706250D03*
D12*
X173343750Y-130706250D03*
X174143750Y-130706250D03*
X174943750Y-130706250D03*
X175743750Y-130706250D03*
X176543750Y-130706250D03*
D13*
X183325000Y-161275000D03*
X184125000Y-161275000D03*
X184925000Y-161275000D03*
X185725000Y-161275000D03*
X186525000Y-161275000D03*
X187325000Y-161275000D03*
X188125000Y-161275000D03*
X188925000Y-161275000D03*
X189725000Y-161275000D03*
X190525000Y-161275000D03*
X191325000Y-161275000D03*
D14*
X193025000Y-159575000D03*
X193025000Y-158775000D03*
X193025000Y-157975000D03*
X193025000Y-157175000D03*
X193025000Y-156375000D03*
X193025000Y-155575000D03*
X193025000Y-154775000D03*
X193025000Y-153975000D03*
X193025000Y-153175000D03*
X193025000Y-152375000D03*
X193025000Y-151575000D03*
D13*
X191325000Y-149875000D03*
X190525000Y-149875000D03*
X189725000Y-149875000D03*
X188925000Y-149875000D03*
X188125000Y-149875000D03*
X187325000Y-149875000D03*
X186525000Y-149875000D03*
X185725000Y-149875000D03*
X184925000Y-149875000D03*
X184125000Y-149875000D03*
X183325000Y-149875000D03*
D14*
X181625000Y-151575000D03*
X181625000Y-152375000D03*
X181625000Y-153175000D03*
X181625000Y-153975000D03*
X181625000Y-154775000D03*
X181625000Y-155575000D03*
X181625000Y-156375000D03*
X181625000Y-157175000D03*
X181625000Y-157975000D03*
X181625000Y-158775000D03*
X181625000Y-159575000D03*
D15*
X174625000Y-162193750D03*
X168425000Y-165893750D03*
X174625000Y-165893750D03*
X168425000Y-162193750D03*
G04 #@! TA.AperFunction,SMDPad,CuDef*
D16*
G36*
X197330142Y-159851174D02*
G01*
X197353803Y-159854684D01*
X197377007Y-159860496D01*
X197399529Y-159868554D01*
X197421153Y-159878782D01*
X197441670Y-159891079D01*
X197460883Y-159905329D01*
X197478607Y-159921393D01*
X197494671Y-159939117D01*
X197508921Y-159958330D01*
X197521218Y-159978847D01*
X197531446Y-160000471D01*
X197539504Y-160022993D01*
X197545316Y-160046197D01*
X197548826Y-160069858D01*
X197550000Y-160093750D01*
X197550000Y-160581250D01*
X197548826Y-160605142D01*
X197545316Y-160628803D01*
X197539504Y-160652007D01*
X197531446Y-160674529D01*
X197521218Y-160696153D01*
X197508921Y-160716670D01*
X197494671Y-160735883D01*
X197478607Y-160753607D01*
X197460883Y-160769671D01*
X197441670Y-160783921D01*
X197421153Y-160796218D01*
X197399529Y-160806446D01*
X197377007Y-160814504D01*
X197353803Y-160820316D01*
X197330142Y-160823826D01*
X197306250Y-160825000D01*
X196393750Y-160825000D01*
X196369858Y-160823826D01*
X196346197Y-160820316D01*
X196322993Y-160814504D01*
X196300471Y-160806446D01*
X196278847Y-160796218D01*
X196258330Y-160783921D01*
X196239117Y-160769671D01*
X196221393Y-160753607D01*
X196205329Y-160735883D01*
X196191079Y-160716670D01*
X196178782Y-160696153D01*
X196168554Y-160674529D01*
X196160496Y-160652007D01*
X196154684Y-160628803D01*
X196151174Y-160605142D01*
X196150000Y-160581250D01*
X196150000Y-160093750D01*
X196151174Y-160069858D01*
X196154684Y-160046197D01*
X196160496Y-160022993D01*
X196168554Y-160000471D01*
X196178782Y-159978847D01*
X196191079Y-159958330D01*
X196205329Y-159939117D01*
X196221393Y-159921393D01*
X196239117Y-159905329D01*
X196258330Y-159891079D01*
X196278847Y-159878782D01*
X196300471Y-159868554D01*
X196322993Y-159860496D01*
X196346197Y-159854684D01*
X196369858Y-159851174D01*
X196393750Y-159850000D01*
X197306250Y-159850000D01*
X197330142Y-159851174D01*
G37*
G04 #@! TD.AperFunction*
G04 #@! TA.AperFunction,SMDPad,CuDef*
G36*
X197330142Y-161726174D02*
G01*
X197353803Y-161729684D01*
X197377007Y-161735496D01*
X197399529Y-161743554D01*
X197421153Y-161753782D01*
X197441670Y-161766079D01*
X197460883Y-161780329D01*
X197478607Y-161796393D01*
X197494671Y-161814117D01*
X197508921Y-161833330D01*
X197521218Y-161853847D01*
X197531446Y-161875471D01*
X197539504Y-161897993D01*
X197545316Y-161921197D01*
X197548826Y-161944858D01*
X197550000Y-161968750D01*
X197550000Y-162456250D01*
X197548826Y-162480142D01*
X197545316Y-162503803D01*
X197539504Y-162527007D01*
X197531446Y-162549529D01*
X197521218Y-162571153D01*
X197508921Y-162591670D01*
X197494671Y-162610883D01*
X197478607Y-162628607D01*
X197460883Y-162644671D01*
X197441670Y-162658921D01*
X197421153Y-162671218D01*
X197399529Y-162681446D01*
X197377007Y-162689504D01*
X197353803Y-162695316D01*
X197330142Y-162698826D01*
X197306250Y-162700000D01*
X196393750Y-162700000D01*
X196369858Y-162698826D01*
X196346197Y-162695316D01*
X196322993Y-162689504D01*
X196300471Y-162681446D01*
X196278847Y-162671218D01*
X196258330Y-162658921D01*
X196239117Y-162644671D01*
X196221393Y-162628607D01*
X196205329Y-162610883D01*
X196191079Y-162591670D01*
X196178782Y-162571153D01*
X196168554Y-162549529D01*
X196160496Y-162527007D01*
X196154684Y-162503803D01*
X196151174Y-162480142D01*
X196150000Y-162456250D01*
X196150000Y-161968750D01*
X196151174Y-161944858D01*
X196154684Y-161921197D01*
X196160496Y-161897993D01*
X196168554Y-161875471D01*
X196178782Y-161853847D01*
X196191079Y-161833330D01*
X196205329Y-161814117D01*
X196221393Y-161796393D01*
X196239117Y-161780329D01*
X196258330Y-161766079D01*
X196278847Y-161753782D01*
X196300471Y-161743554D01*
X196322993Y-161735496D01*
X196346197Y-161729684D01*
X196369858Y-161726174D01*
X196393750Y-161725000D01*
X197306250Y-161725000D01*
X197330142Y-161726174D01*
G37*
G04 #@! TD.AperFunction*
G04 #@! TA.AperFunction,SMDPad,CuDef*
G36*
X172723892Y-139213674D02*
G01*
X172747553Y-139217184D01*
X172770757Y-139222996D01*
X172793279Y-139231054D01*
X172814903Y-139241282D01*
X172835420Y-139253579D01*
X172854633Y-139267829D01*
X172872357Y-139283893D01*
X172888421Y-139301617D01*
X172902671Y-139320830D01*
X172914968Y-139341347D01*
X172925196Y-139362971D01*
X172933254Y-139385493D01*
X172939066Y-139408697D01*
X172942576Y-139432358D01*
X172943750Y-139456250D01*
X172943750Y-139943750D01*
X172942576Y-139967642D01*
X172939066Y-139991303D01*
X172933254Y-140014507D01*
X172925196Y-140037029D01*
X172914968Y-140058653D01*
X172902671Y-140079170D01*
X172888421Y-140098383D01*
X172872357Y-140116107D01*
X172854633Y-140132171D01*
X172835420Y-140146421D01*
X172814903Y-140158718D01*
X172793279Y-140168946D01*
X172770757Y-140177004D01*
X172747553Y-140182816D01*
X172723892Y-140186326D01*
X172700000Y-140187500D01*
X171787500Y-140187500D01*
X171763608Y-140186326D01*
X171739947Y-140182816D01*
X171716743Y-140177004D01*
X171694221Y-140168946D01*
X171672597Y-140158718D01*
X171652080Y-140146421D01*
X171632867Y-140132171D01*
X171615143Y-140116107D01*
X171599079Y-140098383D01*
X171584829Y-140079170D01*
X171572532Y-140058653D01*
X171562304Y-140037029D01*
X171554246Y-140014507D01*
X171548434Y-139991303D01*
X171544924Y-139967642D01*
X171543750Y-139943750D01*
X171543750Y-139456250D01*
X171544924Y-139432358D01*
X171548434Y-139408697D01*
X171554246Y-139385493D01*
X171562304Y-139362971D01*
X171572532Y-139341347D01*
X171584829Y-139320830D01*
X171599079Y-139301617D01*
X171615143Y-139283893D01*
X171632867Y-139267829D01*
X171652080Y-139253579D01*
X171672597Y-139241282D01*
X171694221Y-139231054D01*
X171716743Y-139222996D01*
X171739947Y-139217184D01*
X171763608Y-139213674D01*
X171787500Y-139212500D01*
X172700000Y-139212500D01*
X172723892Y-139213674D01*
G37*
G04 #@! TD.AperFunction*
G04 #@! TA.AperFunction,SMDPad,CuDef*
G36*
X172723892Y-137338674D02*
G01*
X172747553Y-137342184D01*
X172770757Y-137347996D01*
X172793279Y-137356054D01*
X172814903Y-137366282D01*
X172835420Y-137378579D01*
X172854633Y-137392829D01*
X172872357Y-137408893D01*
X172888421Y-137426617D01*
X172902671Y-137445830D01*
X172914968Y-137466347D01*
X172925196Y-137487971D01*
X172933254Y-137510493D01*
X172939066Y-137533697D01*
X172942576Y-137557358D01*
X172943750Y-137581250D01*
X172943750Y-138068750D01*
X172942576Y-138092642D01*
X172939066Y-138116303D01*
X172933254Y-138139507D01*
X172925196Y-138162029D01*
X172914968Y-138183653D01*
X172902671Y-138204170D01*
X172888421Y-138223383D01*
X172872357Y-138241107D01*
X172854633Y-138257171D01*
X172835420Y-138271421D01*
X172814903Y-138283718D01*
X172793279Y-138293946D01*
X172770757Y-138302004D01*
X172747553Y-138307816D01*
X172723892Y-138311326D01*
X172700000Y-138312500D01*
X171787500Y-138312500D01*
X171763608Y-138311326D01*
X171739947Y-138307816D01*
X171716743Y-138302004D01*
X171694221Y-138293946D01*
X171672597Y-138283718D01*
X171652080Y-138271421D01*
X171632867Y-138257171D01*
X171615143Y-138241107D01*
X171599079Y-138223383D01*
X171584829Y-138204170D01*
X171572532Y-138183653D01*
X171562304Y-138162029D01*
X171554246Y-138139507D01*
X171548434Y-138116303D01*
X171544924Y-138092642D01*
X171543750Y-138068750D01*
X171543750Y-137581250D01*
X171544924Y-137557358D01*
X171548434Y-137533697D01*
X171554246Y-137510493D01*
X171562304Y-137487971D01*
X171572532Y-137466347D01*
X171584829Y-137445830D01*
X171599079Y-137426617D01*
X171615143Y-137408893D01*
X171632867Y-137392829D01*
X171652080Y-137378579D01*
X171672597Y-137366282D01*
X171694221Y-137356054D01*
X171716743Y-137347996D01*
X171739947Y-137342184D01*
X171763608Y-137338674D01*
X171787500Y-137337500D01*
X172700000Y-137337500D01*
X172723892Y-137338674D01*
G37*
G04 #@! TD.AperFunction*
G04 #@! TA.AperFunction,SMDPad,CuDef*
G36*
X175898892Y-139213674D02*
G01*
X175922553Y-139217184D01*
X175945757Y-139222996D01*
X175968279Y-139231054D01*
X175989903Y-139241282D01*
X176010420Y-139253579D01*
X176029633Y-139267829D01*
X176047357Y-139283893D01*
X176063421Y-139301617D01*
X176077671Y-139320830D01*
X176089968Y-139341347D01*
X176100196Y-139362971D01*
X176108254Y-139385493D01*
X176114066Y-139408697D01*
X176117576Y-139432358D01*
X176118750Y-139456250D01*
X176118750Y-139943750D01*
X176117576Y-139967642D01*
X176114066Y-139991303D01*
X176108254Y-140014507D01*
X176100196Y-140037029D01*
X176089968Y-140058653D01*
X176077671Y-140079170D01*
X176063421Y-140098383D01*
X176047357Y-140116107D01*
X176029633Y-140132171D01*
X176010420Y-140146421D01*
X175989903Y-140158718D01*
X175968279Y-140168946D01*
X175945757Y-140177004D01*
X175922553Y-140182816D01*
X175898892Y-140186326D01*
X175875000Y-140187500D01*
X174962500Y-140187500D01*
X174938608Y-140186326D01*
X174914947Y-140182816D01*
X174891743Y-140177004D01*
X174869221Y-140168946D01*
X174847597Y-140158718D01*
X174827080Y-140146421D01*
X174807867Y-140132171D01*
X174790143Y-140116107D01*
X174774079Y-140098383D01*
X174759829Y-140079170D01*
X174747532Y-140058653D01*
X174737304Y-140037029D01*
X174729246Y-140014507D01*
X174723434Y-139991303D01*
X174719924Y-139967642D01*
X174718750Y-139943750D01*
X174718750Y-139456250D01*
X174719924Y-139432358D01*
X174723434Y-139408697D01*
X174729246Y-139385493D01*
X174737304Y-139362971D01*
X174747532Y-139341347D01*
X174759829Y-139320830D01*
X174774079Y-139301617D01*
X174790143Y-139283893D01*
X174807867Y-139267829D01*
X174827080Y-139253579D01*
X174847597Y-139241282D01*
X174869221Y-139231054D01*
X174891743Y-139222996D01*
X174914947Y-139217184D01*
X174938608Y-139213674D01*
X174962500Y-139212500D01*
X175875000Y-139212500D01*
X175898892Y-139213674D01*
G37*
G04 #@! TD.AperFunction*
G04 #@! TA.AperFunction,SMDPad,CuDef*
G36*
X175898892Y-137338674D02*
G01*
X175922553Y-137342184D01*
X175945757Y-137347996D01*
X175968279Y-137356054D01*
X175989903Y-137366282D01*
X176010420Y-137378579D01*
X176029633Y-137392829D01*
X176047357Y-137408893D01*
X176063421Y-137426617D01*
X176077671Y-137445830D01*
X176089968Y-137466347D01*
X176100196Y-137487971D01*
X176108254Y-137510493D01*
X176114066Y-137533697D01*
X176117576Y-137557358D01*
X176118750Y-137581250D01*
X176118750Y-138068750D01*
X176117576Y-138092642D01*
X176114066Y-138116303D01*
X176108254Y-138139507D01*
X176100196Y-138162029D01*
X176089968Y-138183653D01*
X176077671Y-138204170D01*
X176063421Y-138223383D01*
X176047357Y-138241107D01*
X176029633Y-138257171D01*
X176010420Y-138271421D01*
X175989903Y-138283718D01*
X175968279Y-138293946D01*
X175945757Y-138302004D01*
X175922553Y-138307816D01*
X175898892Y-138311326D01*
X175875000Y-138312500D01*
X174962500Y-138312500D01*
X174938608Y-138311326D01*
X174914947Y-138307816D01*
X174891743Y-138302004D01*
X174869221Y-138293946D01*
X174847597Y-138283718D01*
X174827080Y-138271421D01*
X174807867Y-138257171D01*
X174790143Y-138241107D01*
X174774079Y-138223383D01*
X174759829Y-138204170D01*
X174747532Y-138183653D01*
X174737304Y-138162029D01*
X174729246Y-138139507D01*
X174723434Y-138116303D01*
X174719924Y-138092642D01*
X174718750Y-138068750D01*
X174718750Y-137581250D01*
X174719924Y-137557358D01*
X174723434Y-137533697D01*
X174729246Y-137510493D01*
X174737304Y-137487971D01*
X174747532Y-137466347D01*
X174759829Y-137445830D01*
X174774079Y-137426617D01*
X174790143Y-137408893D01*
X174807867Y-137392829D01*
X174827080Y-137378579D01*
X174847597Y-137366282D01*
X174869221Y-137356054D01*
X174891743Y-137347996D01*
X174914947Y-137342184D01*
X174938608Y-137338674D01*
X174962500Y-137337500D01*
X175875000Y-137337500D01*
X175898892Y-137338674D01*
G37*
G04 #@! TD.AperFunction*
G04 #@! TA.AperFunction,SMDPad,CuDef*
G36*
X180661392Y-139213674D02*
G01*
X180685053Y-139217184D01*
X180708257Y-139222996D01*
X180730779Y-139231054D01*
X180752403Y-139241282D01*
X180772920Y-139253579D01*
X180792133Y-139267829D01*
X180809857Y-139283893D01*
X180825921Y-139301617D01*
X180840171Y-139320830D01*
X180852468Y-139341347D01*
X180862696Y-139362971D01*
X180870754Y-139385493D01*
X180876566Y-139408697D01*
X180880076Y-139432358D01*
X180881250Y-139456250D01*
X180881250Y-139943750D01*
X180880076Y-139967642D01*
X180876566Y-139991303D01*
X180870754Y-140014507D01*
X180862696Y-140037029D01*
X180852468Y-140058653D01*
X180840171Y-140079170D01*
X180825921Y-140098383D01*
X180809857Y-140116107D01*
X180792133Y-140132171D01*
X180772920Y-140146421D01*
X180752403Y-140158718D01*
X180730779Y-140168946D01*
X180708257Y-140177004D01*
X180685053Y-140182816D01*
X180661392Y-140186326D01*
X180637500Y-140187500D01*
X179725000Y-140187500D01*
X179701108Y-140186326D01*
X179677447Y-140182816D01*
X179654243Y-140177004D01*
X179631721Y-140168946D01*
X179610097Y-140158718D01*
X179589580Y-140146421D01*
X179570367Y-140132171D01*
X179552643Y-140116107D01*
X179536579Y-140098383D01*
X179522329Y-140079170D01*
X179510032Y-140058653D01*
X179499804Y-140037029D01*
X179491746Y-140014507D01*
X179485934Y-139991303D01*
X179482424Y-139967642D01*
X179481250Y-139943750D01*
X179481250Y-139456250D01*
X179482424Y-139432358D01*
X179485934Y-139408697D01*
X179491746Y-139385493D01*
X179499804Y-139362971D01*
X179510032Y-139341347D01*
X179522329Y-139320830D01*
X179536579Y-139301617D01*
X179552643Y-139283893D01*
X179570367Y-139267829D01*
X179589580Y-139253579D01*
X179610097Y-139241282D01*
X179631721Y-139231054D01*
X179654243Y-139222996D01*
X179677447Y-139217184D01*
X179701108Y-139213674D01*
X179725000Y-139212500D01*
X180637500Y-139212500D01*
X180661392Y-139213674D01*
G37*
G04 #@! TD.AperFunction*
G04 #@! TA.AperFunction,SMDPad,CuDef*
G36*
X180661392Y-137338674D02*
G01*
X180685053Y-137342184D01*
X180708257Y-137347996D01*
X180730779Y-137356054D01*
X180752403Y-137366282D01*
X180772920Y-137378579D01*
X180792133Y-137392829D01*
X180809857Y-137408893D01*
X180825921Y-137426617D01*
X180840171Y-137445830D01*
X180852468Y-137466347D01*
X180862696Y-137487971D01*
X180870754Y-137510493D01*
X180876566Y-137533697D01*
X180880076Y-137557358D01*
X180881250Y-137581250D01*
X180881250Y-138068750D01*
X180880076Y-138092642D01*
X180876566Y-138116303D01*
X180870754Y-138139507D01*
X180862696Y-138162029D01*
X180852468Y-138183653D01*
X180840171Y-138204170D01*
X180825921Y-138223383D01*
X180809857Y-138241107D01*
X180792133Y-138257171D01*
X180772920Y-138271421D01*
X180752403Y-138283718D01*
X180730779Y-138293946D01*
X180708257Y-138302004D01*
X180685053Y-138307816D01*
X180661392Y-138311326D01*
X180637500Y-138312500D01*
X179725000Y-138312500D01*
X179701108Y-138311326D01*
X179677447Y-138307816D01*
X179654243Y-138302004D01*
X179631721Y-138293946D01*
X179610097Y-138283718D01*
X179589580Y-138271421D01*
X179570367Y-138257171D01*
X179552643Y-138241107D01*
X179536579Y-138223383D01*
X179522329Y-138204170D01*
X179510032Y-138183653D01*
X179499804Y-138162029D01*
X179491746Y-138139507D01*
X179485934Y-138116303D01*
X179482424Y-138092642D01*
X179481250Y-138068750D01*
X179481250Y-137581250D01*
X179482424Y-137557358D01*
X179485934Y-137533697D01*
X179491746Y-137510493D01*
X179499804Y-137487971D01*
X179510032Y-137466347D01*
X179522329Y-137445830D01*
X179536579Y-137426617D01*
X179552643Y-137408893D01*
X179570367Y-137392829D01*
X179589580Y-137378579D01*
X179610097Y-137366282D01*
X179631721Y-137356054D01*
X179654243Y-137347996D01*
X179677447Y-137342184D01*
X179701108Y-137338674D01*
X179725000Y-137337500D01*
X180637500Y-137337500D01*
X180661392Y-137338674D01*
G37*
G04 #@! TD.AperFunction*
D17*
X223202500Y-153035000D03*
X229552500Y-150495000D03*
X204152500Y-153035000D03*
X210502500Y-150495000D03*
X223202500Y-133985000D03*
X229552500Y-131445000D03*
X204152500Y-133985000D03*
X210502500Y-131445000D03*
G04 #@! TA.AperFunction,SMDPad,CuDef*
D16*
G36*
X167337004Y-140663704D02*
G01*
X167361273Y-140667304D01*
X167385071Y-140673265D01*
X167408171Y-140681530D01*
X167430349Y-140692020D01*
X167451393Y-140704633D01*
X167471098Y-140719247D01*
X167489277Y-140735723D01*
X167505753Y-140753902D01*
X167520367Y-140773607D01*
X167532980Y-140794651D01*
X167543470Y-140816829D01*
X167551735Y-140839929D01*
X167557696Y-140863727D01*
X167561296Y-140887996D01*
X167562500Y-140912500D01*
X167562500Y-141662500D01*
X167561296Y-141687004D01*
X167557696Y-141711273D01*
X167551735Y-141735071D01*
X167543470Y-141758171D01*
X167532980Y-141780349D01*
X167520367Y-141801393D01*
X167505753Y-141821098D01*
X167489277Y-141839277D01*
X167471098Y-141855753D01*
X167451393Y-141870367D01*
X167430349Y-141882980D01*
X167408171Y-141893470D01*
X167385071Y-141901735D01*
X167361273Y-141907696D01*
X167337004Y-141911296D01*
X167312500Y-141912500D01*
X166062500Y-141912500D01*
X166037996Y-141911296D01*
X166013727Y-141907696D01*
X165989929Y-141901735D01*
X165966829Y-141893470D01*
X165944651Y-141882980D01*
X165923607Y-141870367D01*
X165903902Y-141855753D01*
X165885723Y-141839277D01*
X165869247Y-141821098D01*
X165854633Y-141801393D01*
X165842020Y-141780349D01*
X165831530Y-141758171D01*
X165823265Y-141735071D01*
X165817304Y-141711273D01*
X165813704Y-141687004D01*
X165812500Y-141662500D01*
X165812500Y-140912500D01*
X165813704Y-140887996D01*
X165817304Y-140863727D01*
X165823265Y-140839929D01*
X165831530Y-140816829D01*
X165842020Y-140794651D01*
X165854633Y-140773607D01*
X165869247Y-140753902D01*
X165885723Y-140735723D01*
X165903902Y-140719247D01*
X165923607Y-140704633D01*
X165944651Y-140692020D01*
X165966829Y-140681530D01*
X165989929Y-140673265D01*
X166013727Y-140667304D01*
X166037996Y-140663704D01*
X166062500Y-140662500D01*
X167312500Y-140662500D01*
X167337004Y-140663704D01*
G37*
G04 #@! TD.AperFunction*
G04 #@! TA.AperFunction,SMDPad,CuDef*
G36*
X167337004Y-137863704D02*
G01*
X167361273Y-137867304D01*
X167385071Y-137873265D01*
X167408171Y-137881530D01*
X167430349Y-137892020D01*
X167451393Y-137904633D01*
X167471098Y-137919247D01*
X167489277Y-137935723D01*
X167505753Y-137953902D01*
X167520367Y-137973607D01*
X167532980Y-137994651D01*
X167543470Y-138016829D01*
X167551735Y-138039929D01*
X167557696Y-138063727D01*
X167561296Y-138087996D01*
X167562500Y-138112500D01*
X167562500Y-138862500D01*
X167561296Y-138887004D01*
X167557696Y-138911273D01*
X167551735Y-138935071D01*
X167543470Y-138958171D01*
X167532980Y-138980349D01*
X167520367Y-139001393D01*
X167505753Y-139021098D01*
X167489277Y-139039277D01*
X167471098Y-139055753D01*
X167451393Y-139070367D01*
X167430349Y-139082980D01*
X167408171Y-139093470D01*
X167385071Y-139101735D01*
X167361273Y-139107696D01*
X167337004Y-139111296D01*
X167312500Y-139112500D01*
X166062500Y-139112500D01*
X166037996Y-139111296D01*
X166013727Y-139107696D01*
X165989929Y-139101735D01*
X165966829Y-139093470D01*
X165944651Y-139082980D01*
X165923607Y-139070367D01*
X165903902Y-139055753D01*
X165885723Y-139039277D01*
X165869247Y-139021098D01*
X165854633Y-139001393D01*
X165842020Y-138980349D01*
X165831530Y-138958171D01*
X165823265Y-138935071D01*
X165817304Y-138911273D01*
X165813704Y-138887004D01*
X165812500Y-138862500D01*
X165812500Y-138112500D01*
X165813704Y-138087996D01*
X165817304Y-138063727D01*
X165823265Y-138039929D01*
X165831530Y-138016829D01*
X165842020Y-137994651D01*
X165854633Y-137973607D01*
X165869247Y-137953902D01*
X165885723Y-137935723D01*
X165903902Y-137919247D01*
X165923607Y-137904633D01*
X165944651Y-137892020D01*
X165966829Y-137881530D01*
X165989929Y-137873265D01*
X166013727Y-137867304D01*
X166037996Y-137863704D01*
X166062500Y-137862500D01*
X167312500Y-137862500D01*
X167337004Y-137863704D01*
G37*
G04 #@! TD.AperFunction*
D18*
X234950000Y-153925000D03*
X234950000Y-157225000D03*
X215900000Y-153925000D03*
X215900000Y-157225000D03*
X234950000Y-134875000D03*
X234950000Y-138175000D03*
X215900000Y-134875000D03*
X215900000Y-138175000D03*
G04 #@! TA.AperFunction,SMDPad,CuDef*
D16*
G36*
X178280142Y-159851174D02*
G01*
X178303803Y-159854684D01*
X178327007Y-159860496D01*
X178349529Y-159868554D01*
X178371153Y-159878782D01*
X178391670Y-159891079D01*
X178410883Y-159905329D01*
X178428607Y-159921393D01*
X178444671Y-159939117D01*
X178458921Y-159958330D01*
X178471218Y-159978847D01*
X178481446Y-160000471D01*
X178489504Y-160022993D01*
X178495316Y-160046197D01*
X178498826Y-160069858D01*
X178500000Y-160093750D01*
X178500000Y-160581250D01*
X178498826Y-160605142D01*
X178495316Y-160628803D01*
X178489504Y-160652007D01*
X178481446Y-160674529D01*
X178471218Y-160696153D01*
X178458921Y-160716670D01*
X178444671Y-160735883D01*
X178428607Y-160753607D01*
X178410883Y-160769671D01*
X178391670Y-160783921D01*
X178371153Y-160796218D01*
X178349529Y-160806446D01*
X178327007Y-160814504D01*
X178303803Y-160820316D01*
X178280142Y-160823826D01*
X178256250Y-160825000D01*
X177343750Y-160825000D01*
X177319858Y-160823826D01*
X177296197Y-160820316D01*
X177272993Y-160814504D01*
X177250471Y-160806446D01*
X177228847Y-160796218D01*
X177208330Y-160783921D01*
X177189117Y-160769671D01*
X177171393Y-160753607D01*
X177155329Y-160735883D01*
X177141079Y-160716670D01*
X177128782Y-160696153D01*
X177118554Y-160674529D01*
X177110496Y-160652007D01*
X177104684Y-160628803D01*
X177101174Y-160605142D01*
X177100000Y-160581250D01*
X177100000Y-160093750D01*
X177101174Y-160069858D01*
X177104684Y-160046197D01*
X177110496Y-160022993D01*
X177118554Y-160000471D01*
X177128782Y-159978847D01*
X177141079Y-159958330D01*
X177155329Y-159939117D01*
X177171393Y-159921393D01*
X177189117Y-159905329D01*
X177208330Y-159891079D01*
X177228847Y-159878782D01*
X177250471Y-159868554D01*
X177272993Y-159860496D01*
X177296197Y-159854684D01*
X177319858Y-159851174D01*
X177343750Y-159850000D01*
X178256250Y-159850000D01*
X178280142Y-159851174D01*
G37*
G04 #@! TD.AperFunction*
G04 #@! TA.AperFunction,SMDPad,CuDef*
G36*
X178280142Y-157976174D02*
G01*
X178303803Y-157979684D01*
X178327007Y-157985496D01*
X178349529Y-157993554D01*
X178371153Y-158003782D01*
X178391670Y-158016079D01*
X178410883Y-158030329D01*
X178428607Y-158046393D01*
X178444671Y-158064117D01*
X178458921Y-158083330D01*
X178471218Y-158103847D01*
X178481446Y-158125471D01*
X178489504Y-158147993D01*
X178495316Y-158171197D01*
X178498826Y-158194858D01*
X178500000Y-158218750D01*
X178500000Y-158706250D01*
X178498826Y-158730142D01*
X178495316Y-158753803D01*
X178489504Y-158777007D01*
X178481446Y-158799529D01*
X178471218Y-158821153D01*
X178458921Y-158841670D01*
X178444671Y-158860883D01*
X178428607Y-158878607D01*
X178410883Y-158894671D01*
X178391670Y-158908921D01*
X178371153Y-158921218D01*
X178349529Y-158931446D01*
X178327007Y-158939504D01*
X178303803Y-158945316D01*
X178280142Y-158948826D01*
X178256250Y-158950000D01*
X177343750Y-158950000D01*
X177319858Y-158948826D01*
X177296197Y-158945316D01*
X177272993Y-158939504D01*
X177250471Y-158931446D01*
X177228847Y-158921218D01*
X177208330Y-158908921D01*
X177189117Y-158894671D01*
X177171393Y-158878607D01*
X177155329Y-158860883D01*
X177141079Y-158841670D01*
X177128782Y-158821153D01*
X177118554Y-158799529D01*
X177110496Y-158777007D01*
X177104684Y-158753803D01*
X177101174Y-158730142D01*
X177100000Y-158706250D01*
X177100000Y-158218750D01*
X177101174Y-158194858D01*
X177104684Y-158171197D01*
X177110496Y-158147993D01*
X177118554Y-158125471D01*
X177128782Y-158103847D01*
X177141079Y-158083330D01*
X177155329Y-158064117D01*
X177171393Y-158046393D01*
X177189117Y-158030329D01*
X177208330Y-158016079D01*
X177228847Y-158003782D01*
X177250471Y-157993554D01*
X177272993Y-157985496D01*
X177296197Y-157979684D01*
X177319858Y-157976174D01*
X177343750Y-157975000D01*
X178256250Y-157975000D01*
X178280142Y-157976174D01*
G37*
G04 #@! TD.AperFunction*
G04 #@! TA.AperFunction,SMDPad,CuDef*
G36*
X190767642Y-164401174D02*
G01*
X190791303Y-164404684D01*
X190814507Y-164410496D01*
X190837029Y-164418554D01*
X190858653Y-164428782D01*
X190879170Y-164441079D01*
X190898383Y-164455329D01*
X190916107Y-164471393D01*
X190932171Y-164489117D01*
X190946421Y-164508330D01*
X190958718Y-164528847D01*
X190968946Y-164550471D01*
X190977004Y-164572993D01*
X190982816Y-164596197D01*
X190986326Y-164619858D01*
X190987500Y-164643750D01*
X190987500Y-165556250D01*
X190986326Y-165580142D01*
X190982816Y-165603803D01*
X190977004Y-165627007D01*
X190968946Y-165649529D01*
X190958718Y-165671153D01*
X190946421Y-165691670D01*
X190932171Y-165710883D01*
X190916107Y-165728607D01*
X190898383Y-165744671D01*
X190879170Y-165758921D01*
X190858653Y-165771218D01*
X190837029Y-165781446D01*
X190814507Y-165789504D01*
X190791303Y-165795316D01*
X190767642Y-165798826D01*
X190743750Y-165800000D01*
X190256250Y-165800000D01*
X190232358Y-165798826D01*
X190208697Y-165795316D01*
X190185493Y-165789504D01*
X190162971Y-165781446D01*
X190141347Y-165771218D01*
X190120830Y-165758921D01*
X190101617Y-165744671D01*
X190083893Y-165728607D01*
X190067829Y-165710883D01*
X190053579Y-165691670D01*
X190041282Y-165671153D01*
X190031054Y-165649529D01*
X190022996Y-165627007D01*
X190017184Y-165603803D01*
X190013674Y-165580142D01*
X190012500Y-165556250D01*
X190012500Y-164643750D01*
X190013674Y-164619858D01*
X190017184Y-164596197D01*
X190022996Y-164572993D01*
X190031054Y-164550471D01*
X190041282Y-164528847D01*
X190053579Y-164508330D01*
X190067829Y-164489117D01*
X190083893Y-164471393D01*
X190101617Y-164455329D01*
X190120830Y-164441079D01*
X190141347Y-164428782D01*
X190162971Y-164418554D01*
X190185493Y-164410496D01*
X190208697Y-164404684D01*
X190232358Y-164401174D01*
X190256250Y-164400000D01*
X190743750Y-164400000D01*
X190767642Y-164401174D01*
G37*
G04 #@! TD.AperFunction*
G04 #@! TA.AperFunction,SMDPad,CuDef*
G36*
X192642642Y-164401174D02*
G01*
X192666303Y-164404684D01*
X192689507Y-164410496D01*
X192712029Y-164418554D01*
X192733653Y-164428782D01*
X192754170Y-164441079D01*
X192773383Y-164455329D01*
X192791107Y-164471393D01*
X192807171Y-164489117D01*
X192821421Y-164508330D01*
X192833718Y-164528847D01*
X192843946Y-164550471D01*
X192852004Y-164572993D01*
X192857816Y-164596197D01*
X192861326Y-164619858D01*
X192862500Y-164643750D01*
X192862500Y-165556250D01*
X192861326Y-165580142D01*
X192857816Y-165603803D01*
X192852004Y-165627007D01*
X192843946Y-165649529D01*
X192833718Y-165671153D01*
X192821421Y-165691670D01*
X192807171Y-165710883D01*
X192791107Y-165728607D01*
X192773383Y-165744671D01*
X192754170Y-165758921D01*
X192733653Y-165771218D01*
X192712029Y-165781446D01*
X192689507Y-165789504D01*
X192666303Y-165795316D01*
X192642642Y-165798826D01*
X192618750Y-165800000D01*
X192131250Y-165800000D01*
X192107358Y-165798826D01*
X192083697Y-165795316D01*
X192060493Y-165789504D01*
X192037971Y-165781446D01*
X192016347Y-165771218D01*
X191995830Y-165758921D01*
X191976617Y-165744671D01*
X191958893Y-165728607D01*
X191942829Y-165710883D01*
X191928579Y-165691670D01*
X191916282Y-165671153D01*
X191906054Y-165649529D01*
X191897996Y-165627007D01*
X191892184Y-165603803D01*
X191888674Y-165580142D01*
X191887500Y-165556250D01*
X191887500Y-164643750D01*
X191888674Y-164619858D01*
X191892184Y-164596197D01*
X191897996Y-164572993D01*
X191906054Y-164550471D01*
X191916282Y-164528847D01*
X191928579Y-164508330D01*
X191942829Y-164489117D01*
X191958893Y-164471393D01*
X191976617Y-164455329D01*
X191995830Y-164441079D01*
X192016347Y-164428782D01*
X192037971Y-164418554D01*
X192060493Y-164410496D01*
X192083697Y-164404684D01*
X192107358Y-164401174D01*
X192131250Y-164400000D01*
X192618750Y-164400000D01*
X192642642Y-164401174D01*
G37*
G04 #@! TD.AperFunction*
G04 #@! TA.AperFunction,SMDPad,CuDef*
G36*
X197330142Y-150976174D02*
G01*
X197353803Y-150979684D01*
X197377007Y-150985496D01*
X197399529Y-150993554D01*
X197421153Y-151003782D01*
X197441670Y-151016079D01*
X197460883Y-151030329D01*
X197478607Y-151046393D01*
X197494671Y-151064117D01*
X197508921Y-151083330D01*
X197521218Y-151103847D01*
X197531446Y-151125471D01*
X197539504Y-151147993D01*
X197545316Y-151171197D01*
X197548826Y-151194858D01*
X197550000Y-151218750D01*
X197550000Y-151706250D01*
X197548826Y-151730142D01*
X197545316Y-151753803D01*
X197539504Y-151777007D01*
X197531446Y-151799529D01*
X197521218Y-151821153D01*
X197508921Y-151841670D01*
X197494671Y-151860883D01*
X197478607Y-151878607D01*
X197460883Y-151894671D01*
X197441670Y-151908921D01*
X197421153Y-151921218D01*
X197399529Y-151931446D01*
X197377007Y-151939504D01*
X197353803Y-151945316D01*
X197330142Y-151948826D01*
X197306250Y-151950000D01*
X196393750Y-151950000D01*
X196369858Y-151948826D01*
X196346197Y-151945316D01*
X196322993Y-151939504D01*
X196300471Y-151931446D01*
X196278847Y-151921218D01*
X196258330Y-151908921D01*
X196239117Y-151894671D01*
X196221393Y-151878607D01*
X196205329Y-151860883D01*
X196191079Y-151841670D01*
X196178782Y-151821153D01*
X196168554Y-151799529D01*
X196160496Y-151777007D01*
X196154684Y-151753803D01*
X196151174Y-151730142D01*
X196150000Y-151706250D01*
X196150000Y-151218750D01*
X196151174Y-151194858D01*
X196154684Y-151171197D01*
X196160496Y-151147993D01*
X196168554Y-151125471D01*
X196178782Y-151103847D01*
X196191079Y-151083330D01*
X196205329Y-151064117D01*
X196221393Y-151046393D01*
X196239117Y-151030329D01*
X196258330Y-151016079D01*
X196278847Y-151003782D01*
X196300471Y-150993554D01*
X196322993Y-150985496D01*
X196346197Y-150979684D01*
X196369858Y-150976174D01*
X196393750Y-150975000D01*
X197306250Y-150975000D01*
X197330142Y-150976174D01*
G37*
G04 #@! TD.AperFunction*
G04 #@! TA.AperFunction,SMDPad,CuDef*
G36*
X197330142Y-152851174D02*
G01*
X197353803Y-152854684D01*
X197377007Y-152860496D01*
X197399529Y-152868554D01*
X197421153Y-152878782D01*
X197441670Y-152891079D01*
X197460883Y-152905329D01*
X197478607Y-152921393D01*
X197494671Y-152939117D01*
X197508921Y-152958330D01*
X197521218Y-152978847D01*
X197531446Y-153000471D01*
X197539504Y-153022993D01*
X197545316Y-153046197D01*
X197548826Y-153069858D01*
X197550000Y-153093750D01*
X197550000Y-153581250D01*
X197548826Y-153605142D01*
X197545316Y-153628803D01*
X197539504Y-153652007D01*
X197531446Y-153674529D01*
X197521218Y-153696153D01*
X197508921Y-153716670D01*
X197494671Y-153735883D01*
X197478607Y-153753607D01*
X197460883Y-153769671D01*
X197441670Y-153783921D01*
X197421153Y-153796218D01*
X197399529Y-153806446D01*
X197377007Y-153814504D01*
X197353803Y-153820316D01*
X197330142Y-153823826D01*
X197306250Y-153825000D01*
X196393750Y-153825000D01*
X196369858Y-153823826D01*
X196346197Y-153820316D01*
X196322993Y-153814504D01*
X196300471Y-153806446D01*
X196278847Y-153796218D01*
X196258330Y-153783921D01*
X196239117Y-153769671D01*
X196221393Y-153753607D01*
X196205329Y-153735883D01*
X196191079Y-153716670D01*
X196178782Y-153696153D01*
X196168554Y-153674529D01*
X196160496Y-153652007D01*
X196154684Y-153628803D01*
X196151174Y-153605142D01*
X196150000Y-153581250D01*
X196150000Y-153093750D01*
X196151174Y-153069858D01*
X196154684Y-153046197D01*
X196160496Y-153022993D01*
X196168554Y-153000471D01*
X196178782Y-152978847D01*
X196191079Y-152958330D01*
X196205329Y-152939117D01*
X196221393Y-152921393D01*
X196239117Y-152905329D01*
X196258330Y-152891079D01*
X196278847Y-152878782D01*
X196300471Y-152868554D01*
X196322993Y-152860496D01*
X196346197Y-152854684D01*
X196369858Y-152851174D01*
X196393750Y-152850000D01*
X197306250Y-152850000D01*
X197330142Y-152851174D01*
G37*
G04 #@! TD.AperFunction*
G04 #@! TA.AperFunction,SMDPad,CuDef*
G36*
X183836392Y-137338674D02*
G01*
X183860053Y-137342184D01*
X183883257Y-137347996D01*
X183905779Y-137356054D01*
X183927403Y-137366282D01*
X183947920Y-137378579D01*
X183967133Y-137392829D01*
X183984857Y-137408893D01*
X184000921Y-137426617D01*
X184015171Y-137445830D01*
X184027468Y-137466347D01*
X184037696Y-137487971D01*
X184045754Y-137510493D01*
X184051566Y-137533697D01*
X184055076Y-137557358D01*
X184056250Y-137581250D01*
X184056250Y-138068750D01*
X184055076Y-138092642D01*
X184051566Y-138116303D01*
X184045754Y-138139507D01*
X184037696Y-138162029D01*
X184027468Y-138183653D01*
X184015171Y-138204170D01*
X184000921Y-138223383D01*
X183984857Y-138241107D01*
X183967133Y-138257171D01*
X183947920Y-138271421D01*
X183927403Y-138283718D01*
X183905779Y-138293946D01*
X183883257Y-138302004D01*
X183860053Y-138307816D01*
X183836392Y-138311326D01*
X183812500Y-138312500D01*
X182900000Y-138312500D01*
X182876108Y-138311326D01*
X182852447Y-138307816D01*
X182829243Y-138302004D01*
X182806721Y-138293946D01*
X182785097Y-138283718D01*
X182764580Y-138271421D01*
X182745367Y-138257171D01*
X182727643Y-138241107D01*
X182711579Y-138223383D01*
X182697329Y-138204170D01*
X182685032Y-138183653D01*
X182674804Y-138162029D01*
X182666746Y-138139507D01*
X182660934Y-138116303D01*
X182657424Y-138092642D01*
X182656250Y-138068750D01*
X182656250Y-137581250D01*
X182657424Y-137557358D01*
X182660934Y-137533697D01*
X182666746Y-137510493D01*
X182674804Y-137487971D01*
X182685032Y-137466347D01*
X182697329Y-137445830D01*
X182711579Y-137426617D01*
X182727643Y-137408893D01*
X182745367Y-137392829D01*
X182764580Y-137378579D01*
X182785097Y-137366282D01*
X182806721Y-137356054D01*
X182829243Y-137347996D01*
X182852447Y-137342184D01*
X182876108Y-137338674D01*
X182900000Y-137337500D01*
X183812500Y-137337500D01*
X183836392Y-137338674D01*
G37*
G04 #@! TD.AperFunction*
G04 #@! TA.AperFunction,SMDPad,CuDef*
G36*
X183836392Y-139213674D02*
G01*
X183860053Y-139217184D01*
X183883257Y-139222996D01*
X183905779Y-139231054D01*
X183927403Y-139241282D01*
X183947920Y-139253579D01*
X183967133Y-139267829D01*
X183984857Y-139283893D01*
X184000921Y-139301617D01*
X184015171Y-139320830D01*
X184027468Y-139341347D01*
X184037696Y-139362971D01*
X184045754Y-139385493D01*
X184051566Y-139408697D01*
X184055076Y-139432358D01*
X184056250Y-139456250D01*
X184056250Y-139943750D01*
X184055076Y-139967642D01*
X184051566Y-139991303D01*
X184045754Y-140014507D01*
X184037696Y-140037029D01*
X184027468Y-140058653D01*
X184015171Y-140079170D01*
X184000921Y-140098383D01*
X183984857Y-140116107D01*
X183967133Y-140132171D01*
X183947920Y-140146421D01*
X183927403Y-140158718D01*
X183905779Y-140168946D01*
X183883257Y-140177004D01*
X183860053Y-140182816D01*
X183836392Y-140186326D01*
X183812500Y-140187500D01*
X182900000Y-140187500D01*
X182876108Y-140186326D01*
X182852447Y-140182816D01*
X182829243Y-140177004D01*
X182806721Y-140168946D01*
X182785097Y-140158718D01*
X182764580Y-140146421D01*
X182745367Y-140132171D01*
X182727643Y-140116107D01*
X182711579Y-140098383D01*
X182697329Y-140079170D01*
X182685032Y-140058653D01*
X182674804Y-140037029D01*
X182666746Y-140014507D01*
X182660934Y-139991303D01*
X182657424Y-139967642D01*
X182656250Y-139943750D01*
X182656250Y-139456250D01*
X182657424Y-139432358D01*
X182660934Y-139408697D01*
X182666746Y-139385493D01*
X182674804Y-139362971D01*
X182685032Y-139341347D01*
X182697329Y-139320830D01*
X182711579Y-139301617D01*
X182727643Y-139283893D01*
X182745367Y-139267829D01*
X182764580Y-139253579D01*
X182785097Y-139241282D01*
X182806721Y-139231054D01*
X182829243Y-139222996D01*
X182852447Y-139217184D01*
X182876108Y-139213674D01*
X182900000Y-139212500D01*
X183812500Y-139212500D01*
X183836392Y-139213674D01*
G37*
G04 #@! TD.AperFunction*
G04 #@! TA.AperFunction,SMDPad,CuDef*
G36*
X175686392Y-154876174D02*
G01*
X175710053Y-154879684D01*
X175733257Y-154885496D01*
X175755779Y-154893554D01*
X175777403Y-154903782D01*
X175797920Y-154916079D01*
X175817133Y-154930329D01*
X175834857Y-154946393D01*
X175850921Y-154964117D01*
X175865171Y-154983330D01*
X175877468Y-155003847D01*
X175887696Y-155025471D01*
X175895754Y-155047993D01*
X175901566Y-155071197D01*
X175905076Y-155094858D01*
X175906250Y-155118750D01*
X175906250Y-156031250D01*
X175905076Y-156055142D01*
X175901566Y-156078803D01*
X175895754Y-156102007D01*
X175887696Y-156124529D01*
X175877468Y-156146153D01*
X175865171Y-156166670D01*
X175850921Y-156185883D01*
X175834857Y-156203607D01*
X175817133Y-156219671D01*
X175797920Y-156233921D01*
X175777403Y-156246218D01*
X175755779Y-156256446D01*
X175733257Y-156264504D01*
X175710053Y-156270316D01*
X175686392Y-156273826D01*
X175662500Y-156275000D01*
X175175000Y-156275000D01*
X175151108Y-156273826D01*
X175127447Y-156270316D01*
X175104243Y-156264504D01*
X175081721Y-156256446D01*
X175060097Y-156246218D01*
X175039580Y-156233921D01*
X175020367Y-156219671D01*
X175002643Y-156203607D01*
X174986579Y-156185883D01*
X174972329Y-156166670D01*
X174960032Y-156146153D01*
X174949804Y-156124529D01*
X174941746Y-156102007D01*
X174935934Y-156078803D01*
X174932424Y-156055142D01*
X174931250Y-156031250D01*
X174931250Y-155118750D01*
X174932424Y-155094858D01*
X174935934Y-155071197D01*
X174941746Y-155047993D01*
X174949804Y-155025471D01*
X174960032Y-155003847D01*
X174972329Y-154983330D01*
X174986579Y-154964117D01*
X175002643Y-154946393D01*
X175020367Y-154930329D01*
X175039580Y-154916079D01*
X175060097Y-154903782D01*
X175081721Y-154893554D01*
X175104243Y-154885496D01*
X175127447Y-154879684D01*
X175151108Y-154876174D01*
X175175000Y-154875000D01*
X175662500Y-154875000D01*
X175686392Y-154876174D01*
G37*
G04 #@! TD.AperFunction*
G04 #@! TA.AperFunction,SMDPad,CuDef*
G36*
X177561392Y-154876174D02*
G01*
X177585053Y-154879684D01*
X177608257Y-154885496D01*
X177630779Y-154893554D01*
X177652403Y-154903782D01*
X177672920Y-154916079D01*
X177692133Y-154930329D01*
X177709857Y-154946393D01*
X177725921Y-154964117D01*
X177740171Y-154983330D01*
X177752468Y-155003847D01*
X177762696Y-155025471D01*
X177770754Y-155047993D01*
X177776566Y-155071197D01*
X177780076Y-155094858D01*
X177781250Y-155118750D01*
X177781250Y-156031250D01*
X177780076Y-156055142D01*
X177776566Y-156078803D01*
X177770754Y-156102007D01*
X177762696Y-156124529D01*
X177752468Y-156146153D01*
X177740171Y-156166670D01*
X177725921Y-156185883D01*
X177709857Y-156203607D01*
X177692133Y-156219671D01*
X177672920Y-156233921D01*
X177652403Y-156246218D01*
X177630779Y-156256446D01*
X177608257Y-156264504D01*
X177585053Y-156270316D01*
X177561392Y-156273826D01*
X177537500Y-156275000D01*
X177050000Y-156275000D01*
X177026108Y-156273826D01*
X177002447Y-156270316D01*
X176979243Y-156264504D01*
X176956721Y-156256446D01*
X176935097Y-156246218D01*
X176914580Y-156233921D01*
X176895367Y-156219671D01*
X176877643Y-156203607D01*
X176861579Y-156185883D01*
X176847329Y-156166670D01*
X176835032Y-156146153D01*
X176824804Y-156124529D01*
X176816746Y-156102007D01*
X176810934Y-156078803D01*
X176807424Y-156055142D01*
X176806250Y-156031250D01*
X176806250Y-155118750D01*
X176807424Y-155094858D01*
X176810934Y-155071197D01*
X176816746Y-155047993D01*
X176824804Y-155025471D01*
X176835032Y-155003847D01*
X176847329Y-154983330D01*
X176861579Y-154964117D01*
X176877643Y-154946393D01*
X176895367Y-154930329D01*
X176914580Y-154916079D01*
X176935097Y-154903782D01*
X176956721Y-154893554D01*
X176979243Y-154885496D01*
X177002447Y-154879684D01*
X177026108Y-154876174D01*
X177050000Y-154875000D01*
X177537500Y-154875000D01*
X177561392Y-154876174D01*
G37*
G04 #@! TD.AperFunction*
G04 #@! TA.AperFunction,SMDPad,CuDef*
G36*
X184630142Y-131563674D02*
G01*
X184653803Y-131567184D01*
X184677007Y-131572996D01*
X184699529Y-131581054D01*
X184721153Y-131591282D01*
X184741670Y-131603579D01*
X184760883Y-131617829D01*
X184778607Y-131633893D01*
X184794671Y-131651617D01*
X184808921Y-131670830D01*
X184821218Y-131691347D01*
X184831446Y-131712971D01*
X184839504Y-131735493D01*
X184845316Y-131758697D01*
X184848826Y-131782358D01*
X184850000Y-131806250D01*
X184850000Y-132293750D01*
X184848826Y-132317642D01*
X184845316Y-132341303D01*
X184839504Y-132364507D01*
X184831446Y-132387029D01*
X184821218Y-132408653D01*
X184808921Y-132429170D01*
X184794671Y-132448383D01*
X184778607Y-132466107D01*
X184760883Y-132482171D01*
X184741670Y-132496421D01*
X184721153Y-132508718D01*
X184699529Y-132518946D01*
X184677007Y-132527004D01*
X184653803Y-132532816D01*
X184630142Y-132536326D01*
X184606250Y-132537500D01*
X183693750Y-132537500D01*
X183669858Y-132536326D01*
X183646197Y-132532816D01*
X183622993Y-132527004D01*
X183600471Y-132518946D01*
X183578847Y-132508718D01*
X183558330Y-132496421D01*
X183539117Y-132482171D01*
X183521393Y-132466107D01*
X183505329Y-132448383D01*
X183491079Y-132429170D01*
X183478782Y-132408653D01*
X183468554Y-132387029D01*
X183460496Y-132364507D01*
X183454684Y-132341303D01*
X183451174Y-132317642D01*
X183450000Y-132293750D01*
X183450000Y-131806250D01*
X183451174Y-131782358D01*
X183454684Y-131758697D01*
X183460496Y-131735493D01*
X183468554Y-131712971D01*
X183478782Y-131691347D01*
X183491079Y-131670830D01*
X183505329Y-131651617D01*
X183521393Y-131633893D01*
X183539117Y-131617829D01*
X183558330Y-131603579D01*
X183578847Y-131591282D01*
X183600471Y-131581054D01*
X183622993Y-131572996D01*
X183646197Y-131567184D01*
X183669858Y-131563674D01*
X183693750Y-131562500D01*
X184606250Y-131562500D01*
X184630142Y-131563674D01*
G37*
G04 #@! TD.AperFunction*
G04 #@! TA.AperFunction,SMDPad,CuDef*
G36*
X184630142Y-129688674D02*
G01*
X184653803Y-129692184D01*
X184677007Y-129697996D01*
X184699529Y-129706054D01*
X184721153Y-129716282D01*
X184741670Y-129728579D01*
X184760883Y-129742829D01*
X184778607Y-129758893D01*
X184794671Y-129776617D01*
X184808921Y-129795830D01*
X184821218Y-129816347D01*
X184831446Y-129837971D01*
X184839504Y-129860493D01*
X184845316Y-129883697D01*
X184848826Y-129907358D01*
X184850000Y-129931250D01*
X184850000Y-130418750D01*
X184848826Y-130442642D01*
X184845316Y-130466303D01*
X184839504Y-130489507D01*
X184831446Y-130512029D01*
X184821218Y-130533653D01*
X184808921Y-130554170D01*
X184794671Y-130573383D01*
X184778607Y-130591107D01*
X184760883Y-130607171D01*
X184741670Y-130621421D01*
X184721153Y-130633718D01*
X184699529Y-130643946D01*
X184677007Y-130652004D01*
X184653803Y-130657816D01*
X184630142Y-130661326D01*
X184606250Y-130662500D01*
X183693750Y-130662500D01*
X183669858Y-130661326D01*
X183646197Y-130657816D01*
X183622993Y-130652004D01*
X183600471Y-130643946D01*
X183578847Y-130633718D01*
X183558330Y-130621421D01*
X183539117Y-130607171D01*
X183521393Y-130591107D01*
X183505329Y-130573383D01*
X183491079Y-130554170D01*
X183478782Y-130533653D01*
X183468554Y-130512029D01*
X183460496Y-130489507D01*
X183454684Y-130466303D01*
X183451174Y-130442642D01*
X183450000Y-130418750D01*
X183450000Y-129931250D01*
X183451174Y-129907358D01*
X183454684Y-129883697D01*
X183460496Y-129860493D01*
X183468554Y-129837971D01*
X183478782Y-129816347D01*
X183491079Y-129795830D01*
X183505329Y-129776617D01*
X183521393Y-129758893D01*
X183539117Y-129742829D01*
X183558330Y-129728579D01*
X183578847Y-129716282D01*
X183600471Y-129706054D01*
X183622993Y-129697996D01*
X183646197Y-129692184D01*
X183669858Y-129688674D01*
X183693750Y-129687500D01*
X184606250Y-129687500D01*
X184630142Y-129688674D01*
G37*
G04 #@! TD.AperFunction*
G04 #@! TA.AperFunction,SMDPad,CuDef*
G36*
X194155142Y-129688674D02*
G01*
X194178803Y-129692184D01*
X194202007Y-129697996D01*
X194224529Y-129706054D01*
X194246153Y-129716282D01*
X194266670Y-129728579D01*
X194285883Y-129742829D01*
X194303607Y-129758893D01*
X194319671Y-129776617D01*
X194333921Y-129795830D01*
X194346218Y-129816347D01*
X194356446Y-129837971D01*
X194364504Y-129860493D01*
X194370316Y-129883697D01*
X194373826Y-129907358D01*
X194375000Y-129931250D01*
X194375000Y-130418750D01*
X194373826Y-130442642D01*
X194370316Y-130466303D01*
X194364504Y-130489507D01*
X194356446Y-130512029D01*
X194346218Y-130533653D01*
X194333921Y-130554170D01*
X194319671Y-130573383D01*
X194303607Y-130591107D01*
X194285883Y-130607171D01*
X194266670Y-130621421D01*
X194246153Y-130633718D01*
X194224529Y-130643946D01*
X194202007Y-130652004D01*
X194178803Y-130657816D01*
X194155142Y-130661326D01*
X194131250Y-130662500D01*
X193218750Y-130662500D01*
X193194858Y-130661326D01*
X193171197Y-130657816D01*
X193147993Y-130652004D01*
X193125471Y-130643946D01*
X193103847Y-130633718D01*
X193083330Y-130621421D01*
X193064117Y-130607171D01*
X193046393Y-130591107D01*
X193030329Y-130573383D01*
X193016079Y-130554170D01*
X193003782Y-130533653D01*
X192993554Y-130512029D01*
X192985496Y-130489507D01*
X192979684Y-130466303D01*
X192976174Y-130442642D01*
X192975000Y-130418750D01*
X192975000Y-129931250D01*
X192976174Y-129907358D01*
X192979684Y-129883697D01*
X192985496Y-129860493D01*
X192993554Y-129837971D01*
X193003782Y-129816347D01*
X193016079Y-129795830D01*
X193030329Y-129776617D01*
X193046393Y-129758893D01*
X193064117Y-129742829D01*
X193083330Y-129728579D01*
X193103847Y-129716282D01*
X193125471Y-129706054D01*
X193147993Y-129697996D01*
X193171197Y-129692184D01*
X193194858Y-129688674D01*
X193218750Y-129687500D01*
X194131250Y-129687500D01*
X194155142Y-129688674D01*
G37*
G04 #@! TD.AperFunction*
G04 #@! TA.AperFunction,SMDPad,CuDef*
G36*
X194155142Y-131563674D02*
G01*
X194178803Y-131567184D01*
X194202007Y-131572996D01*
X194224529Y-131581054D01*
X194246153Y-131591282D01*
X194266670Y-131603579D01*
X194285883Y-131617829D01*
X194303607Y-131633893D01*
X194319671Y-131651617D01*
X194333921Y-131670830D01*
X194346218Y-131691347D01*
X194356446Y-131712971D01*
X194364504Y-131735493D01*
X194370316Y-131758697D01*
X194373826Y-131782358D01*
X194375000Y-131806250D01*
X194375000Y-132293750D01*
X194373826Y-132317642D01*
X194370316Y-132341303D01*
X194364504Y-132364507D01*
X194356446Y-132387029D01*
X194346218Y-132408653D01*
X194333921Y-132429170D01*
X194319671Y-132448383D01*
X194303607Y-132466107D01*
X194285883Y-132482171D01*
X194266670Y-132496421D01*
X194246153Y-132508718D01*
X194224529Y-132518946D01*
X194202007Y-132527004D01*
X194178803Y-132532816D01*
X194155142Y-132536326D01*
X194131250Y-132537500D01*
X193218750Y-132537500D01*
X193194858Y-132536326D01*
X193171197Y-132532816D01*
X193147993Y-132527004D01*
X193125471Y-132518946D01*
X193103847Y-132508718D01*
X193083330Y-132496421D01*
X193064117Y-132482171D01*
X193046393Y-132466107D01*
X193030329Y-132448383D01*
X193016079Y-132429170D01*
X193003782Y-132408653D01*
X192993554Y-132387029D01*
X192985496Y-132364507D01*
X192979684Y-132341303D01*
X192976174Y-132317642D01*
X192975000Y-132293750D01*
X192975000Y-131806250D01*
X192976174Y-131782358D01*
X192979684Y-131758697D01*
X192985496Y-131735493D01*
X192993554Y-131712971D01*
X193003782Y-131691347D01*
X193016079Y-131670830D01*
X193030329Y-131651617D01*
X193046393Y-131633893D01*
X193064117Y-131617829D01*
X193083330Y-131603579D01*
X193103847Y-131591282D01*
X193125471Y-131581054D01*
X193147993Y-131572996D01*
X193171197Y-131567184D01*
X193194858Y-131563674D01*
X193218750Y-131562500D01*
X194131250Y-131562500D01*
X194155142Y-131563674D01*
G37*
G04 #@! TD.AperFunction*
D19*
X187325000Y-128587500D03*
X186531250Y-146843750D03*
X196850000Y-155575000D03*
X194468750Y-165100000D03*
X181768750Y-161131250D03*
X191293750Y-163512500D03*
X191293750Y-163512500D03*
X195262500Y-154781250D03*
X215900000Y-140493750D03*
X194468750Y-157162500D03*
X218281250Y-156368750D03*
X204152500Y-153035000D03*
X195262500Y-155781253D03*
X201612500Y-153018169D03*
X196056250Y-157162500D03*
X219868750Y-153193750D03*
X196469000Y-146177000D03*
X183134000Y-147955000D03*
X179853663Y-157007598D03*
X175133000Y-141732000D03*
X180086000Y-158115000D03*
X172085000Y-141986000D03*
D20*
X176994027Y-132535527D02*
X183664473Y-132535527D01*
X176543750Y-132085250D02*
X176994027Y-132535527D01*
X183664473Y-132535527D02*
X184150000Y-132050000D01*
X176543750Y-130706250D02*
X176543750Y-132085250D01*
X175943750Y-162193750D02*
X177800000Y-160337500D01*
X174625000Y-162193750D02*
X175943750Y-162193750D01*
X175418750Y-157956250D02*
X177800000Y-160337500D01*
X175418750Y-155575000D02*
X175418750Y-157956250D01*
D21*
X189606250Y-130175000D02*
X189706250Y-130175000D01*
X187906250Y-131875000D02*
X189606250Y-130175000D01*
X187506250Y-131875000D02*
X187906250Y-131875000D01*
D20*
X187331250Y-132050000D02*
X187506250Y-131875000D01*
X184150000Y-132050000D02*
X187331250Y-132050000D01*
X189706250Y-130175000D02*
X193675000Y-130175000D01*
X185725000Y-140193750D02*
X185725000Y-149875000D01*
X183356250Y-137825000D02*
X185725000Y-140193750D01*
X183356250Y-132843750D02*
X184150000Y-132050000D01*
X183356250Y-137825000D02*
X183356250Y-132843750D01*
D21*
X179789101Y-162326601D02*
X184026599Y-162326601D01*
X184125000Y-162228200D02*
X184125000Y-161275000D01*
X184026599Y-162326601D02*
X184125000Y-162228200D01*
X177800000Y-160337500D02*
X179789101Y-162326601D01*
X182578200Y-156375000D02*
X181625000Y-156375000D01*
X184125000Y-157921800D02*
X182578200Y-156375000D01*
X182578200Y-156375000D02*
X184150000Y-154803200D01*
X184150000Y-154803200D02*
X184150000Y-152400000D01*
X184150000Y-152400000D02*
X184943750Y-152400000D01*
X185725000Y-151618750D02*
X185725000Y-149875000D01*
X184943750Y-152400000D02*
X185725000Y-151618750D01*
X196737500Y-151575000D02*
X196850000Y-151462500D01*
X193025000Y-151575000D02*
X196737500Y-151575000D01*
X185768750Y-151575000D02*
X193025000Y-151575000D01*
X185725000Y-151618750D02*
X185768750Y-151575000D01*
X184125000Y-159568750D02*
X184150000Y-159543750D01*
X184125000Y-161275000D02*
X184125000Y-159568750D01*
X184150000Y-159543750D02*
X184125000Y-157921800D01*
X189746950Y-159543750D02*
X190525000Y-160321800D01*
X184150000Y-159543750D02*
X189746950Y-159543750D01*
X190525000Y-160321800D02*
X190525000Y-161275000D01*
X190623401Y-160223399D02*
X190525000Y-160321800D01*
X194860899Y-160223399D02*
X190623401Y-160223399D01*
X196850000Y-162212500D02*
X194860899Y-160223399D01*
X190500000Y-161300000D02*
X190525000Y-161275000D01*
X190500000Y-165100000D02*
X190500000Y-161300000D01*
D20*
X189881250Y-132050000D02*
X189706250Y-131875000D01*
X193675000Y-132050000D02*
X189881250Y-132050000D01*
X189706250Y-131875000D02*
X189706250Y-146050000D01*
X187325000Y-148431250D02*
X187325000Y-149875000D01*
X189706250Y-146050000D02*
X187325000Y-148431250D01*
X184150000Y-130175000D02*
X187506250Y-130175000D01*
X187506250Y-130175000D02*
X187506250Y-128768750D01*
X187506250Y-128768750D02*
X187325000Y-128587500D01*
X186531250Y-149868750D02*
X186525000Y-149875000D01*
X186531250Y-146843750D02*
X186531250Y-149868750D01*
X177781250Y-155575000D02*
X181625000Y-155575000D01*
X177293750Y-155575000D02*
X177781250Y-155575000D01*
X179695723Y-138310527D02*
X180181250Y-137825000D01*
X168464510Y-138885490D02*
X179120760Y-138885490D01*
X179120760Y-138885490D02*
X179695723Y-138310527D01*
X166687500Y-140662500D02*
X168464510Y-138885490D01*
X166687500Y-141287500D02*
X166687500Y-140662500D01*
X182056250Y-139700000D02*
X183356250Y-139700000D01*
X180181250Y-137825000D02*
X182056250Y-139700000D01*
X180621000Y-158775000D02*
X181625000Y-158775000D01*
X180447973Y-158948027D02*
X180621000Y-158775000D01*
X178285527Y-158948027D02*
X180447973Y-158948027D01*
X177800000Y-158462500D02*
X178285527Y-158948027D01*
X183642000Y-144899934D02*
X184925000Y-146182934D01*
X183642000Y-140473250D02*
X183642000Y-144899934D01*
X183356250Y-139700000D02*
X183356250Y-140187500D01*
X184925000Y-146182934D02*
X184925000Y-149875000D01*
X183356250Y-140187500D02*
X183642000Y-140473250D01*
X192375000Y-164400000D02*
X192375000Y-165100000D01*
X192375000Y-161796000D02*
X192375000Y-164400000D01*
X191854000Y-161275000D02*
X192375000Y-161796000D01*
X191325000Y-161275000D02*
X191854000Y-161275000D01*
X182629000Y-158775000D02*
X181625000Y-158775000D01*
X183325000Y-159471000D02*
X182629000Y-158775000D01*
X183325000Y-161275000D02*
X183325000Y-159471000D01*
X180621000Y-154775000D02*
X181625000Y-154775000D01*
X180393990Y-154547990D02*
X180621000Y-154775000D01*
X176813582Y-154547990D02*
X180393990Y-154547990D01*
X176479240Y-154882332D02*
X176813582Y-154547990D01*
X176479240Y-157141740D02*
X176479240Y-154882332D01*
X177800000Y-158462500D02*
X176479240Y-157141740D01*
D21*
X181625000Y-154775000D02*
X183350000Y-154775000D01*
X183350000Y-154775000D02*
X183356250Y-154768750D01*
X183356250Y-154768750D02*
X183356250Y-151606250D01*
X183356250Y-151606250D02*
X184150000Y-151606250D01*
X184925000Y-150831250D02*
X184925000Y-149875000D01*
X184150000Y-151606250D02*
X184925000Y-150831250D01*
X196850000Y-153337500D02*
X196850000Y-154781250D01*
X196850000Y-154781250D02*
X196850000Y-155575000D01*
X194468750Y-165100000D02*
X192375000Y-165100000D01*
X195887500Y-152375000D02*
X196850000Y-153337500D01*
X193025000Y-152375000D02*
X195887500Y-152375000D01*
X183325000Y-161275000D02*
X181912500Y-161275000D01*
X181912500Y-161275000D02*
X181768750Y-161131250D01*
X191325000Y-161275000D02*
X191325000Y-163481250D01*
X191325000Y-163481250D02*
X191293750Y-163512500D01*
X215900000Y-134221800D02*
X215900000Y-134875000D01*
X213123200Y-131445000D02*
X215900000Y-134221800D01*
X210566000Y-131445000D02*
X213123200Y-131445000D01*
X215900000Y-138828200D02*
X216771800Y-139700000D01*
X215900000Y-138175000D02*
X215900000Y-138828200D01*
X234950000Y-138828200D02*
X234950000Y-138175000D01*
X234078200Y-139700000D02*
X234950000Y-138828200D01*
X216771800Y-139700000D02*
X234078200Y-139700000D01*
X193025000Y-154775000D02*
X194462500Y-154775000D01*
X194462500Y-154775000D02*
X194468750Y-154781250D01*
X194468750Y-154781250D02*
X195262500Y-154781250D01*
X215900000Y-140493750D02*
X215900000Y-138175000D01*
X234950000Y-134221800D02*
X234950000Y-134875000D01*
X232173200Y-131445000D02*
X234950000Y-134221800D01*
X229552500Y-131445000D02*
X232173200Y-131445000D01*
X215900000Y-153271800D02*
X215900000Y-153925000D01*
X213123200Y-150495000D02*
X215900000Y-153271800D01*
X210502500Y-150495000D02*
X213123200Y-150495000D01*
X215900000Y-157878200D02*
X216644800Y-158623000D01*
X215900000Y-157225000D02*
X215900000Y-157878200D01*
X234205200Y-158623000D02*
X234950000Y-157878200D01*
X234950000Y-157878200D02*
X234950000Y-157225000D01*
X216644800Y-158623000D02*
X234205200Y-158623000D01*
X193025000Y-157175000D02*
X193662500Y-157175000D01*
X193662500Y-157175000D02*
X193675000Y-157162500D01*
X193675000Y-157162500D02*
X194468750Y-157162500D01*
X217425000Y-157225000D02*
X215900000Y-157225000D01*
X218281250Y-156368750D02*
X217425000Y-157225000D01*
X234950000Y-153271800D02*
X234950000Y-153925000D01*
X232173200Y-150495000D02*
X234950000Y-153271800D01*
X229552500Y-150495000D02*
X232173200Y-150495000D01*
D20*
X166687500Y-138487500D02*
X166687500Y-137862500D01*
X171293750Y-133256250D02*
X171293750Y-130706250D01*
X166687500Y-137862500D02*
X171293750Y-133256250D01*
D21*
X171293750Y-129153050D02*
X171293750Y-126206250D01*
X171293750Y-130706250D02*
X171293750Y-129153050D01*
X171293750Y-126206250D02*
X178593750Y-126206250D01*
X178593750Y-127759450D02*
X178593750Y-130706250D01*
X178593750Y-126206250D02*
X178593750Y-127759450D01*
X204152500Y-133985000D02*
X203993750Y-134143750D01*
X204152500Y-133985000D02*
X204216000Y-133985000D01*
X204216000Y-133985000D02*
X204152500Y-134302500D01*
X193025000Y-155575000D02*
X194468750Y-155575000D01*
X194468750Y-155575000D02*
X195056247Y-155575000D01*
X195056247Y-155575000D02*
X195262500Y-155781253D01*
X204135669Y-153018169D02*
X204152500Y-153035000D01*
X201612500Y-153018169D02*
X204135669Y-153018169D01*
X194817877Y-156375000D02*
X195605377Y-157162500D01*
X193025000Y-156375000D02*
X194817877Y-156375000D01*
X195605377Y-157162500D02*
X196056250Y-157162500D01*
X223043750Y-153193750D02*
X223202500Y-153035000D01*
X219868750Y-153193750D02*
X223043750Y-153193750D01*
D20*
X180181250Y-139700000D02*
X180181250Y-142081250D01*
X180181250Y-142081250D02*
X184125000Y-146025000D01*
X168425000Y-165893750D02*
X168275000Y-165893750D01*
X184125000Y-146025000D02*
X184125000Y-149875000D01*
X168425000Y-166697750D02*
X169494250Y-167767000D01*
X168425000Y-165893750D02*
X168425000Y-166697750D01*
X169494250Y-167767000D02*
X197866000Y-167767000D01*
X197866000Y-167767000D02*
X198247000Y-167386000D01*
X198247000Y-167386000D02*
X198247000Y-147955000D01*
X198247000Y-147955000D02*
X196469000Y-146177000D01*
X184125000Y-148946000D02*
X184125000Y-149875000D01*
X183134000Y-147955000D02*
X184125000Y-148946000D01*
X180621000Y-157175000D02*
X180545000Y-157099000D01*
X181625000Y-157175000D02*
X180621000Y-157175000D01*
X180545000Y-157099000D02*
X179945065Y-157099000D01*
X179945065Y-157099000D02*
X179853663Y-157007598D01*
X175133000Y-139985750D02*
X175418750Y-139700000D01*
X175133000Y-141732000D02*
X175133000Y-139985750D01*
X174943750Y-130706250D02*
X174943750Y-136206250D01*
X175418750Y-136681250D02*
X175418750Y-137825000D01*
X174943750Y-136206250D02*
X175418750Y-136681250D01*
X181625000Y-157975000D02*
X181625000Y-158100000D01*
X181625000Y-158100000D02*
X181610000Y-158115000D01*
X181610000Y-158115000D02*
X180086000Y-158115000D01*
X172085000Y-139858750D02*
X172243750Y-139700000D01*
X172085000Y-141986000D02*
X172085000Y-139858750D01*
X174093750Y-130706250D02*
X173920751Y-130879249D01*
X174143750Y-130706250D02*
X174093750Y-130706250D01*
X173920751Y-136147999D02*
X172243750Y-137825000D01*
X173920751Y-130879249D02*
X173920751Y-136147999D01*
X196087500Y-159575000D02*
X196850000Y-160337500D01*
X193025000Y-159575000D02*
X196087500Y-159575000D01*
G36*
X177538616Y-132261384D02*
G01*
X177743161Y-132429250D01*
X177008826Y-132429250D01*
X177044402Y-132418029D01*
X177154061Y-132357854D01*
X177249873Y-132277443D01*
X177328156Y-132179884D01*
X177383873Y-132072828D01*
X177538616Y-132261384D01*
G37*
X177538616Y-132261384D02*
X177743161Y-132429250D01*
X177008826Y-132429250D01*
X177044402Y-132418029D01*
X177154061Y-132357854D01*
X177249873Y-132277443D01*
X177328156Y-132179884D01*
X177383873Y-132072828D01*
X177538616Y-132261384D01*
G36*
X177130237Y-126997360D02*
G01*
X177215151Y-127277283D01*
X177353044Y-127535263D01*
X177538616Y-127761384D01*
X177764736Y-127946956D01*
X177857150Y-127996352D01*
X177857150Y-128916148D01*
X177764737Y-128965544D01*
X177538617Y-129151116D01*
X177383873Y-129339671D01*
X177328156Y-129232616D01*
X177249873Y-129135057D01*
X177154061Y-129054646D01*
X177044402Y-128994471D01*
X176925111Y-128956846D01*
X176825500Y-128946250D01*
X176666750Y-129105000D01*
X176666750Y-130579250D01*
X176690750Y-130579250D01*
X176690750Y-130833250D01*
X176666750Y-130833250D01*
X176666750Y-130853250D01*
X176631822Y-130853250D01*
X176631822Y-129581250D01*
X176619562Y-129456768D01*
X176583252Y-129337070D01*
X176524287Y-129226756D01*
X176444935Y-129130065D01*
X176420750Y-129110217D01*
X176420750Y-129105000D01*
X176262000Y-128946250D01*
X176162389Y-128956846D01*
X176143016Y-128962956D01*
X176118232Y-128955438D01*
X175993750Y-128943178D01*
X175493750Y-128943178D01*
X175369268Y-128955438D01*
X175343750Y-128963179D01*
X175318232Y-128955438D01*
X175193750Y-128943178D01*
X174693750Y-128943178D01*
X174569268Y-128955438D01*
X174543750Y-128963179D01*
X174518232Y-128955438D01*
X174393750Y-128943178D01*
X173893750Y-128943178D01*
X173769268Y-128955438D01*
X173743750Y-128963179D01*
X173718232Y-128955438D01*
X173593750Y-128943178D01*
X173093750Y-128943178D01*
X172969268Y-128955438D01*
X172849570Y-128991748D01*
X172739256Y-129050713D01*
X172642565Y-129130065D01*
X172563213Y-129226756D01*
X172504248Y-129337070D01*
X172503504Y-129339521D01*
X172348884Y-129151116D01*
X172122764Y-128965544D01*
X172030350Y-128916148D01*
X172030350Y-127996352D01*
X172122763Y-127946956D01*
X172348884Y-127761384D01*
X172534456Y-127535264D01*
X172672349Y-127277284D01*
X172757263Y-126997361D01*
X172762632Y-126942850D01*
X177124868Y-126942850D01*
X177130237Y-126997360D01*
G37*
X177130237Y-126997360D02*
X177215151Y-127277283D01*
X177353044Y-127535263D01*
X177538616Y-127761384D01*
X177764736Y-127946956D01*
X177857150Y-127996352D01*
X177857150Y-128916148D01*
X177764737Y-128965544D01*
X177538617Y-129151116D01*
X177383873Y-129339671D01*
X177328156Y-129232616D01*
X177249873Y-129135057D01*
X177154061Y-129054646D01*
X177044402Y-128994471D01*
X176925111Y-128956846D01*
X176825500Y-128946250D01*
X176666750Y-129105000D01*
X176666750Y-130579250D01*
X176690750Y-130579250D01*
X176690750Y-130833250D01*
X176666750Y-130833250D01*
X176666750Y-130853250D01*
X176631822Y-130853250D01*
X176631822Y-129581250D01*
X176619562Y-129456768D01*
X176583252Y-129337070D01*
X176524287Y-129226756D01*
X176444935Y-129130065D01*
X176420750Y-129110217D01*
X176420750Y-129105000D01*
X176262000Y-128946250D01*
X176162389Y-128956846D01*
X176143016Y-128962956D01*
X176118232Y-128955438D01*
X175993750Y-128943178D01*
X175493750Y-128943178D01*
X175369268Y-128955438D01*
X175343750Y-128963179D01*
X175318232Y-128955438D01*
X175193750Y-128943178D01*
X174693750Y-128943178D01*
X174569268Y-128955438D01*
X174543750Y-128963179D01*
X174518232Y-128955438D01*
X174393750Y-128943178D01*
X173893750Y-128943178D01*
X173769268Y-128955438D01*
X173743750Y-128963179D01*
X173718232Y-128955438D01*
X173593750Y-128943178D01*
X173093750Y-128943178D01*
X172969268Y-128955438D01*
X172849570Y-128991748D01*
X172739256Y-129050713D01*
X172642565Y-129130065D01*
X172563213Y-129226756D01*
X172504248Y-129337070D01*
X172503504Y-129339521D01*
X172348884Y-129151116D01*
X172122764Y-128965544D01*
X172030350Y-128916148D01*
X172030350Y-127996352D01*
X172122763Y-127946956D01*
X172348884Y-127761384D01*
X172534456Y-127535264D01*
X172672349Y-127277284D01*
X172757263Y-126997361D01*
X172762632Y-126942850D01*
X177124868Y-126942850D01*
X177130237Y-126997360D01*
M02*
