G04 #@! TF.GenerationSoftware,KiCad,Pcbnew,(5.1.5)-3*
G04 #@! TF.CreationDate,2020-03-21T14:26:23+08:00*
G04 #@! TF.ProjectId,PCB Design,50434220-4465-4736-9967-6e2e6b696361,rev?*
G04 #@! TF.SameCoordinates,Original*
G04 #@! TF.FileFunction,Soldermask,Bot*
G04 #@! TF.FilePolarity,Negative*
%FSLAX46Y46*%
G04 Gerber Fmt 4.6, Leading zero omitted, Abs format (unit mm)*
G04 Created by KiCad (PCBNEW (5.1.5)-3) date 2020-03-21 14:26:23*
%MOMM*%
%LPD*%
G04 APERTURE LIST*
%ADD10C,0.100000*%
G04 APERTURE END LIST*
D10*
G36*
X175576000Y-166494750D02*
G01*
X173674000Y-166494750D01*
X173674000Y-165292750D01*
X175576000Y-165292750D01*
X175576000Y-166494750D01*
G37*
G36*
X169376000Y-166494750D02*
G01*
X167474000Y-166494750D01*
X167474000Y-165292750D01*
X169376000Y-165292750D01*
X169376000Y-166494750D01*
G37*
G36*
X190871968Y-164353565D02*
G01*
X190910638Y-164365296D01*
X190946277Y-164384346D01*
X190977517Y-164409983D01*
X191003154Y-164441223D01*
X191022204Y-164476862D01*
X191033935Y-164515532D01*
X191038500Y-164561888D01*
X191038500Y-165638112D01*
X191033935Y-165684468D01*
X191022204Y-165723138D01*
X191003154Y-165758777D01*
X190977517Y-165790017D01*
X190946277Y-165815654D01*
X190910638Y-165834704D01*
X190871968Y-165846435D01*
X190825612Y-165851000D01*
X190174388Y-165851000D01*
X190128032Y-165846435D01*
X190089362Y-165834704D01*
X190053723Y-165815654D01*
X190022483Y-165790017D01*
X189996846Y-165758777D01*
X189977796Y-165723138D01*
X189966065Y-165684468D01*
X189961500Y-165638112D01*
X189961500Y-164561888D01*
X189966065Y-164515532D01*
X189977796Y-164476862D01*
X189996846Y-164441223D01*
X190022483Y-164409983D01*
X190053723Y-164384346D01*
X190089362Y-164365296D01*
X190128032Y-164353565D01*
X190174388Y-164349000D01*
X190825612Y-164349000D01*
X190871968Y-164353565D01*
G37*
G36*
X192746968Y-164353565D02*
G01*
X192785638Y-164365296D01*
X192821277Y-164384346D01*
X192852517Y-164409983D01*
X192878154Y-164441223D01*
X192897204Y-164476862D01*
X192908935Y-164515532D01*
X192913500Y-164561888D01*
X192913500Y-165638112D01*
X192908935Y-165684468D01*
X192897204Y-165723138D01*
X192878154Y-165758777D01*
X192852517Y-165790017D01*
X192821277Y-165815654D01*
X192785638Y-165834704D01*
X192746968Y-165846435D01*
X192700612Y-165851000D01*
X192049388Y-165851000D01*
X192003032Y-165846435D01*
X191964362Y-165834704D01*
X191928723Y-165815654D01*
X191897483Y-165790017D01*
X191871846Y-165758777D01*
X191852796Y-165723138D01*
X191841065Y-165684468D01*
X191836500Y-165638112D01*
X191836500Y-164561888D01*
X191841065Y-164515532D01*
X191852796Y-164476862D01*
X191871846Y-164441223D01*
X191897483Y-164409983D01*
X191928723Y-164384346D01*
X191964362Y-164365296D01*
X192003032Y-164353565D01*
X192049388Y-164349000D01*
X192700612Y-164349000D01*
X192746968Y-164353565D01*
G37*
G36*
X169376000Y-162794750D02*
G01*
X167474000Y-162794750D01*
X167474000Y-161592750D01*
X169376000Y-161592750D01*
X169376000Y-162794750D01*
G37*
G36*
X175576000Y-162794750D02*
G01*
X173674000Y-162794750D01*
X173674000Y-161592750D01*
X175576000Y-161592750D01*
X175576000Y-162794750D01*
G37*
G36*
X197434468Y-161678565D02*
G01*
X197473138Y-161690296D01*
X197508777Y-161709346D01*
X197540017Y-161734983D01*
X197565654Y-161766223D01*
X197584704Y-161801862D01*
X197596435Y-161840532D01*
X197601000Y-161886888D01*
X197601000Y-162538112D01*
X197596435Y-162584468D01*
X197584704Y-162623138D01*
X197565654Y-162658777D01*
X197540017Y-162690017D01*
X197508777Y-162715654D01*
X197473138Y-162734704D01*
X197434468Y-162746435D01*
X197388112Y-162751000D01*
X196311888Y-162751000D01*
X196265532Y-162746435D01*
X196226862Y-162734704D01*
X196191223Y-162715654D01*
X196159983Y-162690017D01*
X196134346Y-162658777D01*
X196115296Y-162623138D01*
X196103565Y-162584468D01*
X196099000Y-162538112D01*
X196099000Y-161886888D01*
X196103565Y-161840532D01*
X196115296Y-161801862D01*
X196134346Y-161766223D01*
X196159983Y-161734983D01*
X196191223Y-161709346D01*
X196226862Y-161690296D01*
X196265532Y-161678565D01*
X196311888Y-161674000D01*
X197388112Y-161674000D01*
X197434468Y-161678565D01*
G37*
G36*
X191651000Y-162076000D02*
G01*
X182999000Y-162076000D01*
X182999000Y-160474000D01*
X191651000Y-160474000D01*
X191651000Y-162076000D01*
G37*
G36*
X197434468Y-159803565D02*
G01*
X197473138Y-159815296D01*
X197508777Y-159834346D01*
X197540017Y-159859983D01*
X197565654Y-159891223D01*
X197584704Y-159926862D01*
X197596435Y-159965532D01*
X197601000Y-160011888D01*
X197601000Y-160663112D01*
X197596435Y-160709468D01*
X197584704Y-160748138D01*
X197565654Y-160783777D01*
X197540017Y-160815017D01*
X197508777Y-160840654D01*
X197473138Y-160859704D01*
X197434468Y-160871435D01*
X197388112Y-160876000D01*
X196311888Y-160876000D01*
X196265532Y-160871435D01*
X196226862Y-160859704D01*
X196191223Y-160840654D01*
X196159983Y-160815017D01*
X196134346Y-160783777D01*
X196115296Y-160748138D01*
X196103565Y-160709468D01*
X196099000Y-160663112D01*
X196099000Y-160011888D01*
X196103565Y-159965532D01*
X196115296Y-159926862D01*
X196134346Y-159891223D01*
X196159983Y-159859983D01*
X196191223Y-159834346D01*
X196226862Y-159815296D01*
X196265532Y-159803565D01*
X196311888Y-159799000D01*
X197388112Y-159799000D01*
X197434468Y-159803565D01*
G37*
G36*
X178384468Y-159803565D02*
G01*
X178423138Y-159815296D01*
X178458777Y-159834346D01*
X178490017Y-159859983D01*
X178515654Y-159891223D01*
X178534704Y-159926862D01*
X178546435Y-159965532D01*
X178551000Y-160011888D01*
X178551000Y-160663112D01*
X178546435Y-160709468D01*
X178534704Y-160748138D01*
X178515654Y-160783777D01*
X178490017Y-160815017D01*
X178458777Y-160840654D01*
X178423138Y-160859704D01*
X178384468Y-160871435D01*
X178338112Y-160876000D01*
X177261888Y-160876000D01*
X177215532Y-160871435D01*
X177176862Y-160859704D01*
X177141223Y-160840654D01*
X177109983Y-160815017D01*
X177084346Y-160783777D01*
X177065296Y-160748138D01*
X177053565Y-160709468D01*
X177049000Y-160663112D01*
X177049000Y-160011888D01*
X177053565Y-159965532D01*
X177065296Y-159926862D01*
X177084346Y-159891223D01*
X177109983Y-159859983D01*
X177141223Y-159834346D01*
X177176862Y-159815296D01*
X177215532Y-159803565D01*
X177261888Y-159799000D01*
X178338112Y-159799000D01*
X178384468Y-159803565D01*
G37*
G36*
X182426000Y-159901000D02*
G01*
X180824000Y-159901000D01*
X180824000Y-151249000D01*
X182426000Y-151249000D01*
X182426000Y-159901000D01*
G37*
G36*
X193826000Y-159901000D02*
G01*
X192224000Y-159901000D01*
X192224000Y-151249000D01*
X193826000Y-151249000D01*
X193826000Y-159901000D01*
G37*
G36*
X178384468Y-157928565D02*
G01*
X178423138Y-157940296D01*
X178458777Y-157959346D01*
X178490017Y-157984983D01*
X178515654Y-158016223D01*
X178534704Y-158051862D01*
X178546435Y-158090532D01*
X178551000Y-158136888D01*
X178551000Y-158788112D01*
X178546435Y-158834468D01*
X178534704Y-158873138D01*
X178515654Y-158908777D01*
X178490017Y-158940017D01*
X178458777Y-158965654D01*
X178423138Y-158984704D01*
X178384468Y-158996435D01*
X178338112Y-159001000D01*
X177261888Y-159001000D01*
X177215532Y-158996435D01*
X177176862Y-158984704D01*
X177141223Y-158965654D01*
X177109983Y-158940017D01*
X177084346Y-158908777D01*
X177065296Y-158873138D01*
X177053565Y-158834468D01*
X177049000Y-158788112D01*
X177049000Y-158136888D01*
X177053565Y-158090532D01*
X177065296Y-158051862D01*
X177084346Y-158016223D01*
X177109983Y-157984983D01*
X177141223Y-157959346D01*
X177176862Y-157940296D01*
X177215532Y-157928565D01*
X177261888Y-157924000D01*
X178338112Y-157924000D01*
X178384468Y-157928565D01*
G37*
G36*
X235601000Y-157726000D02*
G01*
X234299000Y-157726000D01*
X234299000Y-156724000D01*
X235601000Y-156724000D01*
X235601000Y-157726000D01*
G37*
G36*
X216551000Y-157726000D02*
G01*
X215249000Y-157726000D01*
X215249000Y-156724000D01*
X216551000Y-156724000D01*
X216551000Y-157726000D01*
G37*
G36*
X208558974Y-153608684D02*
G01*
X208776974Y-153698983D01*
X208931123Y-153762833D01*
X209266048Y-153986623D01*
X209550877Y-154271452D01*
X209774667Y-154606377D01*
X209807062Y-154684586D01*
X209928816Y-154978526D01*
X210007400Y-155373594D01*
X210007400Y-155776406D01*
X209928816Y-156171474D01*
X209877951Y-156294272D01*
X209774667Y-156543623D01*
X209550877Y-156878548D01*
X209266048Y-157163377D01*
X208931123Y-157387167D01*
X208776974Y-157451017D01*
X208558974Y-157541316D01*
X208163906Y-157619900D01*
X207761094Y-157619900D01*
X207366026Y-157541316D01*
X207148026Y-157451017D01*
X206993877Y-157387167D01*
X206658952Y-157163377D01*
X206374123Y-156878548D01*
X206150333Y-156543623D01*
X206047049Y-156294272D01*
X205996184Y-156171474D01*
X205917600Y-155776406D01*
X205917600Y-155373594D01*
X205996184Y-154978526D01*
X206117938Y-154684586D01*
X206150333Y-154606377D01*
X206374123Y-154271452D01*
X206658952Y-153986623D01*
X206993877Y-153762833D01*
X207148026Y-153698983D01*
X207366026Y-153608684D01*
X207761094Y-153530100D01*
X208163906Y-153530100D01*
X208558974Y-153608684D01*
G37*
G36*
X227608974Y-153608684D02*
G01*
X227826974Y-153698983D01*
X227981123Y-153762833D01*
X228316048Y-153986623D01*
X228600877Y-154271452D01*
X228824667Y-154606377D01*
X228857062Y-154684586D01*
X228978816Y-154978526D01*
X229057400Y-155373594D01*
X229057400Y-155776406D01*
X228978816Y-156171474D01*
X228927951Y-156294272D01*
X228824667Y-156543623D01*
X228600877Y-156878548D01*
X228316048Y-157163377D01*
X227981123Y-157387167D01*
X227826974Y-157451017D01*
X227608974Y-157541316D01*
X227213906Y-157619900D01*
X226811094Y-157619900D01*
X226416026Y-157541316D01*
X226198026Y-157451017D01*
X226043877Y-157387167D01*
X225708952Y-157163377D01*
X225424123Y-156878548D01*
X225200333Y-156543623D01*
X225097049Y-156294272D01*
X225046184Y-156171474D01*
X224967600Y-155776406D01*
X224967600Y-155373594D01*
X225046184Y-154978526D01*
X225167938Y-154684586D01*
X225200333Y-154606377D01*
X225424123Y-154271452D01*
X225708952Y-153986623D01*
X226043877Y-153762833D01*
X226198026Y-153698983D01*
X226416026Y-153608684D01*
X226811094Y-153530100D01*
X227213906Y-153530100D01*
X227608974Y-153608684D01*
G37*
G36*
X203152604Y-154684585D02*
G01*
X203321126Y-154754389D01*
X203472791Y-154855728D01*
X203601772Y-154984709D01*
X203703111Y-155136374D01*
X203772915Y-155304896D01*
X203808500Y-155483797D01*
X203808500Y-155666203D01*
X203772915Y-155845104D01*
X203703111Y-156013626D01*
X203601772Y-156165291D01*
X203472791Y-156294272D01*
X203321126Y-156395611D01*
X203152604Y-156465415D01*
X202973703Y-156501000D01*
X202791297Y-156501000D01*
X202612396Y-156465415D01*
X202443874Y-156395611D01*
X202292209Y-156294272D01*
X202163228Y-156165291D01*
X202061889Y-156013626D01*
X201992085Y-155845104D01*
X201956500Y-155666203D01*
X201956500Y-155483797D01*
X201992085Y-155304896D01*
X202061889Y-155136374D01*
X202163228Y-154984709D01*
X202292209Y-154855728D01*
X202443874Y-154754389D01*
X202612396Y-154684585D01*
X202791297Y-154649000D01*
X202973703Y-154649000D01*
X203152604Y-154684585D01*
G37*
G36*
X232362604Y-154684585D02*
G01*
X232531126Y-154754389D01*
X232682791Y-154855728D01*
X232811772Y-154984709D01*
X232913111Y-155136374D01*
X232982915Y-155304896D01*
X233018500Y-155483797D01*
X233018500Y-155666203D01*
X232982915Y-155845104D01*
X232913111Y-156013626D01*
X232811772Y-156165291D01*
X232682791Y-156294272D01*
X232531126Y-156395611D01*
X232362604Y-156465415D01*
X232183703Y-156501000D01*
X232001297Y-156501000D01*
X231822396Y-156465415D01*
X231653874Y-156395611D01*
X231502209Y-156294272D01*
X231373228Y-156165291D01*
X231271889Y-156013626D01*
X231202085Y-155845104D01*
X231166500Y-155666203D01*
X231166500Y-155483797D01*
X231202085Y-155304896D01*
X231271889Y-155136374D01*
X231373228Y-154984709D01*
X231502209Y-154855728D01*
X231653874Y-154754389D01*
X231822396Y-154684585D01*
X232001297Y-154649000D01*
X232183703Y-154649000D01*
X232362604Y-154684585D01*
G37*
G36*
X222202604Y-154684585D02*
G01*
X222371126Y-154754389D01*
X222522791Y-154855728D01*
X222651772Y-154984709D01*
X222753111Y-155136374D01*
X222822915Y-155304896D01*
X222858500Y-155483797D01*
X222858500Y-155666203D01*
X222822915Y-155845104D01*
X222753111Y-156013626D01*
X222651772Y-156165291D01*
X222522791Y-156294272D01*
X222371126Y-156395611D01*
X222202604Y-156465415D01*
X222023703Y-156501000D01*
X221841297Y-156501000D01*
X221662396Y-156465415D01*
X221493874Y-156395611D01*
X221342209Y-156294272D01*
X221213228Y-156165291D01*
X221111889Y-156013626D01*
X221042085Y-155845104D01*
X221006500Y-155666203D01*
X221006500Y-155483797D01*
X221042085Y-155304896D01*
X221111889Y-155136374D01*
X221213228Y-154984709D01*
X221342209Y-154855728D01*
X221493874Y-154754389D01*
X221662396Y-154684585D01*
X221841297Y-154649000D01*
X222023703Y-154649000D01*
X222202604Y-154684585D01*
G37*
G36*
X213312604Y-154684585D02*
G01*
X213481126Y-154754389D01*
X213632791Y-154855728D01*
X213761772Y-154984709D01*
X213863111Y-155136374D01*
X213932915Y-155304896D01*
X213968500Y-155483797D01*
X213968500Y-155666203D01*
X213932915Y-155845104D01*
X213863111Y-156013626D01*
X213761772Y-156165291D01*
X213632791Y-156294272D01*
X213481126Y-156395611D01*
X213312604Y-156465415D01*
X213133703Y-156501000D01*
X212951297Y-156501000D01*
X212772396Y-156465415D01*
X212603874Y-156395611D01*
X212452209Y-156294272D01*
X212323228Y-156165291D01*
X212221889Y-156013626D01*
X212152085Y-155845104D01*
X212116500Y-155666203D01*
X212116500Y-155483797D01*
X212152085Y-155304896D01*
X212221889Y-155136374D01*
X212323228Y-154984709D01*
X212452209Y-154855728D01*
X212603874Y-154754389D01*
X212772396Y-154684585D01*
X212951297Y-154649000D01*
X213133703Y-154649000D01*
X213312604Y-154684585D01*
G37*
G36*
X175790718Y-154828565D02*
G01*
X175829388Y-154840296D01*
X175865027Y-154859346D01*
X175896267Y-154884983D01*
X175921904Y-154916223D01*
X175940954Y-154951862D01*
X175952685Y-154990532D01*
X175957250Y-155036888D01*
X175957250Y-156113112D01*
X175952685Y-156159468D01*
X175940954Y-156198138D01*
X175921904Y-156233777D01*
X175896267Y-156265017D01*
X175865027Y-156290654D01*
X175829388Y-156309704D01*
X175790718Y-156321435D01*
X175744362Y-156326000D01*
X175093138Y-156326000D01*
X175046782Y-156321435D01*
X175008112Y-156309704D01*
X174972473Y-156290654D01*
X174941233Y-156265017D01*
X174915596Y-156233777D01*
X174896546Y-156198138D01*
X174884815Y-156159468D01*
X174880250Y-156113112D01*
X174880250Y-155036888D01*
X174884815Y-154990532D01*
X174896546Y-154951862D01*
X174915596Y-154916223D01*
X174941233Y-154884983D01*
X174972473Y-154859346D01*
X175008112Y-154840296D01*
X175046782Y-154828565D01*
X175093138Y-154824000D01*
X175744362Y-154824000D01*
X175790718Y-154828565D01*
G37*
G36*
X177665718Y-154828565D02*
G01*
X177704388Y-154840296D01*
X177740027Y-154859346D01*
X177771267Y-154884983D01*
X177796904Y-154916223D01*
X177815954Y-154951862D01*
X177827685Y-154990532D01*
X177832250Y-155036888D01*
X177832250Y-156113112D01*
X177827685Y-156159468D01*
X177815954Y-156198138D01*
X177796904Y-156233777D01*
X177771267Y-156265017D01*
X177740027Y-156290654D01*
X177704388Y-156309704D01*
X177665718Y-156321435D01*
X177619362Y-156326000D01*
X176968138Y-156326000D01*
X176921782Y-156321435D01*
X176883112Y-156309704D01*
X176847473Y-156290654D01*
X176816233Y-156265017D01*
X176790596Y-156233777D01*
X176771546Y-156198138D01*
X176759815Y-156159468D01*
X176755250Y-156113112D01*
X176755250Y-155036888D01*
X176759815Y-154990532D01*
X176771546Y-154951862D01*
X176790596Y-154916223D01*
X176816233Y-154884983D01*
X176847473Y-154859346D01*
X176883112Y-154840296D01*
X176921782Y-154828565D01*
X176968138Y-154824000D01*
X177619362Y-154824000D01*
X177665718Y-154828565D01*
G37*
G36*
X216551000Y-154426000D02*
G01*
X215249000Y-154426000D01*
X215249000Y-153424000D01*
X216551000Y-153424000D01*
X216551000Y-154426000D01*
G37*
G36*
X235601000Y-154426000D02*
G01*
X234299000Y-154426000D01*
X234299000Y-153424000D01*
X235601000Y-153424000D01*
X235601000Y-154426000D01*
G37*
G36*
X204339403Y-151873138D02*
G01*
X204495527Y-151904193D01*
X204709545Y-151992842D01*
X204714922Y-151996435D01*
X204902154Y-152121539D01*
X205065961Y-152285346D01*
X205151758Y-152413751D01*
X205194658Y-152477955D01*
X205283307Y-152691973D01*
X205304596Y-152799000D01*
X205328399Y-152918663D01*
X205328500Y-152919174D01*
X205328500Y-153150826D01*
X205283307Y-153378027D01*
X205194658Y-153592045D01*
X205194657Y-153592046D01*
X205065961Y-153784654D01*
X204902154Y-153948461D01*
X204845040Y-153986623D01*
X204709545Y-154077158D01*
X204495527Y-154165807D01*
X204344060Y-154195936D01*
X204268327Y-154211000D01*
X204036673Y-154211000D01*
X203960940Y-154195936D01*
X203809473Y-154165807D01*
X203595455Y-154077158D01*
X203459960Y-153986623D01*
X203402846Y-153948461D01*
X203239039Y-153784654D01*
X203110343Y-153592046D01*
X203110342Y-153592045D01*
X203021693Y-153378027D01*
X202976500Y-153150826D01*
X202976500Y-152919174D01*
X202976602Y-152918663D01*
X203000404Y-152799000D01*
X203021693Y-152691973D01*
X203110342Y-152477955D01*
X203153242Y-152413751D01*
X203239039Y-152285346D01*
X203402846Y-152121539D01*
X203590078Y-151996435D01*
X203595455Y-151992842D01*
X203809473Y-151904193D01*
X203965597Y-151873138D01*
X204036673Y-151859000D01*
X204268327Y-151859000D01*
X204339403Y-151873138D01*
G37*
G36*
X223389403Y-151873138D02*
G01*
X223545527Y-151904193D01*
X223759545Y-151992842D01*
X223764922Y-151996435D01*
X223952154Y-152121539D01*
X224115961Y-152285346D01*
X224201758Y-152413751D01*
X224244658Y-152477955D01*
X224333307Y-152691973D01*
X224354596Y-152799000D01*
X224378399Y-152918663D01*
X224378500Y-152919174D01*
X224378500Y-153150826D01*
X224333307Y-153378027D01*
X224244658Y-153592045D01*
X224244657Y-153592046D01*
X224115961Y-153784654D01*
X223952154Y-153948461D01*
X223895040Y-153986623D01*
X223759545Y-154077158D01*
X223545527Y-154165807D01*
X223394060Y-154195936D01*
X223318327Y-154211000D01*
X223086673Y-154211000D01*
X223010940Y-154195936D01*
X222859473Y-154165807D01*
X222645455Y-154077158D01*
X222509960Y-153986623D01*
X222452846Y-153948461D01*
X222289039Y-153784654D01*
X222160343Y-153592046D01*
X222160342Y-153592045D01*
X222071693Y-153378027D01*
X222026500Y-153150826D01*
X222026500Y-152919174D01*
X222026602Y-152918663D01*
X222050404Y-152799000D01*
X222071693Y-152691973D01*
X222160342Y-152477955D01*
X222203242Y-152413751D01*
X222289039Y-152285346D01*
X222452846Y-152121539D01*
X222640078Y-151996435D01*
X222645455Y-151992842D01*
X222859473Y-151904193D01*
X223015597Y-151873138D01*
X223086673Y-151859000D01*
X223318327Y-151859000D01*
X223389403Y-151873138D01*
G37*
G36*
X197434468Y-152803565D02*
G01*
X197473138Y-152815296D01*
X197508777Y-152834346D01*
X197540017Y-152859983D01*
X197565654Y-152891223D01*
X197584704Y-152926862D01*
X197596435Y-152965532D01*
X197601000Y-153011888D01*
X197601000Y-153663112D01*
X197596435Y-153709468D01*
X197584704Y-153748138D01*
X197565654Y-153783777D01*
X197540017Y-153815017D01*
X197508777Y-153840654D01*
X197473138Y-153859704D01*
X197434468Y-153871435D01*
X197388112Y-153876000D01*
X196311888Y-153876000D01*
X196265532Y-153871435D01*
X196226862Y-153859704D01*
X196191223Y-153840654D01*
X196159983Y-153815017D01*
X196134346Y-153783777D01*
X196115296Y-153748138D01*
X196103565Y-153709468D01*
X196099000Y-153663112D01*
X196099000Y-153011888D01*
X196103565Y-152965532D01*
X196115296Y-152926862D01*
X196134346Y-152891223D01*
X196159983Y-152859983D01*
X196191223Y-152834346D01*
X196226862Y-152815296D01*
X196265532Y-152803565D01*
X196311888Y-152799000D01*
X197388112Y-152799000D01*
X197434468Y-152803565D01*
G37*
G36*
X197434468Y-150928565D02*
G01*
X197473138Y-150940296D01*
X197508777Y-150959346D01*
X197540017Y-150984983D01*
X197565654Y-151016223D01*
X197584704Y-151051862D01*
X197596435Y-151090532D01*
X197601000Y-151136888D01*
X197601000Y-151788112D01*
X197596435Y-151834468D01*
X197584704Y-151873138D01*
X197565654Y-151908777D01*
X197540017Y-151940017D01*
X197508777Y-151965654D01*
X197473138Y-151984704D01*
X197434468Y-151996435D01*
X197388112Y-152001000D01*
X196311888Y-152001000D01*
X196265532Y-151996435D01*
X196226862Y-151984704D01*
X196191223Y-151965654D01*
X196159983Y-151940017D01*
X196134346Y-151908777D01*
X196115296Y-151873138D01*
X196103565Y-151834468D01*
X196099000Y-151788112D01*
X196099000Y-151136888D01*
X196103565Y-151090532D01*
X196115296Y-151051862D01*
X196134346Y-151016223D01*
X196159983Y-150984983D01*
X196191223Y-150959346D01*
X196226862Y-150940296D01*
X196265532Y-150928565D01*
X196311888Y-150924000D01*
X197388112Y-150924000D01*
X197434468Y-150928565D01*
G37*
G36*
X229744060Y-149334064D02*
G01*
X229895527Y-149364193D01*
X230109545Y-149452842D01*
X230109546Y-149452843D01*
X230302154Y-149581539D01*
X230465961Y-149745346D01*
X230551758Y-149873751D01*
X230594658Y-149937955D01*
X230683307Y-150151973D01*
X230728500Y-150379174D01*
X230728500Y-150610826D01*
X230683307Y-150838027D01*
X230594658Y-151052045D01*
X230568942Y-151090532D01*
X230465961Y-151244654D01*
X230302154Y-151408461D01*
X230173749Y-151494258D01*
X230109545Y-151537158D01*
X229895527Y-151625807D01*
X229744060Y-151655936D01*
X229668327Y-151671000D01*
X229436673Y-151671000D01*
X229360940Y-151655936D01*
X229209473Y-151625807D01*
X228995455Y-151537158D01*
X228931251Y-151494258D01*
X228802846Y-151408461D01*
X228639039Y-151244654D01*
X228536058Y-151090532D01*
X228510342Y-151052045D01*
X228421693Y-150838027D01*
X228376500Y-150610826D01*
X228376500Y-150379174D01*
X228421693Y-150151973D01*
X228510342Y-149937955D01*
X228553242Y-149873751D01*
X228639039Y-149745346D01*
X228802846Y-149581539D01*
X228995454Y-149452843D01*
X228995455Y-149452842D01*
X229209473Y-149364193D01*
X229360940Y-149334064D01*
X229436673Y-149319000D01*
X229668327Y-149319000D01*
X229744060Y-149334064D01*
G37*
G36*
X210694060Y-149334064D02*
G01*
X210845527Y-149364193D01*
X211059545Y-149452842D01*
X211059546Y-149452843D01*
X211252154Y-149581539D01*
X211415961Y-149745346D01*
X211501758Y-149873751D01*
X211544658Y-149937955D01*
X211633307Y-150151973D01*
X211678500Y-150379174D01*
X211678500Y-150610826D01*
X211633307Y-150838027D01*
X211544658Y-151052045D01*
X211518942Y-151090532D01*
X211415961Y-151244654D01*
X211252154Y-151408461D01*
X211123749Y-151494258D01*
X211059545Y-151537158D01*
X210845527Y-151625807D01*
X210694060Y-151655936D01*
X210618327Y-151671000D01*
X210386673Y-151671000D01*
X210310940Y-151655936D01*
X210159473Y-151625807D01*
X209945455Y-151537158D01*
X209881251Y-151494258D01*
X209752846Y-151408461D01*
X209589039Y-151244654D01*
X209486058Y-151090532D01*
X209460342Y-151052045D01*
X209371693Y-150838027D01*
X209326500Y-150610826D01*
X209326500Y-150379174D01*
X209371693Y-150151973D01*
X209460342Y-149937955D01*
X209503242Y-149873751D01*
X209589039Y-149745346D01*
X209752846Y-149581539D01*
X209945454Y-149452843D01*
X209945455Y-149452842D01*
X210159473Y-149364193D01*
X210310940Y-149334064D01*
X210386673Y-149319000D01*
X210618327Y-149319000D01*
X210694060Y-149334064D01*
G37*
G36*
X191651000Y-150676000D02*
G01*
X182999000Y-150676000D01*
X182999000Y-149074000D01*
X191651000Y-149074000D01*
X191651000Y-150676000D01*
G37*
G36*
X167456104Y-140615847D02*
G01*
X167492644Y-140626932D01*
X167526321Y-140644933D01*
X167555841Y-140669159D01*
X167580067Y-140698679D01*
X167598068Y-140732356D01*
X167609153Y-140768896D01*
X167613500Y-140813038D01*
X167613500Y-141761962D01*
X167609153Y-141806104D01*
X167598068Y-141842644D01*
X167580067Y-141876321D01*
X167555841Y-141905841D01*
X167526321Y-141930067D01*
X167492644Y-141948068D01*
X167456104Y-141959153D01*
X167411962Y-141963500D01*
X165963038Y-141963500D01*
X165918896Y-141959153D01*
X165882356Y-141948068D01*
X165848679Y-141930067D01*
X165819159Y-141905841D01*
X165794933Y-141876321D01*
X165776932Y-141842644D01*
X165765847Y-141806104D01*
X165761500Y-141761962D01*
X165761500Y-140813038D01*
X165765847Y-140768896D01*
X165776932Y-140732356D01*
X165794933Y-140698679D01*
X165819159Y-140669159D01*
X165848679Y-140644933D01*
X165882356Y-140626932D01*
X165918896Y-140615847D01*
X165963038Y-140611500D01*
X167411962Y-140611500D01*
X167456104Y-140615847D01*
G37*
G36*
X183940718Y-139166065D02*
G01*
X183979388Y-139177796D01*
X184015027Y-139196846D01*
X184046267Y-139222483D01*
X184071904Y-139253723D01*
X184090954Y-139289362D01*
X184102685Y-139328032D01*
X184107250Y-139374388D01*
X184107250Y-140025612D01*
X184102685Y-140071968D01*
X184090954Y-140110638D01*
X184071904Y-140146277D01*
X184046267Y-140177517D01*
X184015027Y-140203154D01*
X183979388Y-140222204D01*
X183940718Y-140233935D01*
X183894362Y-140238500D01*
X182818138Y-140238500D01*
X182771782Y-140233935D01*
X182733112Y-140222204D01*
X182697473Y-140203154D01*
X182666233Y-140177517D01*
X182640596Y-140146277D01*
X182621546Y-140110638D01*
X182609815Y-140071968D01*
X182605250Y-140025612D01*
X182605250Y-139374388D01*
X182609815Y-139328032D01*
X182621546Y-139289362D01*
X182640596Y-139253723D01*
X182666233Y-139222483D01*
X182697473Y-139196846D01*
X182733112Y-139177796D01*
X182771782Y-139166065D01*
X182818138Y-139161500D01*
X183894362Y-139161500D01*
X183940718Y-139166065D01*
G37*
G36*
X172828218Y-139166065D02*
G01*
X172866888Y-139177796D01*
X172902527Y-139196846D01*
X172933767Y-139222483D01*
X172959404Y-139253723D01*
X172978454Y-139289362D01*
X172990185Y-139328032D01*
X172994750Y-139374388D01*
X172994750Y-140025612D01*
X172990185Y-140071968D01*
X172978454Y-140110638D01*
X172959404Y-140146277D01*
X172933767Y-140177517D01*
X172902527Y-140203154D01*
X172866888Y-140222204D01*
X172828218Y-140233935D01*
X172781862Y-140238500D01*
X171705638Y-140238500D01*
X171659282Y-140233935D01*
X171620612Y-140222204D01*
X171584973Y-140203154D01*
X171553733Y-140177517D01*
X171528096Y-140146277D01*
X171509046Y-140110638D01*
X171497315Y-140071968D01*
X171492750Y-140025612D01*
X171492750Y-139374388D01*
X171497315Y-139328032D01*
X171509046Y-139289362D01*
X171528096Y-139253723D01*
X171553733Y-139222483D01*
X171584973Y-139196846D01*
X171620612Y-139177796D01*
X171659282Y-139166065D01*
X171705638Y-139161500D01*
X172781862Y-139161500D01*
X172828218Y-139166065D01*
G37*
G36*
X180765718Y-139166065D02*
G01*
X180804388Y-139177796D01*
X180840027Y-139196846D01*
X180871267Y-139222483D01*
X180896904Y-139253723D01*
X180915954Y-139289362D01*
X180927685Y-139328032D01*
X180932250Y-139374388D01*
X180932250Y-140025612D01*
X180927685Y-140071968D01*
X180915954Y-140110638D01*
X180896904Y-140146277D01*
X180871267Y-140177517D01*
X180840027Y-140203154D01*
X180804388Y-140222204D01*
X180765718Y-140233935D01*
X180719362Y-140238500D01*
X179643138Y-140238500D01*
X179596782Y-140233935D01*
X179558112Y-140222204D01*
X179522473Y-140203154D01*
X179491233Y-140177517D01*
X179465596Y-140146277D01*
X179446546Y-140110638D01*
X179434815Y-140071968D01*
X179430250Y-140025612D01*
X179430250Y-139374388D01*
X179434815Y-139328032D01*
X179446546Y-139289362D01*
X179465596Y-139253723D01*
X179491233Y-139222483D01*
X179522473Y-139196846D01*
X179558112Y-139177796D01*
X179596782Y-139166065D01*
X179643138Y-139161500D01*
X180719362Y-139161500D01*
X180765718Y-139166065D01*
G37*
G36*
X176003218Y-139166065D02*
G01*
X176041888Y-139177796D01*
X176077527Y-139196846D01*
X176108767Y-139222483D01*
X176134404Y-139253723D01*
X176153454Y-139289362D01*
X176165185Y-139328032D01*
X176169750Y-139374388D01*
X176169750Y-140025612D01*
X176165185Y-140071968D01*
X176153454Y-140110638D01*
X176134404Y-140146277D01*
X176108767Y-140177517D01*
X176077527Y-140203154D01*
X176041888Y-140222204D01*
X176003218Y-140233935D01*
X175956862Y-140238500D01*
X174880638Y-140238500D01*
X174834282Y-140233935D01*
X174795612Y-140222204D01*
X174759973Y-140203154D01*
X174728733Y-140177517D01*
X174703096Y-140146277D01*
X174684046Y-140110638D01*
X174672315Y-140071968D01*
X174667750Y-140025612D01*
X174667750Y-139374388D01*
X174672315Y-139328032D01*
X174684046Y-139289362D01*
X174703096Y-139253723D01*
X174728733Y-139222483D01*
X174759973Y-139196846D01*
X174795612Y-139177796D01*
X174834282Y-139166065D01*
X174880638Y-139161500D01*
X175956862Y-139161500D01*
X176003218Y-139166065D01*
G37*
G36*
X167456104Y-137815847D02*
G01*
X167492644Y-137826932D01*
X167526321Y-137844933D01*
X167555841Y-137869159D01*
X167580067Y-137898679D01*
X167598068Y-137932356D01*
X167609153Y-137968896D01*
X167613500Y-138013038D01*
X167613500Y-138961962D01*
X167609153Y-139006104D01*
X167598068Y-139042644D01*
X167580067Y-139076321D01*
X167555841Y-139105841D01*
X167526321Y-139130067D01*
X167492644Y-139148068D01*
X167456104Y-139159153D01*
X167411962Y-139163500D01*
X165963038Y-139163500D01*
X165918896Y-139159153D01*
X165882356Y-139148068D01*
X165848679Y-139130067D01*
X165819159Y-139105841D01*
X165794933Y-139076321D01*
X165776932Y-139042644D01*
X165765847Y-139006104D01*
X165761500Y-138961962D01*
X165761500Y-138013038D01*
X165765847Y-137968896D01*
X165776932Y-137932356D01*
X165794933Y-137898679D01*
X165819159Y-137869159D01*
X165848679Y-137844933D01*
X165882356Y-137826932D01*
X165918896Y-137815847D01*
X165963038Y-137811500D01*
X167411962Y-137811500D01*
X167456104Y-137815847D01*
G37*
G36*
X235601000Y-138676000D02*
G01*
X234299000Y-138676000D01*
X234299000Y-137674000D01*
X235601000Y-137674000D01*
X235601000Y-138676000D01*
G37*
G36*
X216551000Y-138676000D02*
G01*
X215249000Y-138676000D01*
X215249000Y-137674000D01*
X216551000Y-137674000D01*
X216551000Y-138676000D01*
G37*
G36*
X227608974Y-134558684D02*
G01*
X227826974Y-134648983D01*
X227981123Y-134712833D01*
X228316048Y-134936623D01*
X228600877Y-135221452D01*
X228824667Y-135556377D01*
X228857062Y-135634586D01*
X228978816Y-135928526D01*
X229057400Y-136323594D01*
X229057400Y-136726406D01*
X228978816Y-137121474D01*
X228895819Y-137321846D01*
X228824667Y-137493623D01*
X228600877Y-137828548D01*
X228316048Y-138113377D01*
X227981123Y-138337167D01*
X227917549Y-138363500D01*
X227608974Y-138491316D01*
X227213906Y-138569900D01*
X226811094Y-138569900D01*
X226416026Y-138491316D01*
X226107451Y-138363500D01*
X226043877Y-138337167D01*
X225708952Y-138113377D01*
X225424123Y-137828548D01*
X225200333Y-137493623D01*
X225129181Y-137321846D01*
X225046184Y-137121474D01*
X224967600Y-136726406D01*
X224967600Y-136323594D01*
X225046184Y-135928526D01*
X225167938Y-135634586D01*
X225200333Y-135556377D01*
X225424123Y-135221452D01*
X225708952Y-134936623D01*
X226043877Y-134712833D01*
X226198026Y-134648983D01*
X226416026Y-134558684D01*
X226811094Y-134480100D01*
X227213906Y-134480100D01*
X227608974Y-134558684D01*
G37*
G36*
X208558974Y-134558684D02*
G01*
X208776974Y-134648983D01*
X208931123Y-134712833D01*
X209266048Y-134936623D01*
X209550877Y-135221452D01*
X209774667Y-135556377D01*
X209807062Y-135634586D01*
X209928816Y-135928526D01*
X210007400Y-136323594D01*
X210007400Y-136726406D01*
X209928816Y-137121474D01*
X209845819Y-137321846D01*
X209774667Y-137493623D01*
X209550877Y-137828548D01*
X209266048Y-138113377D01*
X208931123Y-138337167D01*
X208867549Y-138363500D01*
X208558974Y-138491316D01*
X208163906Y-138569900D01*
X207761094Y-138569900D01*
X207366026Y-138491316D01*
X207057451Y-138363500D01*
X206993877Y-138337167D01*
X206658952Y-138113377D01*
X206374123Y-137828548D01*
X206150333Y-137493623D01*
X206079181Y-137321846D01*
X205996184Y-137121474D01*
X205917600Y-136726406D01*
X205917600Y-136323594D01*
X205996184Y-135928526D01*
X206117938Y-135634586D01*
X206150333Y-135556377D01*
X206374123Y-135221452D01*
X206658952Y-134936623D01*
X206993877Y-134712833D01*
X207148026Y-134648983D01*
X207366026Y-134558684D01*
X207761094Y-134480100D01*
X208163906Y-134480100D01*
X208558974Y-134558684D01*
G37*
G36*
X172828218Y-137291065D02*
G01*
X172866888Y-137302796D01*
X172902527Y-137321846D01*
X172933767Y-137347483D01*
X172959404Y-137378723D01*
X172978454Y-137414362D01*
X172990185Y-137453032D01*
X172994750Y-137499388D01*
X172994750Y-138150612D01*
X172990185Y-138196968D01*
X172978454Y-138235638D01*
X172959404Y-138271277D01*
X172933767Y-138302517D01*
X172902527Y-138328154D01*
X172866888Y-138347204D01*
X172828218Y-138358935D01*
X172781862Y-138363500D01*
X171705638Y-138363500D01*
X171659282Y-138358935D01*
X171620612Y-138347204D01*
X171584973Y-138328154D01*
X171553733Y-138302517D01*
X171528096Y-138271277D01*
X171509046Y-138235638D01*
X171497315Y-138196968D01*
X171492750Y-138150612D01*
X171492750Y-137499388D01*
X171497315Y-137453032D01*
X171509046Y-137414362D01*
X171528096Y-137378723D01*
X171553733Y-137347483D01*
X171584973Y-137321846D01*
X171620612Y-137302796D01*
X171659282Y-137291065D01*
X171705638Y-137286500D01*
X172781862Y-137286500D01*
X172828218Y-137291065D01*
G37*
G36*
X176003218Y-137291065D02*
G01*
X176041888Y-137302796D01*
X176077527Y-137321846D01*
X176108767Y-137347483D01*
X176134404Y-137378723D01*
X176153454Y-137414362D01*
X176165185Y-137453032D01*
X176169750Y-137499388D01*
X176169750Y-138150612D01*
X176165185Y-138196968D01*
X176153454Y-138235638D01*
X176134404Y-138271277D01*
X176108767Y-138302517D01*
X176077527Y-138328154D01*
X176041888Y-138347204D01*
X176003218Y-138358935D01*
X175956862Y-138363500D01*
X174880638Y-138363500D01*
X174834282Y-138358935D01*
X174795612Y-138347204D01*
X174759973Y-138328154D01*
X174728733Y-138302517D01*
X174703096Y-138271277D01*
X174684046Y-138235638D01*
X174672315Y-138196968D01*
X174667750Y-138150612D01*
X174667750Y-137499388D01*
X174672315Y-137453032D01*
X174684046Y-137414362D01*
X174703096Y-137378723D01*
X174728733Y-137347483D01*
X174759973Y-137321846D01*
X174795612Y-137302796D01*
X174834282Y-137291065D01*
X174880638Y-137286500D01*
X175956862Y-137286500D01*
X176003218Y-137291065D01*
G37*
G36*
X180765718Y-137291065D02*
G01*
X180804388Y-137302796D01*
X180840027Y-137321846D01*
X180871267Y-137347483D01*
X180896904Y-137378723D01*
X180915954Y-137414362D01*
X180927685Y-137453032D01*
X180932250Y-137499388D01*
X180932250Y-138150612D01*
X180927685Y-138196968D01*
X180915954Y-138235638D01*
X180896904Y-138271277D01*
X180871267Y-138302517D01*
X180840027Y-138328154D01*
X180804388Y-138347204D01*
X180765718Y-138358935D01*
X180719362Y-138363500D01*
X179643138Y-138363500D01*
X179596782Y-138358935D01*
X179558112Y-138347204D01*
X179522473Y-138328154D01*
X179491233Y-138302517D01*
X179465596Y-138271277D01*
X179446546Y-138235638D01*
X179434815Y-138196968D01*
X179430250Y-138150612D01*
X179430250Y-137499388D01*
X179434815Y-137453032D01*
X179446546Y-137414362D01*
X179465596Y-137378723D01*
X179491233Y-137347483D01*
X179522473Y-137321846D01*
X179558112Y-137302796D01*
X179596782Y-137291065D01*
X179643138Y-137286500D01*
X180719362Y-137286500D01*
X180765718Y-137291065D01*
G37*
G36*
X183940718Y-137291065D02*
G01*
X183979388Y-137302796D01*
X184015027Y-137321846D01*
X184046267Y-137347483D01*
X184071904Y-137378723D01*
X184090954Y-137414362D01*
X184102685Y-137453032D01*
X184107250Y-137499388D01*
X184107250Y-138150612D01*
X184102685Y-138196968D01*
X184090954Y-138235638D01*
X184071904Y-138271277D01*
X184046267Y-138302517D01*
X184015027Y-138328154D01*
X183979388Y-138347204D01*
X183940718Y-138358935D01*
X183894362Y-138363500D01*
X182818138Y-138363500D01*
X182771782Y-138358935D01*
X182733112Y-138347204D01*
X182697473Y-138328154D01*
X182666233Y-138302517D01*
X182640596Y-138271277D01*
X182621546Y-138235638D01*
X182609815Y-138196968D01*
X182605250Y-138150612D01*
X182605250Y-137499388D01*
X182609815Y-137453032D01*
X182621546Y-137414362D01*
X182640596Y-137378723D01*
X182666233Y-137347483D01*
X182697473Y-137321846D01*
X182733112Y-137302796D01*
X182771782Y-137291065D01*
X182818138Y-137286500D01*
X183894362Y-137286500D01*
X183940718Y-137291065D01*
G37*
G36*
X232362604Y-135634585D02*
G01*
X232531126Y-135704389D01*
X232682791Y-135805728D01*
X232811772Y-135934709D01*
X232913111Y-136086374D01*
X232982915Y-136254896D01*
X233018500Y-136433797D01*
X233018500Y-136616203D01*
X232982915Y-136795104D01*
X232913111Y-136963626D01*
X232811772Y-137115291D01*
X232682791Y-137244272D01*
X232531126Y-137345611D01*
X232362604Y-137415415D01*
X232183703Y-137451000D01*
X232001297Y-137451000D01*
X231822396Y-137415415D01*
X231653874Y-137345611D01*
X231502209Y-137244272D01*
X231373228Y-137115291D01*
X231271889Y-136963626D01*
X231202085Y-136795104D01*
X231166500Y-136616203D01*
X231166500Y-136433797D01*
X231202085Y-136254896D01*
X231271889Y-136086374D01*
X231373228Y-135934709D01*
X231502209Y-135805728D01*
X231653874Y-135704389D01*
X231822396Y-135634585D01*
X232001297Y-135599000D01*
X232183703Y-135599000D01*
X232362604Y-135634585D01*
G37*
G36*
X222202604Y-135634585D02*
G01*
X222371126Y-135704389D01*
X222522791Y-135805728D01*
X222651772Y-135934709D01*
X222753111Y-136086374D01*
X222822915Y-136254896D01*
X222858500Y-136433797D01*
X222858500Y-136616203D01*
X222822915Y-136795104D01*
X222753111Y-136963626D01*
X222651772Y-137115291D01*
X222522791Y-137244272D01*
X222371126Y-137345611D01*
X222202604Y-137415415D01*
X222023703Y-137451000D01*
X221841297Y-137451000D01*
X221662396Y-137415415D01*
X221493874Y-137345611D01*
X221342209Y-137244272D01*
X221213228Y-137115291D01*
X221111889Y-136963626D01*
X221042085Y-136795104D01*
X221006500Y-136616203D01*
X221006500Y-136433797D01*
X221042085Y-136254896D01*
X221111889Y-136086374D01*
X221213228Y-135934709D01*
X221342209Y-135805728D01*
X221493874Y-135704389D01*
X221662396Y-135634585D01*
X221841297Y-135599000D01*
X222023703Y-135599000D01*
X222202604Y-135634585D01*
G37*
G36*
X213312604Y-135634585D02*
G01*
X213481126Y-135704389D01*
X213632791Y-135805728D01*
X213761772Y-135934709D01*
X213863111Y-136086374D01*
X213932915Y-136254896D01*
X213968500Y-136433797D01*
X213968500Y-136616203D01*
X213932915Y-136795104D01*
X213863111Y-136963626D01*
X213761772Y-137115291D01*
X213632791Y-137244272D01*
X213481126Y-137345611D01*
X213312604Y-137415415D01*
X213133703Y-137451000D01*
X212951297Y-137451000D01*
X212772396Y-137415415D01*
X212603874Y-137345611D01*
X212452209Y-137244272D01*
X212323228Y-137115291D01*
X212221889Y-136963626D01*
X212152085Y-136795104D01*
X212116500Y-136616203D01*
X212116500Y-136433797D01*
X212152085Y-136254896D01*
X212221889Y-136086374D01*
X212323228Y-135934709D01*
X212452209Y-135805728D01*
X212603874Y-135704389D01*
X212772396Y-135634585D01*
X212951297Y-135599000D01*
X213133703Y-135599000D01*
X213312604Y-135634585D01*
G37*
G36*
X203152604Y-135634585D02*
G01*
X203321126Y-135704389D01*
X203472791Y-135805728D01*
X203601772Y-135934709D01*
X203703111Y-136086374D01*
X203772915Y-136254896D01*
X203808500Y-136433797D01*
X203808500Y-136616203D01*
X203772915Y-136795104D01*
X203703111Y-136963626D01*
X203601772Y-137115291D01*
X203472791Y-137244272D01*
X203321126Y-137345611D01*
X203152604Y-137415415D01*
X202973703Y-137451000D01*
X202791297Y-137451000D01*
X202612396Y-137415415D01*
X202443874Y-137345611D01*
X202292209Y-137244272D01*
X202163228Y-137115291D01*
X202061889Y-136963626D01*
X201992085Y-136795104D01*
X201956500Y-136616203D01*
X201956500Y-136433797D01*
X201992085Y-136254896D01*
X202061889Y-136086374D01*
X202163228Y-135934709D01*
X202292209Y-135805728D01*
X202443874Y-135704389D01*
X202612396Y-135634585D01*
X202791297Y-135599000D01*
X202973703Y-135599000D01*
X203152604Y-135634585D01*
G37*
G36*
X235601000Y-135376000D02*
G01*
X234299000Y-135376000D01*
X234299000Y-134374000D01*
X235601000Y-134374000D01*
X235601000Y-135376000D01*
G37*
G36*
X216551000Y-135376000D02*
G01*
X215249000Y-135376000D01*
X215249000Y-134374000D01*
X216551000Y-134374000D01*
X216551000Y-135376000D01*
G37*
G36*
X223394060Y-132824064D02*
G01*
X223545527Y-132854193D01*
X223759545Y-132942842D01*
X223759546Y-132942843D01*
X223952154Y-133071539D01*
X224115961Y-133235346D01*
X224201758Y-133363751D01*
X224244658Y-133427955D01*
X224333307Y-133641973D01*
X224378500Y-133869174D01*
X224378500Y-134100826D01*
X224333307Y-134328027D01*
X224244658Y-134542045D01*
X224244657Y-134542046D01*
X224115961Y-134734654D01*
X223952154Y-134898461D01*
X223895040Y-134936623D01*
X223759545Y-135027158D01*
X223545527Y-135115807D01*
X223394060Y-135145936D01*
X223318327Y-135161000D01*
X223086673Y-135161000D01*
X223010940Y-135145936D01*
X222859473Y-135115807D01*
X222645455Y-135027158D01*
X222509960Y-134936623D01*
X222452846Y-134898461D01*
X222289039Y-134734654D01*
X222160343Y-134542046D01*
X222160342Y-134542045D01*
X222071693Y-134328027D01*
X222026500Y-134100826D01*
X222026500Y-133869174D01*
X222071693Y-133641973D01*
X222160342Y-133427955D01*
X222203242Y-133363751D01*
X222289039Y-133235346D01*
X222452846Y-133071539D01*
X222645454Y-132942843D01*
X222645455Y-132942842D01*
X222859473Y-132854193D01*
X223010940Y-132824064D01*
X223086673Y-132809000D01*
X223318327Y-132809000D01*
X223394060Y-132824064D01*
G37*
G36*
X204344060Y-132824064D02*
G01*
X204495527Y-132854193D01*
X204709545Y-132942842D01*
X204709546Y-132942843D01*
X204902154Y-133071539D01*
X205065961Y-133235346D01*
X205151758Y-133363751D01*
X205194658Y-133427955D01*
X205283307Y-133641973D01*
X205328500Y-133869174D01*
X205328500Y-134100826D01*
X205283307Y-134328027D01*
X205194658Y-134542045D01*
X205194657Y-134542046D01*
X205065961Y-134734654D01*
X204902154Y-134898461D01*
X204845040Y-134936623D01*
X204709545Y-135027158D01*
X204495527Y-135115807D01*
X204344060Y-135145936D01*
X204268327Y-135161000D01*
X204036673Y-135161000D01*
X203960940Y-135145936D01*
X203809473Y-135115807D01*
X203595455Y-135027158D01*
X203459960Y-134936623D01*
X203402846Y-134898461D01*
X203239039Y-134734654D01*
X203110343Y-134542046D01*
X203110342Y-134542045D01*
X203021693Y-134328027D01*
X202976500Y-134100826D01*
X202976500Y-133869174D01*
X203021693Y-133641973D01*
X203110342Y-133427955D01*
X203153242Y-133363751D01*
X203239039Y-133235346D01*
X203402846Y-133071539D01*
X203595454Y-132942843D01*
X203595455Y-132942842D01*
X203809473Y-132854193D01*
X203960940Y-132824064D01*
X204036673Y-132809000D01*
X204268327Y-132809000D01*
X204344060Y-132824064D01*
G37*
G36*
X229744060Y-130284064D02*
G01*
X229895527Y-130314193D01*
X230109545Y-130402842D01*
X230109546Y-130402843D01*
X230302154Y-130531539D01*
X230465961Y-130695346D01*
X230551758Y-130823751D01*
X230594658Y-130887955D01*
X230683307Y-131101973D01*
X230728500Y-131329174D01*
X230728500Y-131560826D01*
X230683307Y-131788027D01*
X230594658Y-132002045D01*
X230594657Y-132002046D01*
X230465961Y-132194654D01*
X230302154Y-132358461D01*
X230173749Y-132444258D01*
X230109545Y-132487158D01*
X229895527Y-132575807D01*
X229744060Y-132605936D01*
X229668327Y-132621000D01*
X229436673Y-132621000D01*
X229360940Y-132605936D01*
X229209473Y-132575807D01*
X228995455Y-132487158D01*
X228931251Y-132444258D01*
X228802846Y-132358461D01*
X228639039Y-132194654D01*
X228510343Y-132002046D01*
X228510342Y-132002045D01*
X228421693Y-131788027D01*
X228376500Y-131560826D01*
X228376500Y-131329174D01*
X228421693Y-131101973D01*
X228510342Y-130887955D01*
X228553242Y-130823751D01*
X228639039Y-130695346D01*
X228802846Y-130531539D01*
X228995454Y-130402843D01*
X228995455Y-130402842D01*
X229209473Y-130314193D01*
X229360940Y-130284064D01*
X229436673Y-130269000D01*
X229668327Y-130269000D01*
X229744060Y-130284064D01*
G37*
G36*
X210694060Y-130284064D02*
G01*
X210845527Y-130314193D01*
X211059545Y-130402842D01*
X211059546Y-130402843D01*
X211252154Y-130531539D01*
X211415961Y-130695346D01*
X211501758Y-130823751D01*
X211544658Y-130887955D01*
X211633307Y-131101973D01*
X211678500Y-131329174D01*
X211678500Y-131560826D01*
X211633307Y-131788027D01*
X211544658Y-132002045D01*
X211544657Y-132002046D01*
X211415961Y-132194654D01*
X211252154Y-132358461D01*
X211123749Y-132444258D01*
X211059545Y-132487158D01*
X210845527Y-132575807D01*
X210694060Y-132605936D01*
X210618327Y-132621000D01*
X210386673Y-132621000D01*
X210310940Y-132605936D01*
X210159473Y-132575807D01*
X209945455Y-132487158D01*
X209881251Y-132444258D01*
X209752846Y-132358461D01*
X209589039Y-132194654D01*
X209460343Y-132002046D01*
X209460342Y-132002045D01*
X209371693Y-131788027D01*
X209326500Y-131560826D01*
X209326500Y-131329174D01*
X209371693Y-131101973D01*
X209460342Y-130887955D01*
X209503242Y-130823751D01*
X209589039Y-130695346D01*
X209752846Y-130531539D01*
X209945454Y-130402843D01*
X209945455Y-130402842D01*
X210159473Y-130314193D01*
X210310940Y-130284064D01*
X210386673Y-130269000D01*
X210618327Y-130269000D01*
X210694060Y-130284064D01*
G37*
G36*
X194259468Y-131516065D02*
G01*
X194298138Y-131527796D01*
X194333777Y-131546846D01*
X194365017Y-131572483D01*
X194390654Y-131603723D01*
X194409704Y-131639362D01*
X194421435Y-131678032D01*
X194426000Y-131724388D01*
X194426000Y-132375612D01*
X194421435Y-132421968D01*
X194409704Y-132460638D01*
X194390654Y-132496277D01*
X194365017Y-132527517D01*
X194333777Y-132553154D01*
X194298138Y-132572204D01*
X194259468Y-132583935D01*
X194213112Y-132588500D01*
X193136888Y-132588500D01*
X193090532Y-132583935D01*
X193051862Y-132572204D01*
X193016223Y-132553154D01*
X192984983Y-132527517D01*
X192959346Y-132496277D01*
X192940296Y-132460638D01*
X192928565Y-132421968D01*
X192924000Y-132375612D01*
X192924000Y-131724388D01*
X192928565Y-131678032D01*
X192940296Y-131639362D01*
X192959346Y-131603723D01*
X192984983Y-131572483D01*
X193016223Y-131546846D01*
X193051862Y-131527796D01*
X193090532Y-131516065D01*
X193136888Y-131511500D01*
X194213112Y-131511500D01*
X194259468Y-131516065D01*
G37*
G36*
X184734468Y-131516065D02*
G01*
X184773138Y-131527796D01*
X184808777Y-131546846D01*
X184840017Y-131572483D01*
X184865654Y-131603723D01*
X184884704Y-131639362D01*
X184896435Y-131678032D01*
X184901000Y-131724388D01*
X184901000Y-132375612D01*
X184896435Y-132421968D01*
X184884704Y-132460638D01*
X184865654Y-132496277D01*
X184840017Y-132527517D01*
X184808777Y-132553154D01*
X184773138Y-132572204D01*
X184734468Y-132583935D01*
X184688112Y-132588500D01*
X183611888Y-132588500D01*
X183565532Y-132583935D01*
X183526862Y-132572204D01*
X183491223Y-132553154D01*
X183459983Y-132527517D01*
X183434346Y-132496277D01*
X183415296Y-132460638D01*
X183403565Y-132421968D01*
X183399000Y-132375612D01*
X183399000Y-131724388D01*
X183403565Y-131678032D01*
X183415296Y-131639362D01*
X183434346Y-131603723D01*
X183459983Y-131572483D01*
X183491223Y-131546846D01*
X183526862Y-131527796D01*
X183565532Y-131516065D01*
X183611888Y-131511500D01*
X184688112Y-131511500D01*
X184734468Y-131516065D01*
G37*
G36*
X190457250Y-132526000D02*
G01*
X188955250Y-132526000D01*
X188955250Y-131224000D01*
X190457250Y-131224000D01*
X190457250Y-132526000D01*
G37*
G36*
X188257250Y-132526000D02*
G01*
X186755250Y-132526000D01*
X186755250Y-131224000D01*
X188257250Y-131224000D01*
X188257250Y-132526000D01*
G37*
G36*
X171470377Y-129318287D02*
G01*
X171640216Y-129369807D01*
X171796741Y-129453472D01*
X171832479Y-129482802D01*
X171933936Y-129566064D01*
X172005114Y-129652796D01*
X172046528Y-129703259D01*
X172130193Y-129859784D01*
X172181713Y-130029623D01*
X172194750Y-130161992D01*
X172194750Y-131250508D01*
X172181713Y-131382877D01*
X172130193Y-131552716D01*
X172046528Y-131709241D01*
X172017198Y-131744979D01*
X171933936Y-131846436D01*
X171796739Y-131959029D01*
X171716260Y-132002046D01*
X171640215Y-132042693D01*
X171470376Y-132094213D01*
X171293750Y-132111609D01*
X171117123Y-132094213D01*
X170947284Y-132042693D01*
X170790759Y-131959028D01*
X170755021Y-131929698D01*
X170653564Y-131846436D01*
X170540971Y-131709239D01*
X170457308Y-131552717D01*
X170449748Y-131527796D01*
X170405787Y-131382876D01*
X170392750Y-131250507D01*
X170392751Y-130161992D01*
X170405788Y-130029623D01*
X170457308Y-129859784D01*
X170540973Y-129703259D01*
X170582387Y-129652796D01*
X170653565Y-129566064D01*
X170755022Y-129482802D01*
X170790760Y-129453472D01*
X170947285Y-129369807D01*
X171117124Y-129318287D01*
X171293750Y-129300891D01*
X171470377Y-129318287D01*
G37*
G36*
X178770377Y-129318287D02*
G01*
X178940216Y-129369807D01*
X179096741Y-129453472D01*
X179132479Y-129482802D01*
X179233936Y-129566064D01*
X179305114Y-129652796D01*
X179346528Y-129703259D01*
X179430193Y-129859784D01*
X179481713Y-130029623D01*
X179494750Y-130161992D01*
X179494750Y-131250508D01*
X179481713Y-131382877D01*
X179430193Y-131552716D01*
X179346528Y-131709241D01*
X179317198Y-131744979D01*
X179233936Y-131846436D01*
X179096739Y-131959029D01*
X179016260Y-132002046D01*
X178940215Y-132042693D01*
X178770376Y-132094213D01*
X178593750Y-132111609D01*
X178417123Y-132094213D01*
X178247284Y-132042693D01*
X178090759Y-131959028D01*
X178055021Y-131929698D01*
X177953564Y-131846436D01*
X177840971Y-131709239D01*
X177757308Y-131552717D01*
X177749748Y-131527796D01*
X177705787Y-131382876D01*
X177692750Y-131250507D01*
X177692751Y-130161992D01*
X177705788Y-130029623D01*
X177757308Y-129859784D01*
X177840973Y-129703259D01*
X177882387Y-129652796D01*
X177953565Y-129566064D01*
X178055022Y-129482802D01*
X178090760Y-129453472D01*
X178247285Y-129369807D01*
X178417124Y-129318287D01*
X178593750Y-129300891D01*
X178770377Y-129318287D01*
G37*
G36*
X176844750Y-131882250D02*
G01*
X173042750Y-131882250D01*
X173042750Y-129530250D01*
X176844750Y-129530250D01*
X176844750Y-131882250D01*
G37*
G36*
X188257250Y-130826000D02*
G01*
X186755250Y-130826000D01*
X186755250Y-129524000D01*
X188257250Y-129524000D01*
X188257250Y-130826000D01*
G37*
G36*
X190457250Y-130826000D02*
G01*
X188955250Y-130826000D01*
X188955250Y-129524000D01*
X190457250Y-129524000D01*
X190457250Y-130826000D01*
G37*
G36*
X184734468Y-129641065D02*
G01*
X184773138Y-129652796D01*
X184808777Y-129671846D01*
X184840017Y-129697483D01*
X184865654Y-129728723D01*
X184884704Y-129764362D01*
X184896435Y-129803032D01*
X184901000Y-129849388D01*
X184901000Y-130500612D01*
X184896435Y-130546968D01*
X184884704Y-130585638D01*
X184865654Y-130621277D01*
X184840017Y-130652517D01*
X184808777Y-130678154D01*
X184773138Y-130697204D01*
X184734468Y-130708935D01*
X184688112Y-130713500D01*
X183611888Y-130713500D01*
X183565532Y-130708935D01*
X183526862Y-130697204D01*
X183491223Y-130678154D01*
X183459983Y-130652517D01*
X183434346Y-130621277D01*
X183415296Y-130585638D01*
X183403565Y-130546968D01*
X183399000Y-130500612D01*
X183399000Y-129849388D01*
X183403565Y-129803032D01*
X183415296Y-129764362D01*
X183434346Y-129728723D01*
X183459983Y-129697483D01*
X183491223Y-129671846D01*
X183526862Y-129652796D01*
X183565532Y-129641065D01*
X183611888Y-129636500D01*
X184688112Y-129636500D01*
X184734468Y-129641065D01*
G37*
G36*
X194259468Y-129641065D02*
G01*
X194298138Y-129652796D01*
X194333777Y-129671846D01*
X194365017Y-129697483D01*
X194390654Y-129728723D01*
X194409704Y-129764362D01*
X194421435Y-129803032D01*
X194426000Y-129849388D01*
X194426000Y-130500612D01*
X194421435Y-130546968D01*
X194409704Y-130585638D01*
X194390654Y-130621277D01*
X194365017Y-130652517D01*
X194333777Y-130678154D01*
X194298138Y-130697204D01*
X194259468Y-130708935D01*
X194213112Y-130713500D01*
X193136888Y-130713500D01*
X193090532Y-130708935D01*
X193051862Y-130697204D01*
X193016223Y-130678154D01*
X192984983Y-130652517D01*
X192959346Y-130621277D01*
X192940296Y-130585638D01*
X192928565Y-130546968D01*
X192924000Y-130500612D01*
X192924000Y-129849388D01*
X192928565Y-129803032D01*
X192940296Y-129764362D01*
X192959346Y-129728723D01*
X192984983Y-129697483D01*
X193016223Y-129671846D01*
X193051862Y-129652796D01*
X193090532Y-129641065D01*
X193136888Y-129636500D01*
X194213112Y-129636500D01*
X194259468Y-129641065D01*
G37*
G36*
X171470377Y-124818287D02*
G01*
X171640216Y-124869807D01*
X171796741Y-124953472D01*
X171832479Y-124982802D01*
X171933936Y-125066064D01*
X172017198Y-125167521D01*
X172046528Y-125203259D01*
X172130193Y-125359784D01*
X172181713Y-125529623D01*
X172194750Y-125661992D01*
X172194750Y-126750508D01*
X172181713Y-126882877D01*
X172130193Y-127052716D01*
X172046528Y-127209241D01*
X172017198Y-127244979D01*
X171933936Y-127346436D01*
X171796739Y-127459029D01*
X171640217Y-127542692D01*
X171640215Y-127542693D01*
X171470376Y-127594213D01*
X171293750Y-127611609D01*
X171117123Y-127594213D01*
X170947284Y-127542693D01*
X170790759Y-127459028D01*
X170755021Y-127429698D01*
X170653564Y-127346436D01*
X170540971Y-127209239D01*
X170457308Y-127052717D01*
X170457307Y-127052715D01*
X170405787Y-126882876D01*
X170392750Y-126750507D01*
X170392751Y-125661992D01*
X170405788Y-125529623D01*
X170457308Y-125359784D01*
X170540973Y-125203259D01*
X170570303Y-125167521D01*
X170653565Y-125066064D01*
X170755022Y-124982802D01*
X170790760Y-124953472D01*
X170947285Y-124869807D01*
X171117124Y-124818287D01*
X171293750Y-124800891D01*
X171470377Y-124818287D01*
G37*
G36*
X178770377Y-124818287D02*
G01*
X178940216Y-124869807D01*
X179096741Y-124953472D01*
X179132479Y-124982802D01*
X179233936Y-125066064D01*
X179317198Y-125167521D01*
X179346528Y-125203259D01*
X179430193Y-125359784D01*
X179481713Y-125529623D01*
X179494750Y-125661992D01*
X179494750Y-126750508D01*
X179481713Y-126882877D01*
X179430193Y-127052716D01*
X179346528Y-127209241D01*
X179317198Y-127244979D01*
X179233936Y-127346436D01*
X179096739Y-127459029D01*
X178940217Y-127542692D01*
X178940215Y-127542693D01*
X178770376Y-127594213D01*
X178593750Y-127611609D01*
X178417123Y-127594213D01*
X178247284Y-127542693D01*
X178090759Y-127459028D01*
X178055021Y-127429698D01*
X177953564Y-127346436D01*
X177840971Y-127209239D01*
X177757308Y-127052717D01*
X177757307Y-127052715D01*
X177705787Y-126882876D01*
X177692750Y-126750507D01*
X177692751Y-125661992D01*
X177705788Y-125529623D01*
X177757308Y-125359784D01*
X177840973Y-125203259D01*
X177870303Y-125167521D01*
X177953565Y-125066064D01*
X178055022Y-124982802D01*
X178090760Y-124953472D01*
X178247285Y-124869807D01*
X178417124Y-124818287D01*
X178593750Y-124800891D01*
X178770377Y-124818287D01*
G37*
M02*
