G04 #@! TF.GenerationSoftware,KiCad,Pcbnew,(5.1.5)-3*
G04 #@! TF.CreationDate,2020-03-21T14:26:23+08:00*
G04 #@! TF.ProjectId,PCB Design,50434220-4465-4736-9967-6e2e6b696361,rev?*
G04 #@! TF.SameCoordinates,Original*
G04 #@! TF.FileFunction,Copper,L1,Top*
G04 #@! TF.FilePolarity,Positive*
%FSLAX46Y46*%
G04 Gerber Fmt 4.6, Leading zero omitted, Abs format (unit mm)*
G04 Created by KiCad (PCBNEW (5.1.5)-3) date 2020-03-21 14:26:23*
%MOMM*%
%LPD*%
G04 APERTURE LIST*
%ADD10O,1.700000X2.700000*%
%ADD11C,2.250000*%
%ADD12C,0.800000*%
%ADD13C,0.254000*%
%ADD14C,0.203200*%
G04 APERTURE END LIST*
D10*
X171293750Y-126206250D03*
X178593750Y-126206250D03*
X178593750Y-130706250D03*
X171293750Y-130706250D03*
D11*
X223202500Y-153035000D03*
X229552500Y-150495000D03*
X204152500Y-153035000D03*
X210502500Y-150495000D03*
X223202500Y-133985000D03*
X229552500Y-131445000D03*
X204152500Y-133985000D03*
X210502500Y-131445000D03*
D12*
X187325000Y-128587500D03*
X186531250Y-146843750D03*
X196850000Y-155575000D03*
X194468750Y-165100000D03*
X181768750Y-161131250D03*
X191293750Y-163512500D03*
X191293750Y-163512500D03*
X195262500Y-154781250D03*
X215900000Y-140493750D03*
X194468750Y-157162500D03*
X218281250Y-156368750D03*
X204152500Y-153035000D03*
X195262500Y-155781253D03*
X201612500Y-153018169D03*
X196056250Y-157162500D03*
X219868750Y-153193750D03*
X196469000Y-146177000D03*
X183134000Y-147955000D03*
X179853663Y-157007598D03*
X175133000Y-141732000D03*
X180086000Y-158115000D03*
X172085000Y-141986000D03*
D13*
X187325000Y-128587500D02*
X186531250Y-129381250D01*
X186531250Y-129381250D02*
X186531250Y-146843750D01*
D14*
X196850000Y-155575000D02*
X196850000Y-162718750D01*
X196850000Y-162718750D02*
X194468750Y-165100000D01*
X181768750Y-161131250D02*
X181768750Y-163512500D01*
X181768750Y-163512500D02*
X191293750Y-163512500D01*
X210502500Y-131445000D02*
X210566000Y-131445000D01*
X195262500Y-154781250D02*
X196850000Y-154781250D01*
X209075899Y-150222971D02*
X209075899Y-147317851D01*
X204837269Y-154461601D02*
X209075899Y-150222971D01*
X196850000Y-154781250D02*
X199231250Y-154781250D01*
X200292731Y-153719769D02*
X202725899Y-153719769D01*
X202725899Y-153719769D02*
X203467731Y-154461601D01*
X199231250Y-154781250D02*
X200292731Y-153719769D01*
X203467731Y-154461601D02*
X204837269Y-154461601D01*
X209075899Y-147317851D02*
X215900000Y-140493750D01*
X215128528Y-138683908D02*
X220570351Y-144125731D01*
X213518750Y-138683908D02*
X215128528Y-138683908D01*
X207393241Y-132558399D02*
X213518750Y-138683908D01*
X220570351Y-144125731D02*
X220570351Y-154079649D01*
X194068751Y-156762501D02*
X194068751Y-149615619D01*
X194468750Y-157162500D02*
X194068751Y-156762501D01*
X203467731Y-132558399D02*
X207393241Y-132558399D01*
X201705899Y-141978471D02*
X201705899Y-134320231D01*
X194068751Y-149615619D02*
X201705899Y-141978471D01*
X201705899Y-134320231D02*
X203467731Y-132558399D01*
X220570351Y-154079649D02*
X218281250Y-156368750D01*
X204152500Y-135575990D02*
X204152500Y-153035000D01*
X204152500Y-133985000D02*
X204152500Y-135575990D01*
X194560899Y-154444481D02*
X195811630Y-153193750D01*
X195262500Y-155781253D02*
X194560899Y-155079652D01*
X194560899Y-155079652D02*
X194560899Y-154444481D01*
X195811630Y-153193750D02*
X201436919Y-153193750D01*
X201436919Y-153193750D02*
X201612500Y-153018169D01*
X223202500Y-135575990D02*
X223202500Y-153035000D01*
X223202500Y-133985000D02*
X223202500Y-135575990D01*
X193767149Y-165436769D02*
X194131981Y-165801601D01*
X196056250Y-157162500D02*
X193767149Y-159451601D01*
X194131981Y-165801601D02*
X206467149Y-165801601D01*
X193767149Y-159451601D02*
X193767149Y-165436769D01*
X206467149Y-165801601D02*
X219075000Y-153193750D01*
X219075000Y-153193750D02*
X219868750Y-153193750D01*
D13*
X196469000Y-146177000D02*
X194691000Y-147955000D01*
X194691000Y-147955000D02*
X183134000Y-147955000D01*
X179853663Y-157007598D02*
X173319402Y-157007598D01*
X173319402Y-157007598D02*
X172902804Y-156591000D01*
X172902804Y-156591000D02*
X172902804Y-143708196D01*
X172902804Y-143708196D02*
X174879000Y-141732000D01*
X174879000Y-141732000D02*
X175133000Y-141732000D01*
X179686001Y-157715001D02*
X172701001Y-157715001D01*
X180086000Y-158115000D02*
X179686001Y-157715001D01*
X172701001Y-157715001D02*
X172085000Y-157099000D01*
X172085000Y-157099000D02*
X172085000Y-141986000D01*
M02*
