M48
; DRILL file {KiCad (5.1.5)-3} date 3/21/2020 2:27:01 PM
; FORMAT={-:-/ absolute / inch / decimal}
; #@! TF.CreationDate,2020-03-21T14:27:01+08:00
; #@! TF.GenerationSoftware,Kicad,Pcbnew,(5.1.5)-3
; #@! TF.FileFunction,Plated,1,2,PTH
FMAT,2
INCH
T1C0.0157
T2C0.0276
T3C0.0579
%
G90
G05
T1
X6.775Y-5.59
X6.895Y-5.58
X7.0809Y-6.1814
X7.09Y-6.225
X7.1562Y-6.3438
X7.21Y-5.825
X7.3438Y-5.7812
X7.375Y-5.0625
X7.5312Y-6.4375
X7.5312Y-6.4375
X7.6562Y-6.1875
X7.6562Y-6.5
X7.6875Y-6.0938
X7.6875Y-6.1331
X7.7188Y-6.1875
X7.735Y-5.755
X7.75Y-6.125
X7.9375Y-6.0243
X8.0375Y-6.025
X8.5Y-5.5312
X8.5938Y-6.1562
X8.6562Y-6.0312
T3
X8.7875Y-5.275
X9.0375Y-5.175
X8.0375Y-6.025
X8.2875Y-5.925
X8.0375Y-5.275
X8.2875Y-5.175
X8.7875Y-6.025
X9.0375Y-5.925
T2
G00X6.7438Y-4.9451
M15
G01X6.7438Y-4.9924
M16
G05
G00X6.7438Y-5.1223
M15
G01X6.7438Y-5.1695
M16
G05
G00X7.0312Y-4.9451
M15
G01X7.0312Y-4.9924
M16
G05
G00X7.0312Y-5.1223
M15
G01X7.0312Y-5.1695
M16
G05
T0
M30
