G04 #@! TF.GenerationSoftware,KiCad,Pcbnew,(5.1.5)-3*
G04 #@! TF.CreationDate,2020-03-21T14:26:23+08:00*
G04 #@! TF.ProjectId,PCB Design,50434220-4465-4736-9967-6e2e6b696361,rev?*
G04 #@! TF.SameCoordinates,Original*
G04 #@! TF.FileFunction,Legend,Bot*
G04 #@! TF.FilePolarity,Positive*
%FSLAX46Y46*%
G04 Gerber Fmt 4.6, Leading zero omitted, Abs format (unit mm)*
G04 Created by KiCad (PCBNEW (5.1.5)-3) date 2020-03-21 14:26:23*
%MOMM*%
%LPD*%
G04 APERTURE LIST*
%ADD10C,0.120000*%
%ADD11C,0.150000*%
%ADD12R,1.502000X1.302000*%
%ADD13O,1.802000X2.802000*%
%ADD14R,0.602000X2.352000*%
%ADD15R,0.652000X1.602000*%
%ADD16R,1.602000X0.652000*%
%ADD17R,1.902000X1.202000*%
%ADD18C,0.100000*%
%ADD19C,1.852000*%
%ADD20C,2.352000*%
%ADD21C,4.089800*%
%ADD22R,1.302000X1.002000*%
G04 APERTURE END LIST*
D10*
X165100000Y-124460000D02*
X167640000Y-124460000D01*
X165100000Y-168910000D02*
X165100000Y-124460000D01*
X237490000Y-168910000D02*
X165100000Y-168910000D01*
X237490000Y-124460000D02*
X237490000Y-168910000D01*
X167640000Y-124460000D02*
X237490000Y-124460000D01*
X190606250Y-132675000D02*
X186606250Y-132675000D01*
X190606250Y-129375000D02*
X190606250Y-132675000D01*
D11*
X171093750Y-126206250D02*
X171093750Y-131656250D01*
X178793750Y-126206250D02*
X178793750Y-131656250D01*
X171093750Y-131656250D02*
X178793750Y-131656250D01*
X182150000Y-160175000D02*
X180875000Y-160175000D01*
X192500000Y-160750000D02*
X191825000Y-160750000D01*
X192500000Y-150400000D02*
X191825000Y-150400000D01*
X182150000Y-150400000D02*
X182825000Y-150400000D01*
X182150000Y-160750000D02*
X182825000Y-160750000D01*
X182150000Y-150400000D02*
X182150000Y-151075000D01*
X192500000Y-150400000D02*
X192500000Y-151075000D01*
X192500000Y-160750000D02*
X192500000Y-160075000D01*
X182150000Y-160750000D02*
X182150000Y-160175000D01*
X172525000Y-164043750D02*
G75*
G03X172525000Y-164043750I-1000000J0D01*
G01*
X168925000Y-161443750D02*
X168925000Y-166643750D01*
X174125000Y-161443750D02*
X168925000Y-161443750D01*
X174125000Y-166643750D02*
X174125000Y-161443750D01*
X168925000Y-166643750D02*
X174125000Y-166643750D01*
D10*
X196140000Y-161533578D02*
X196140000Y-161016422D01*
X197560000Y-161533578D02*
X197560000Y-161016422D01*
X172953750Y-138503922D02*
X172953750Y-139021078D01*
X171533750Y-138503922D02*
X171533750Y-139021078D01*
X176128750Y-138503922D02*
X176128750Y-139021078D01*
X174708750Y-138503922D02*
X174708750Y-139021078D01*
X180891250Y-138503922D02*
X180891250Y-139021078D01*
X179471250Y-138503922D02*
X179471250Y-139021078D01*
X167597500Y-139285436D02*
X167597500Y-140489564D01*
X165777500Y-139285436D02*
X165777500Y-140489564D01*
X235950000Y-157825000D02*
X235950000Y-153925000D01*
X233950000Y-157825000D02*
X233950000Y-153925000D01*
X235950000Y-157825000D02*
X233950000Y-157825000D01*
X216900000Y-157825000D02*
X216900000Y-153925000D01*
X214900000Y-157825000D02*
X214900000Y-153925000D01*
X216900000Y-157825000D02*
X214900000Y-157825000D01*
X235950000Y-138775000D02*
X235950000Y-134875000D01*
X233950000Y-138775000D02*
X233950000Y-134875000D01*
X235950000Y-138775000D02*
X233950000Y-138775000D01*
X216900000Y-138775000D02*
X216900000Y-134875000D01*
X214900000Y-138775000D02*
X214900000Y-134875000D01*
X216900000Y-138775000D02*
X214900000Y-138775000D01*
X178510000Y-159141422D02*
X178510000Y-159658578D01*
X177090000Y-159141422D02*
X177090000Y-159658578D01*
X191696078Y-165810000D02*
X191178922Y-165810000D01*
X191696078Y-164390000D02*
X191178922Y-164390000D01*
X196140000Y-152658578D02*
X196140000Y-152141422D01*
X197560000Y-152658578D02*
X197560000Y-152141422D01*
X182646250Y-139021078D02*
X182646250Y-138503922D01*
X184066250Y-139021078D02*
X184066250Y-138503922D01*
X176614828Y-156285000D02*
X176097672Y-156285000D01*
X176614828Y-154865000D02*
X176097672Y-154865000D01*
X184860000Y-130853922D02*
X184860000Y-131371078D01*
X183440000Y-130853922D02*
X183440000Y-131371078D01*
X192965000Y-131371078D02*
X192965000Y-130853922D01*
X194385000Y-131371078D02*
X194385000Y-130853922D01*
D11*
X189082440Y-128551190D02*
X189082440Y-129027380D01*
X189415773Y-128027380D02*
X189082440Y-128551190D01*
X188749107Y-128027380D01*
X187891964Y-129027380D02*
X188463392Y-129027380D01*
X188177678Y-129027380D02*
X188177678Y-128027380D01*
X188272916Y-128170238D01*
X188368154Y-128265476D01*
X188463392Y-128313095D01*
X176681845Y-127690630D02*
X176681845Y-128500154D01*
X176634226Y-128595392D01*
X176586607Y-128643011D01*
X176491369Y-128690630D01*
X176300892Y-128690630D01*
X176205654Y-128643011D01*
X176158035Y-128595392D01*
X176110416Y-128500154D01*
X176110416Y-127690630D01*
X175681845Y-128643011D02*
X175538988Y-128690630D01*
X175300892Y-128690630D01*
X175205654Y-128643011D01*
X175158035Y-128595392D01*
X175110416Y-128500154D01*
X175110416Y-128404916D01*
X175158035Y-128309678D01*
X175205654Y-128262059D01*
X175300892Y-128214440D01*
X175491369Y-128166821D01*
X175586607Y-128119202D01*
X175634226Y-128071583D01*
X175681845Y-127976345D01*
X175681845Y-127881107D01*
X175634226Y-127785869D01*
X175586607Y-127738250D01*
X175491369Y-127690630D01*
X175253273Y-127690630D01*
X175110416Y-127738250D01*
X174348511Y-128166821D02*
X174205654Y-128214440D01*
X174158035Y-128262059D01*
X174110416Y-128357297D01*
X174110416Y-128500154D01*
X174158035Y-128595392D01*
X174205654Y-128643011D01*
X174300892Y-128690630D01*
X174681845Y-128690630D01*
X174681845Y-127690630D01*
X174348511Y-127690630D01*
X174253273Y-127738250D01*
X174205654Y-127785869D01*
X174158035Y-127881107D01*
X174158035Y-127976345D01*
X174205654Y-128071583D01*
X174253273Y-128119202D01*
X174348511Y-128166821D01*
X174681845Y-128166821D01*
X173158035Y-128690630D02*
X173729464Y-128690630D01*
X173443750Y-128690630D02*
X173443750Y-127690630D01*
X173538988Y-127833488D01*
X173634226Y-127928726D01*
X173729464Y-127976345D01*
X188086904Y-162477380D02*
X188086904Y-163286904D01*
X188039285Y-163382142D01*
X187991666Y-163429761D01*
X187896428Y-163477380D01*
X187705952Y-163477380D01*
X187610714Y-163429761D01*
X187563095Y-163382142D01*
X187515476Y-163286904D01*
X187515476Y-162477380D01*
X186515476Y-163477380D02*
X187086904Y-163477380D01*
X186801190Y-163477380D02*
X186801190Y-162477380D01*
X186896428Y-162620238D01*
X186991666Y-162715476D01*
X187086904Y-162763095D01*
X172858333Y-160384511D02*
X172715476Y-160432130D01*
X172477380Y-160432130D01*
X172382142Y-160384511D01*
X172334523Y-160336892D01*
X172286904Y-160241654D01*
X172286904Y-160146416D01*
X172334523Y-160051178D01*
X172382142Y-160003559D01*
X172477380Y-159955940D01*
X172667857Y-159908321D01*
X172763095Y-159860702D01*
X172810714Y-159813083D01*
X172858333Y-159717845D01*
X172858333Y-159622607D01*
X172810714Y-159527369D01*
X172763095Y-159479750D01*
X172667857Y-159432130D01*
X172429761Y-159432130D01*
X172286904Y-159479750D01*
X171953571Y-159432130D02*
X171715476Y-160432130D01*
X171525000Y-159717845D01*
X171334523Y-160432130D01*
X171096428Y-159432130D01*
X170191666Y-160432130D02*
X170763095Y-160432130D01*
X170477380Y-160432130D02*
X170477380Y-159432130D01*
X170572619Y-159574988D01*
X170667857Y-159670226D01*
X170763095Y-159717845D01*
X198952380Y-161108333D02*
X198476190Y-160775000D01*
X198952380Y-160536904D02*
X197952380Y-160536904D01*
X197952380Y-160917857D01*
X198000000Y-161013095D01*
X198047619Y-161060714D01*
X198142857Y-161108333D01*
X198285714Y-161108333D01*
X198380952Y-161060714D01*
X198428571Y-161013095D01*
X198476190Y-160917857D01*
X198476190Y-160536904D01*
X198285714Y-161965476D02*
X198952380Y-161965476D01*
X197904761Y-161727380D02*
X198619047Y-161489285D01*
X198619047Y-162108333D01*
X171046130Y-138595833D02*
X170569940Y-138262500D01*
X171046130Y-138024404D02*
X170046130Y-138024404D01*
X170046130Y-138405357D01*
X170093750Y-138500595D01*
X170141369Y-138548214D01*
X170236607Y-138595833D01*
X170379464Y-138595833D01*
X170474702Y-138548214D01*
X170522321Y-138500595D01*
X170569940Y-138405357D01*
X170569940Y-138024404D01*
X170046130Y-138929166D02*
X170046130Y-139548214D01*
X170427083Y-139214880D01*
X170427083Y-139357738D01*
X170474702Y-139452976D01*
X170522321Y-139500595D01*
X170617559Y-139548214D01*
X170855654Y-139548214D01*
X170950892Y-139500595D01*
X170998511Y-139452976D01*
X171046130Y-139357738D01*
X171046130Y-139072023D01*
X170998511Y-138976785D01*
X170950892Y-138929166D01*
X174221130Y-138595833D02*
X173744940Y-138262500D01*
X174221130Y-138024404D02*
X173221130Y-138024404D01*
X173221130Y-138405357D01*
X173268750Y-138500595D01*
X173316369Y-138548214D01*
X173411607Y-138595833D01*
X173554464Y-138595833D01*
X173649702Y-138548214D01*
X173697321Y-138500595D01*
X173744940Y-138405357D01*
X173744940Y-138024404D01*
X173316369Y-138976785D02*
X173268750Y-139024404D01*
X173221130Y-139119642D01*
X173221130Y-139357738D01*
X173268750Y-139452976D01*
X173316369Y-139500595D01*
X173411607Y-139548214D01*
X173506845Y-139548214D01*
X173649702Y-139500595D01*
X174221130Y-138929166D01*
X174221130Y-139548214D01*
X178983630Y-138595833D02*
X178507440Y-138262500D01*
X178983630Y-138024404D02*
X177983630Y-138024404D01*
X177983630Y-138405357D01*
X178031250Y-138500595D01*
X178078869Y-138548214D01*
X178174107Y-138595833D01*
X178316964Y-138595833D01*
X178412202Y-138548214D01*
X178459821Y-138500595D01*
X178507440Y-138405357D01*
X178507440Y-138024404D01*
X178983630Y-139548214D02*
X178983630Y-138976785D01*
X178983630Y-139262500D02*
X177983630Y-139262500D01*
X178126488Y-139167261D01*
X178221726Y-139072023D01*
X178269345Y-138976785D01*
X164796071Y-139554166D02*
X164796071Y-139220833D01*
X165319880Y-139220833D02*
X164319880Y-139220833D01*
X164319880Y-139697023D01*
X165319880Y-140601785D02*
X165319880Y-140030357D01*
X165319880Y-140316071D02*
X164319880Y-140316071D01*
X164462738Y-140220833D01*
X164557976Y-140125595D01*
X164605595Y-140030357D01*
X237402380Y-154836904D02*
X236402380Y-154836904D01*
X236402380Y-155075000D01*
X236450000Y-155217857D01*
X236545238Y-155313095D01*
X236640476Y-155360714D01*
X236830952Y-155408333D01*
X236973809Y-155408333D01*
X237164285Y-155360714D01*
X237259523Y-155313095D01*
X237354761Y-155217857D01*
X237402380Y-155075000D01*
X237402380Y-154836904D01*
X236735714Y-156265476D02*
X237402380Y-156265476D01*
X236354761Y-156027380D02*
X237069047Y-155789285D01*
X237069047Y-156408333D01*
X218352380Y-154836904D02*
X217352380Y-154836904D01*
X217352380Y-155075000D01*
X217400000Y-155217857D01*
X217495238Y-155313095D01*
X217590476Y-155360714D01*
X217780952Y-155408333D01*
X217923809Y-155408333D01*
X218114285Y-155360714D01*
X218209523Y-155313095D01*
X218304761Y-155217857D01*
X218352380Y-155075000D01*
X218352380Y-154836904D01*
X217352380Y-155741666D02*
X217352380Y-156360714D01*
X217733333Y-156027380D01*
X217733333Y-156170238D01*
X217780952Y-156265476D01*
X217828571Y-156313095D01*
X217923809Y-156360714D01*
X218161904Y-156360714D01*
X218257142Y-156313095D01*
X218304761Y-156265476D01*
X218352380Y-156170238D01*
X218352380Y-155884523D01*
X218304761Y-155789285D01*
X218257142Y-155741666D01*
X237402380Y-135786904D02*
X236402380Y-135786904D01*
X236402380Y-136025000D01*
X236450000Y-136167857D01*
X236545238Y-136263095D01*
X236640476Y-136310714D01*
X236830952Y-136358333D01*
X236973809Y-136358333D01*
X237164285Y-136310714D01*
X237259523Y-136263095D01*
X237354761Y-136167857D01*
X237402380Y-136025000D01*
X237402380Y-135786904D01*
X236497619Y-136739285D02*
X236450000Y-136786904D01*
X236402380Y-136882142D01*
X236402380Y-137120238D01*
X236450000Y-137215476D01*
X236497619Y-137263095D01*
X236592857Y-137310714D01*
X236688095Y-137310714D01*
X236830952Y-137263095D01*
X237402380Y-136691666D01*
X237402380Y-137310714D01*
X218352380Y-135786904D02*
X217352380Y-135786904D01*
X217352380Y-136025000D01*
X217400000Y-136167857D01*
X217495238Y-136263095D01*
X217590476Y-136310714D01*
X217780952Y-136358333D01*
X217923809Y-136358333D01*
X218114285Y-136310714D01*
X218209523Y-136263095D01*
X218304761Y-136167857D01*
X218352380Y-136025000D01*
X218352380Y-135786904D01*
X218352380Y-137310714D02*
X218352380Y-136739285D01*
X218352380Y-137025000D02*
X217352380Y-137025000D01*
X217495238Y-136929761D01*
X217590476Y-136834523D01*
X217638095Y-136739285D01*
X176507142Y-159233333D02*
X176554761Y-159185714D01*
X176602380Y-159042857D01*
X176602380Y-158947619D01*
X176554761Y-158804761D01*
X176459523Y-158709523D01*
X176364285Y-158661904D01*
X176173809Y-158614285D01*
X176030952Y-158614285D01*
X175840476Y-158661904D01*
X175745238Y-158709523D01*
X175650000Y-158804761D01*
X175602380Y-158947619D01*
X175602380Y-159042857D01*
X175650000Y-159185714D01*
X175697619Y-159233333D01*
X175602380Y-159566666D02*
X175602380Y-160233333D01*
X176602380Y-159804761D01*
X191604166Y-163807142D02*
X191651785Y-163854761D01*
X191794642Y-163902380D01*
X191889880Y-163902380D01*
X192032738Y-163854761D01*
X192127976Y-163759523D01*
X192175595Y-163664285D01*
X192223214Y-163473809D01*
X192223214Y-163330952D01*
X192175595Y-163140476D01*
X192127976Y-163045238D01*
X192032738Y-162950000D01*
X191889880Y-162902380D01*
X191794642Y-162902380D01*
X191651785Y-162950000D01*
X191604166Y-162997619D01*
X190747023Y-162902380D02*
X190937500Y-162902380D01*
X191032738Y-162950000D01*
X191080357Y-162997619D01*
X191175595Y-163140476D01*
X191223214Y-163330952D01*
X191223214Y-163711904D01*
X191175595Y-163807142D01*
X191127976Y-163854761D01*
X191032738Y-163902380D01*
X190842261Y-163902380D01*
X190747023Y-163854761D01*
X190699404Y-163807142D01*
X190651785Y-163711904D01*
X190651785Y-163473809D01*
X190699404Y-163378571D01*
X190747023Y-163330952D01*
X190842261Y-163283333D01*
X191032738Y-163283333D01*
X191127976Y-163330952D01*
X191175595Y-163378571D01*
X191223214Y-163473809D01*
X198857142Y-152233333D02*
X198904761Y-152185714D01*
X198952380Y-152042857D01*
X198952380Y-151947619D01*
X198904761Y-151804761D01*
X198809523Y-151709523D01*
X198714285Y-151661904D01*
X198523809Y-151614285D01*
X198380952Y-151614285D01*
X198190476Y-151661904D01*
X198095238Y-151709523D01*
X198000000Y-151804761D01*
X197952380Y-151947619D01*
X197952380Y-152042857D01*
X198000000Y-152185714D01*
X198047619Y-152233333D01*
X197952380Y-153138095D02*
X197952380Y-152661904D01*
X198428571Y-152614285D01*
X198380952Y-152661904D01*
X198333333Y-152757142D01*
X198333333Y-152995238D01*
X198380952Y-153090476D01*
X198428571Y-153138095D01*
X198523809Y-153185714D01*
X198761904Y-153185714D01*
X198857142Y-153138095D01*
X198904761Y-153090476D01*
X198952380Y-152995238D01*
X198952380Y-152757142D01*
X198904761Y-152661904D01*
X198857142Y-152614285D01*
X185363392Y-138595833D02*
X185411011Y-138548214D01*
X185458630Y-138405357D01*
X185458630Y-138310119D01*
X185411011Y-138167261D01*
X185315773Y-138072023D01*
X185220535Y-138024404D01*
X185030059Y-137976785D01*
X184887202Y-137976785D01*
X184696726Y-138024404D01*
X184601488Y-138072023D01*
X184506250Y-138167261D01*
X184458630Y-138310119D01*
X184458630Y-138405357D01*
X184506250Y-138548214D01*
X184553869Y-138595833D01*
X184791964Y-139452976D02*
X185458630Y-139452976D01*
X184411011Y-139214880D02*
X185125297Y-138976785D01*
X185125297Y-139595833D01*
X176522916Y-154282142D02*
X176570535Y-154329761D01*
X176713392Y-154377380D01*
X176808630Y-154377380D01*
X176951488Y-154329761D01*
X177046726Y-154234523D01*
X177094345Y-154139285D01*
X177141964Y-153948809D01*
X177141964Y-153805952D01*
X177094345Y-153615476D01*
X177046726Y-153520238D01*
X176951488Y-153425000D01*
X176808630Y-153377380D01*
X176713392Y-153377380D01*
X176570535Y-153425000D01*
X176522916Y-153472619D01*
X176189583Y-153377380D02*
X175570535Y-153377380D01*
X175903869Y-153758333D01*
X175761011Y-153758333D01*
X175665773Y-153805952D01*
X175618154Y-153853571D01*
X175570535Y-153948809D01*
X175570535Y-154186904D01*
X175618154Y-154282142D01*
X175665773Y-154329761D01*
X175761011Y-154377380D01*
X176046726Y-154377380D01*
X176141964Y-154329761D01*
X176189583Y-154282142D01*
X182857142Y-130945833D02*
X182904761Y-130898214D01*
X182952380Y-130755357D01*
X182952380Y-130660119D01*
X182904761Y-130517261D01*
X182809523Y-130422023D01*
X182714285Y-130374404D01*
X182523809Y-130326785D01*
X182380952Y-130326785D01*
X182190476Y-130374404D01*
X182095238Y-130422023D01*
X182000000Y-130517261D01*
X181952380Y-130660119D01*
X181952380Y-130755357D01*
X182000000Y-130898214D01*
X182047619Y-130945833D01*
X182047619Y-131326785D02*
X182000000Y-131374404D01*
X181952380Y-131469642D01*
X181952380Y-131707738D01*
X182000000Y-131802976D01*
X182047619Y-131850595D01*
X182142857Y-131898214D01*
X182238095Y-131898214D01*
X182380952Y-131850595D01*
X182952380Y-131279166D01*
X182952380Y-131898214D01*
X195682142Y-130945833D02*
X195729761Y-130898214D01*
X195777380Y-130755357D01*
X195777380Y-130660119D01*
X195729761Y-130517261D01*
X195634523Y-130422023D01*
X195539285Y-130374404D01*
X195348809Y-130326785D01*
X195205952Y-130326785D01*
X195015476Y-130374404D01*
X194920238Y-130422023D01*
X194825000Y-130517261D01*
X194777380Y-130660119D01*
X194777380Y-130755357D01*
X194825000Y-130898214D01*
X194872619Y-130945833D01*
X195777380Y-131898214D02*
X195777380Y-131326785D01*
X195777380Y-131612500D02*
X194777380Y-131612500D01*
X194920238Y-131517261D01*
X195015476Y-131422023D01*
X195063095Y-131326785D01*
%LPC*%
D12*
X189706250Y-130175000D03*
X187506250Y-130175000D03*
X187506250Y-131875000D03*
X189706250Y-131875000D03*
D13*
X171293750Y-126206250D03*
X178593750Y-126206250D03*
X178593750Y-130706250D03*
X171293750Y-130706250D03*
D14*
X173343750Y-130706250D03*
X174143750Y-130706250D03*
X174943750Y-130706250D03*
X175743750Y-130706250D03*
X176543750Y-130706250D03*
D15*
X183325000Y-161275000D03*
X184125000Y-161275000D03*
X184925000Y-161275000D03*
X185725000Y-161275000D03*
X186525000Y-161275000D03*
X187325000Y-161275000D03*
X188125000Y-161275000D03*
X188925000Y-161275000D03*
X189725000Y-161275000D03*
X190525000Y-161275000D03*
X191325000Y-161275000D03*
D16*
X193025000Y-159575000D03*
X193025000Y-158775000D03*
X193025000Y-157975000D03*
X193025000Y-157175000D03*
X193025000Y-156375000D03*
X193025000Y-155575000D03*
X193025000Y-154775000D03*
X193025000Y-153975000D03*
X193025000Y-153175000D03*
X193025000Y-152375000D03*
X193025000Y-151575000D03*
D15*
X191325000Y-149875000D03*
X190525000Y-149875000D03*
X189725000Y-149875000D03*
X188925000Y-149875000D03*
X188125000Y-149875000D03*
X187325000Y-149875000D03*
X186525000Y-149875000D03*
X185725000Y-149875000D03*
X184925000Y-149875000D03*
X184125000Y-149875000D03*
X183325000Y-149875000D03*
D16*
X181625000Y-151575000D03*
X181625000Y-152375000D03*
X181625000Y-153175000D03*
X181625000Y-153975000D03*
X181625000Y-154775000D03*
X181625000Y-155575000D03*
X181625000Y-156375000D03*
X181625000Y-157175000D03*
X181625000Y-157975000D03*
X181625000Y-158775000D03*
X181625000Y-159575000D03*
D17*
X174625000Y-162193750D03*
X168425000Y-165893750D03*
X174625000Y-165893750D03*
X168425000Y-162193750D03*
D18*
G36*
X197358141Y-159800297D02*
G01*
X197384278Y-159804174D01*
X197409909Y-159810594D01*
X197434788Y-159819495D01*
X197458674Y-159830793D01*
X197481337Y-159844377D01*
X197502560Y-159860117D01*
X197522139Y-159877861D01*
X197539883Y-159897440D01*
X197555623Y-159918663D01*
X197569207Y-159941326D01*
X197580505Y-159965212D01*
X197589406Y-159990091D01*
X197595826Y-160015722D01*
X197599703Y-160041859D01*
X197601000Y-160068250D01*
X197601000Y-160606750D01*
X197599703Y-160633141D01*
X197595826Y-160659278D01*
X197589406Y-160684909D01*
X197580505Y-160709788D01*
X197569207Y-160733674D01*
X197555623Y-160756337D01*
X197539883Y-160777560D01*
X197522139Y-160797139D01*
X197502560Y-160814883D01*
X197481337Y-160830623D01*
X197458674Y-160844207D01*
X197434788Y-160855505D01*
X197409909Y-160864406D01*
X197384278Y-160870826D01*
X197358141Y-160874703D01*
X197331750Y-160876000D01*
X196368250Y-160876000D01*
X196341859Y-160874703D01*
X196315722Y-160870826D01*
X196290091Y-160864406D01*
X196265212Y-160855505D01*
X196241326Y-160844207D01*
X196218663Y-160830623D01*
X196197440Y-160814883D01*
X196177861Y-160797139D01*
X196160117Y-160777560D01*
X196144377Y-160756337D01*
X196130793Y-160733674D01*
X196119495Y-160709788D01*
X196110594Y-160684909D01*
X196104174Y-160659278D01*
X196100297Y-160633141D01*
X196099000Y-160606750D01*
X196099000Y-160068250D01*
X196100297Y-160041859D01*
X196104174Y-160015722D01*
X196110594Y-159990091D01*
X196119495Y-159965212D01*
X196130793Y-159941326D01*
X196144377Y-159918663D01*
X196160117Y-159897440D01*
X196177861Y-159877861D01*
X196197440Y-159860117D01*
X196218663Y-159844377D01*
X196241326Y-159830793D01*
X196265212Y-159819495D01*
X196290091Y-159810594D01*
X196315722Y-159804174D01*
X196341859Y-159800297D01*
X196368250Y-159799000D01*
X197331750Y-159799000D01*
X197358141Y-159800297D01*
G37*
G36*
X197358141Y-161675297D02*
G01*
X197384278Y-161679174D01*
X197409909Y-161685594D01*
X197434788Y-161694495D01*
X197458674Y-161705793D01*
X197481337Y-161719377D01*
X197502560Y-161735117D01*
X197522139Y-161752861D01*
X197539883Y-161772440D01*
X197555623Y-161793663D01*
X197569207Y-161816326D01*
X197580505Y-161840212D01*
X197589406Y-161865091D01*
X197595826Y-161890722D01*
X197599703Y-161916859D01*
X197601000Y-161943250D01*
X197601000Y-162481750D01*
X197599703Y-162508141D01*
X197595826Y-162534278D01*
X197589406Y-162559909D01*
X197580505Y-162584788D01*
X197569207Y-162608674D01*
X197555623Y-162631337D01*
X197539883Y-162652560D01*
X197522139Y-162672139D01*
X197502560Y-162689883D01*
X197481337Y-162705623D01*
X197458674Y-162719207D01*
X197434788Y-162730505D01*
X197409909Y-162739406D01*
X197384278Y-162745826D01*
X197358141Y-162749703D01*
X197331750Y-162751000D01*
X196368250Y-162751000D01*
X196341859Y-162749703D01*
X196315722Y-162745826D01*
X196290091Y-162739406D01*
X196265212Y-162730505D01*
X196241326Y-162719207D01*
X196218663Y-162705623D01*
X196197440Y-162689883D01*
X196177861Y-162672139D01*
X196160117Y-162652560D01*
X196144377Y-162631337D01*
X196130793Y-162608674D01*
X196119495Y-162584788D01*
X196110594Y-162559909D01*
X196104174Y-162534278D01*
X196100297Y-162508141D01*
X196099000Y-162481750D01*
X196099000Y-161943250D01*
X196100297Y-161916859D01*
X196104174Y-161890722D01*
X196110594Y-161865091D01*
X196119495Y-161840212D01*
X196130793Y-161816326D01*
X196144377Y-161793663D01*
X196160117Y-161772440D01*
X196177861Y-161752861D01*
X196197440Y-161735117D01*
X196218663Y-161719377D01*
X196241326Y-161705793D01*
X196265212Y-161694495D01*
X196290091Y-161685594D01*
X196315722Y-161679174D01*
X196341859Y-161675297D01*
X196368250Y-161674000D01*
X197331750Y-161674000D01*
X197358141Y-161675297D01*
G37*
G36*
X172751891Y-139162797D02*
G01*
X172778028Y-139166674D01*
X172803659Y-139173094D01*
X172828538Y-139181995D01*
X172852424Y-139193293D01*
X172875087Y-139206877D01*
X172896310Y-139222617D01*
X172915889Y-139240361D01*
X172933633Y-139259940D01*
X172949373Y-139281163D01*
X172962957Y-139303826D01*
X172974255Y-139327712D01*
X172983156Y-139352591D01*
X172989576Y-139378222D01*
X172993453Y-139404359D01*
X172994750Y-139430750D01*
X172994750Y-139969250D01*
X172993453Y-139995641D01*
X172989576Y-140021778D01*
X172983156Y-140047409D01*
X172974255Y-140072288D01*
X172962957Y-140096174D01*
X172949373Y-140118837D01*
X172933633Y-140140060D01*
X172915889Y-140159639D01*
X172896310Y-140177383D01*
X172875087Y-140193123D01*
X172852424Y-140206707D01*
X172828538Y-140218005D01*
X172803659Y-140226906D01*
X172778028Y-140233326D01*
X172751891Y-140237203D01*
X172725500Y-140238500D01*
X171762000Y-140238500D01*
X171735609Y-140237203D01*
X171709472Y-140233326D01*
X171683841Y-140226906D01*
X171658962Y-140218005D01*
X171635076Y-140206707D01*
X171612413Y-140193123D01*
X171591190Y-140177383D01*
X171571611Y-140159639D01*
X171553867Y-140140060D01*
X171538127Y-140118837D01*
X171524543Y-140096174D01*
X171513245Y-140072288D01*
X171504344Y-140047409D01*
X171497924Y-140021778D01*
X171494047Y-139995641D01*
X171492750Y-139969250D01*
X171492750Y-139430750D01*
X171494047Y-139404359D01*
X171497924Y-139378222D01*
X171504344Y-139352591D01*
X171513245Y-139327712D01*
X171524543Y-139303826D01*
X171538127Y-139281163D01*
X171553867Y-139259940D01*
X171571611Y-139240361D01*
X171591190Y-139222617D01*
X171612413Y-139206877D01*
X171635076Y-139193293D01*
X171658962Y-139181995D01*
X171683841Y-139173094D01*
X171709472Y-139166674D01*
X171735609Y-139162797D01*
X171762000Y-139161500D01*
X172725500Y-139161500D01*
X172751891Y-139162797D01*
G37*
G36*
X172751891Y-137287797D02*
G01*
X172778028Y-137291674D01*
X172803659Y-137298094D01*
X172828538Y-137306995D01*
X172852424Y-137318293D01*
X172875087Y-137331877D01*
X172896310Y-137347617D01*
X172915889Y-137365361D01*
X172933633Y-137384940D01*
X172949373Y-137406163D01*
X172962957Y-137428826D01*
X172974255Y-137452712D01*
X172983156Y-137477591D01*
X172989576Y-137503222D01*
X172993453Y-137529359D01*
X172994750Y-137555750D01*
X172994750Y-138094250D01*
X172993453Y-138120641D01*
X172989576Y-138146778D01*
X172983156Y-138172409D01*
X172974255Y-138197288D01*
X172962957Y-138221174D01*
X172949373Y-138243837D01*
X172933633Y-138265060D01*
X172915889Y-138284639D01*
X172896310Y-138302383D01*
X172875087Y-138318123D01*
X172852424Y-138331707D01*
X172828538Y-138343005D01*
X172803659Y-138351906D01*
X172778028Y-138358326D01*
X172751891Y-138362203D01*
X172725500Y-138363500D01*
X171762000Y-138363500D01*
X171735609Y-138362203D01*
X171709472Y-138358326D01*
X171683841Y-138351906D01*
X171658962Y-138343005D01*
X171635076Y-138331707D01*
X171612413Y-138318123D01*
X171591190Y-138302383D01*
X171571611Y-138284639D01*
X171553867Y-138265060D01*
X171538127Y-138243837D01*
X171524543Y-138221174D01*
X171513245Y-138197288D01*
X171504344Y-138172409D01*
X171497924Y-138146778D01*
X171494047Y-138120641D01*
X171492750Y-138094250D01*
X171492750Y-137555750D01*
X171494047Y-137529359D01*
X171497924Y-137503222D01*
X171504344Y-137477591D01*
X171513245Y-137452712D01*
X171524543Y-137428826D01*
X171538127Y-137406163D01*
X171553867Y-137384940D01*
X171571611Y-137365361D01*
X171591190Y-137347617D01*
X171612413Y-137331877D01*
X171635076Y-137318293D01*
X171658962Y-137306995D01*
X171683841Y-137298094D01*
X171709472Y-137291674D01*
X171735609Y-137287797D01*
X171762000Y-137286500D01*
X172725500Y-137286500D01*
X172751891Y-137287797D01*
G37*
G36*
X175926891Y-139162797D02*
G01*
X175953028Y-139166674D01*
X175978659Y-139173094D01*
X176003538Y-139181995D01*
X176027424Y-139193293D01*
X176050087Y-139206877D01*
X176071310Y-139222617D01*
X176090889Y-139240361D01*
X176108633Y-139259940D01*
X176124373Y-139281163D01*
X176137957Y-139303826D01*
X176149255Y-139327712D01*
X176158156Y-139352591D01*
X176164576Y-139378222D01*
X176168453Y-139404359D01*
X176169750Y-139430750D01*
X176169750Y-139969250D01*
X176168453Y-139995641D01*
X176164576Y-140021778D01*
X176158156Y-140047409D01*
X176149255Y-140072288D01*
X176137957Y-140096174D01*
X176124373Y-140118837D01*
X176108633Y-140140060D01*
X176090889Y-140159639D01*
X176071310Y-140177383D01*
X176050087Y-140193123D01*
X176027424Y-140206707D01*
X176003538Y-140218005D01*
X175978659Y-140226906D01*
X175953028Y-140233326D01*
X175926891Y-140237203D01*
X175900500Y-140238500D01*
X174937000Y-140238500D01*
X174910609Y-140237203D01*
X174884472Y-140233326D01*
X174858841Y-140226906D01*
X174833962Y-140218005D01*
X174810076Y-140206707D01*
X174787413Y-140193123D01*
X174766190Y-140177383D01*
X174746611Y-140159639D01*
X174728867Y-140140060D01*
X174713127Y-140118837D01*
X174699543Y-140096174D01*
X174688245Y-140072288D01*
X174679344Y-140047409D01*
X174672924Y-140021778D01*
X174669047Y-139995641D01*
X174667750Y-139969250D01*
X174667750Y-139430750D01*
X174669047Y-139404359D01*
X174672924Y-139378222D01*
X174679344Y-139352591D01*
X174688245Y-139327712D01*
X174699543Y-139303826D01*
X174713127Y-139281163D01*
X174728867Y-139259940D01*
X174746611Y-139240361D01*
X174766190Y-139222617D01*
X174787413Y-139206877D01*
X174810076Y-139193293D01*
X174833962Y-139181995D01*
X174858841Y-139173094D01*
X174884472Y-139166674D01*
X174910609Y-139162797D01*
X174937000Y-139161500D01*
X175900500Y-139161500D01*
X175926891Y-139162797D01*
G37*
G36*
X175926891Y-137287797D02*
G01*
X175953028Y-137291674D01*
X175978659Y-137298094D01*
X176003538Y-137306995D01*
X176027424Y-137318293D01*
X176050087Y-137331877D01*
X176071310Y-137347617D01*
X176090889Y-137365361D01*
X176108633Y-137384940D01*
X176124373Y-137406163D01*
X176137957Y-137428826D01*
X176149255Y-137452712D01*
X176158156Y-137477591D01*
X176164576Y-137503222D01*
X176168453Y-137529359D01*
X176169750Y-137555750D01*
X176169750Y-138094250D01*
X176168453Y-138120641D01*
X176164576Y-138146778D01*
X176158156Y-138172409D01*
X176149255Y-138197288D01*
X176137957Y-138221174D01*
X176124373Y-138243837D01*
X176108633Y-138265060D01*
X176090889Y-138284639D01*
X176071310Y-138302383D01*
X176050087Y-138318123D01*
X176027424Y-138331707D01*
X176003538Y-138343005D01*
X175978659Y-138351906D01*
X175953028Y-138358326D01*
X175926891Y-138362203D01*
X175900500Y-138363500D01*
X174937000Y-138363500D01*
X174910609Y-138362203D01*
X174884472Y-138358326D01*
X174858841Y-138351906D01*
X174833962Y-138343005D01*
X174810076Y-138331707D01*
X174787413Y-138318123D01*
X174766190Y-138302383D01*
X174746611Y-138284639D01*
X174728867Y-138265060D01*
X174713127Y-138243837D01*
X174699543Y-138221174D01*
X174688245Y-138197288D01*
X174679344Y-138172409D01*
X174672924Y-138146778D01*
X174669047Y-138120641D01*
X174667750Y-138094250D01*
X174667750Y-137555750D01*
X174669047Y-137529359D01*
X174672924Y-137503222D01*
X174679344Y-137477591D01*
X174688245Y-137452712D01*
X174699543Y-137428826D01*
X174713127Y-137406163D01*
X174728867Y-137384940D01*
X174746611Y-137365361D01*
X174766190Y-137347617D01*
X174787413Y-137331877D01*
X174810076Y-137318293D01*
X174833962Y-137306995D01*
X174858841Y-137298094D01*
X174884472Y-137291674D01*
X174910609Y-137287797D01*
X174937000Y-137286500D01*
X175900500Y-137286500D01*
X175926891Y-137287797D01*
G37*
G36*
X180689391Y-139162797D02*
G01*
X180715528Y-139166674D01*
X180741159Y-139173094D01*
X180766038Y-139181995D01*
X180789924Y-139193293D01*
X180812587Y-139206877D01*
X180833810Y-139222617D01*
X180853389Y-139240361D01*
X180871133Y-139259940D01*
X180886873Y-139281163D01*
X180900457Y-139303826D01*
X180911755Y-139327712D01*
X180920656Y-139352591D01*
X180927076Y-139378222D01*
X180930953Y-139404359D01*
X180932250Y-139430750D01*
X180932250Y-139969250D01*
X180930953Y-139995641D01*
X180927076Y-140021778D01*
X180920656Y-140047409D01*
X180911755Y-140072288D01*
X180900457Y-140096174D01*
X180886873Y-140118837D01*
X180871133Y-140140060D01*
X180853389Y-140159639D01*
X180833810Y-140177383D01*
X180812587Y-140193123D01*
X180789924Y-140206707D01*
X180766038Y-140218005D01*
X180741159Y-140226906D01*
X180715528Y-140233326D01*
X180689391Y-140237203D01*
X180663000Y-140238500D01*
X179699500Y-140238500D01*
X179673109Y-140237203D01*
X179646972Y-140233326D01*
X179621341Y-140226906D01*
X179596462Y-140218005D01*
X179572576Y-140206707D01*
X179549913Y-140193123D01*
X179528690Y-140177383D01*
X179509111Y-140159639D01*
X179491367Y-140140060D01*
X179475627Y-140118837D01*
X179462043Y-140096174D01*
X179450745Y-140072288D01*
X179441844Y-140047409D01*
X179435424Y-140021778D01*
X179431547Y-139995641D01*
X179430250Y-139969250D01*
X179430250Y-139430750D01*
X179431547Y-139404359D01*
X179435424Y-139378222D01*
X179441844Y-139352591D01*
X179450745Y-139327712D01*
X179462043Y-139303826D01*
X179475627Y-139281163D01*
X179491367Y-139259940D01*
X179509111Y-139240361D01*
X179528690Y-139222617D01*
X179549913Y-139206877D01*
X179572576Y-139193293D01*
X179596462Y-139181995D01*
X179621341Y-139173094D01*
X179646972Y-139166674D01*
X179673109Y-139162797D01*
X179699500Y-139161500D01*
X180663000Y-139161500D01*
X180689391Y-139162797D01*
G37*
G36*
X180689391Y-137287797D02*
G01*
X180715528Y-137291674D01*
X180741159Y-137298094D01*
X180766038Y-137306995D01*
X180789924Y-137318293D01*
X180812587Y-137331877D01*
X180833810Y-137347617D01*
X180853389Y-137365361D01*
X180871133Y-137384940D01*
X180886873Y-137406163D01*
X180900457Y-137428826D01*
X180911755Y-137452712D01*
X180920656Y-137477591D01*
X180927076Y-137503222D01*
X180930953Y-137529359D01*
X180932250Y-137555750D01*
X180932250Y-138094250D01*
X180930953Y-138120641D01*
X180927076Y-138146778D01*
X180920656Y-138172409D01*
X180911755Y-138197288D01*
X180900457Y-138221174D01*
X180886873Y-138243837D01*
X180871133Y-138265060D01*
X180853389Y-138284639D01*
X180833810Y-138302383D01*
X180812587Y-138318123D01*
X180789924Y-138331707D01*
X180766038Y-138343005D01*
X180741159Y-138351906D01*
X180715528Y-138358326D01*
X180689391Y-138362203D01*
X180663000Y-138363500D01*
X179699500Y-138363500D01*
X179673109Y-138362203D01*
X179646972Y-138358326D01*
X179621341Y-138351906D01*
X179596462Y-138343005D01*
X179572576Y-138331707D01*
X179549913Y-138318123D01*
X179528690Y-138302383D01*
X179509111Y-138284639D01*
X179491367Y-138265060D01*
X179475627Y-138243837D01*
X179462043Y-138221174D01*
X179450745Y-138197288D01*
X179441844Y-138172409D01*
X179435424Y-138146778D01*
X179431547Y-138120641D01*
X179430250Y-138094250D01*
X179430250Y-137555750D01*
X179431547Y-137529359D01*
X179435424Y-137503222D01*
X179441844Y-137477591D01*
X179450745Y-137452712D01*
X179462043Y-137428826D01*
X179475627Y-137406163D01*
X179491367Y-137384940D01*
X179509111Y-137365361D01*
X179528690Y-137347617D01*
X179549913Y-137331877D01*
X179572576Y-137318293D01*
X179596462Y-137306995D01*
X179621341Y-137298094D01*
X179646972Y-137291674D01*
X179673109Y-137287797D01*
X179699500Y-137286500D01*
X180663000Y-137286500D01*
X180689391Y-137287797D01*
G37*
D19*
X232092500Y-155575000D03*
X221932500Y-155575000D03*
D20*
X223202500Y-153035000D03*
D21*
X227012500Y-155575000D03*
D20*
X229552500Y-150495000D03*
D19*
X213042500Y-155575000D03*
X202882500Y-155575000D03*
D20*
X204152500Y-153035000D03*
D21*
X207962500Y-155575000D03*
D20*
X210502500Y-150495000D03*
D19*
X232092500Y-136525000D03*
X221932500Y-136525000D03*
D20*
X223202500Y-133985000D03*
D21*
X227012500Y-136525000D03*
D20*
X229552500Y-131445000D03*
D19*
X213042500Y-136525000D03*
X202882500Y-136525000D03*
D20*
X204152500Y-133985000D03*
D21*
X207962500Y-136525000D03*
D20*
X210502500Y-131445000D03*
D18*
G36*
X167369604Y-140612802D02*
G01*
X167395852Y-140616696D01*
X167421593Y-140623143D01*
X167446578Y-140632083D01*
X167470566Y-140643428D01*
X167493326Y-140657071D01*
X167514640Y-140672878D01*
X167534302Y-140690698D01*
X167552122Y-140710360D01*
X167567929Y-140731674D01*
X167581572Y-140754434D01*
X167592917Y-140778422D01*
X167601857Y-140803407D01*
X167608304Y-140829148D01*
X167612198Y-140855396D01*
X167613500Y-140881900D01*
X167613500Y-141693100D01*
X167612198Y-141719604D01*
X167608304Y-141745852D01*
X167601857Y-141771593D01*
X167592917Y-141796578D01*
X167581572Y-141820566D01*
X167567929Y-141843326D01*
X167552122Y-141864640D01*
X167534302Y-141884302D01*
X167514640Y-141902122D01*
X167493326Y-141917929D01*
X167470566Y-141931572D01*
X167446578Y-141942917D01*
X167421593Y-141951857D01*
X167395852Y-141958304D01*
X167369604Y-141962198D01*
X167343100Y-141963500D01*
X166031900Y-141963500D01*
X166005396Y-141962198D01*
X165979148Y-141958304D01*
X165953407Y-141951857D01*
X165928422Y-141942917D01*
X165904434Y-141931572D01*
X165881674Y-141917929D01*
X165860360Y-141902122D01*
X165840698Y-141884302D01*
X165822878Y-141864640D01*
X165807071Y-141843326D01*
X165793428Y-141820566D01*
X165782083Y-141796578D01*
X165773143Y-141771593D01*
X165766696Y-141745852D01*
X165762802Y-141719604D01*
X165761500Y-141693100D01*
X165761500Y-140881900D01*
X165762802Y-140855396D01*
X165766696Y-140829148D01*
X165773143Y-140803407D01*
X165782083Y-140778422D01*
X165793428Y-140754434D01*
X165807071Y-140731674D01*
X165822878Y-140710360D01*
X165840698Y-140690698D01*
X165860360Y-140672878D01*
X165881674Y-140657071D01*
X165904434Y-140643428D01*
X165928422Y-140632083D01*
X165953407Y-140623143D01*
X165979148Y-140616696D01*
X166005396Y-140612802D01*
X166031900Y-140611500D01*
X167343100Y-140611500D01*
X167369604Y-140612802D01*
G37*
G36*
X167369604Y-137812802D02*
G01*
X167395852Y-137816696D01*
X167421593Y-137823143D01*
X167446578Y-137832083D01*
X167470566Y-137843428D01*
X167493326Y-137857071D01*
X167514640Y-137872878D01*
X167534302Y-137890698D01*
X167552122Y-137910360D01*
X167567929Y-137931674D01*
X167581572Y-137954434D01*
X167592917Y-137978422D01*
X167601857Y-138003407D01*
X167608304Y-138029148D01*
X167612198Y-138055396D01*
X167613500Y-138081900D01*
X167613500Y-138893100D01*
X167612198Y-138919604D01*
X167608304Y-138945852D01*
X167601857Y-138971593D01*
X167592917Y-138996578D01*
X167581572Y-139020566D01*
X167567929Y-139043326D01*
X167552122Y-139064640D01*
X167534302Y-139084302D01*
X167514640Y-139102122D01*
X167493326Y-139117929D01*
X167470566Y-139131572D01*
X167446578Y-139142917D01*
X167421593Y-139151857D01*
X167395852Y-139158304D01*
X167369604Y-139162198D01*
X167343100Y-139163500D01*
X166031900Y-139163500D01*
X166005396Y-139162198D01*
X165979148Y-139158304D01*
X165953407Y-139151857D01*
X165928422Y-139142917D01*
X165904434Y-139131572D01*
X165881674Y-139117929D01*
X165860360Y-139102122D01*
X165840698Y-139084302D01*
X165822878Y-139064640D01*
X165807071Y-139043326D01*
X165793428Y-139020566D01*
X165782083Y-138996578D01*
X165773143Y-138971593D01*
X165766696Y-138945852D01*
X165762802Y-138919604D01*
X165761500Y-138893100D01*
X165761500Y-138081900D01*
X165762802Y-138055396D01*
X165766696Y-138029148D01*
X165773143Y-138003407D01*
X165782083Y-137978422D01*
X165793428Y-137954434D01*
X165807071Y-137931674D01*
X165822878Y-137910360D01*
X165840698Y-137890698D01*
X165860360Y-137872878D01*
X165881674Y-137857071D01*
X165904434Y-137843428D01*
X165928422Y-137832083D01*
X165953407Y-137823143D01*
X165979148Y-137816696D01*
X166005396Y-137812802D01*
X166031900Y-137811500D01*
X167343100Y-137811500D01*
X167369604Y-137812802D01*
G37*
D22*
X234950000Y-153925000D03*
X234950000Y-157225000D03*
X215900000Y-153925000D03*
X215900000Y-157225000D03*
X234950000Y-134875000D03*
X234950000Y-138175000D03*
X215900000Y-134875000D03*
X215900000Y-138175000D03*
D18*
G36*
X178308141Y-159800297D02*
G01*
X178334278Y-159804174D01*
X178359909Y-159810594D01*
X178384788Y-159819495D01*
X178408674Y-159830793D01*
X178431337Y-159844377D01*
X178452560Y-159860117D01*
X178472139Y-159877861D01*
X178489883Y-159897440D01*
X178505623Y-159918663D01*
X178519207Y-159941326D01*
X178530505Y-159965212D01*
X178539406Y-159990091D01*
X178545826Y-160015722D01*
X178549703Y-160041859D01*
X178551000Y-160068250D01*
X178551000Y-160606750D01*
X178549703Y-160633141D01*
X178545826Y-160659278D01*
X178539406Y-160684909D01*
X178530505Y-160709788D01*
X178519207Y-160733674D01*
X178505623Y-160756337D01*
X178489883Y-160777560D01*
X178472139Y-160797139D01*
X178452560Y-160814883D01*
X178431337Y-160830623D01*
X178408674Y-160844207D01*
X178384788Y-160855505D01*
X178359909Y-160864406D01*
X178334278Y-160870826D01*
X178308141Y-160874703D01*
X178281750Y-160876000D01*
X177318250Y-160876000D01*
X177291859Y-160874703D01*
X177265722Y-160870826D01*
X177240091Y-160864406D01*
X177215212Y-160855505D01*
X177191326Y-160844207D01*
X177168663Y-160830623D01*
X177147440Y-160814883D01*
X177127861Y-160797139D01*
X177110117Y-160777560D01*
X177094377Y-160756337D01*
X177080793Y-160733674D01*
X177069495Y-160709788D01*
X177060594Y-160684909D01*
X177054174Y-160659278D01*
X177050297Y-160633141D01*
X177049000Y-160606750D01*
X177049000Y-160068250D01*
X177050297Y-160041859D01*
X177054174Y-160015722D01*
X177060594Y-159990091D01*
X177069495Y-159965212D01*
X177080793Y-159941326D01*
X177094377Y-159918663D01*
X177110117Y-159897440D01*
X177127861Y-159877861D01*
X177147440Y-159860117D01*
X177168663Y-159844377D01*
X177191326Y-159830793D01*
X177215212Y-159819495D01*
X177240091Y-159810594D01*
X177265722Y-159804174D01*
X177291859Y-159800297D01*
X177318250Y-159799000D01*
X178281750Y-159799000D01*
X178308141Y-159800297D01*
G37*
G36*
X178308141Y-157925297D02*
G01*
X178334278Y-157929174D01*
X178359909Y-157935594D01*
X178384788Y-157944495D01*
X178408674Y-157955793D01*
X178431337Y-157969377D01*
X178452560Y-157985117D01*
X178472139Y-158002861D01*
X178489883Y-158022440D01*
X178505623Y-158043663D01*
X178519207Y-158066326D01*
X178530505Y-158090212D01*
X178539406Y-158115091D01*
X178545826Y-158140722D01*
X178549703Y-158166859D01*
X178551000Y-158193250D01*
X178551000Y-158731750D01*
X178549703Y-158758141D01*
X178545826Y-158784278D01*
X178539406Y-158809909D01*
X178530505Y-158834788D01*
X178519207Y-158858674D01*
X178505623Y-158881337D01*
X178489883Y-158902560D01*
X178472139Y-158922139D01*
X178452560Y-158939883D01*
X178431337Y-158955623D01*
X178408674Y-158969207D01*
X178384788Y-158980505D01*
X178359909Y-158989406D01*
X178334278Y-158995826D01*
X178308141Y-158999703D01*
X178281750Y-159001000D01*
X177318250Y-159001000D01*
X177291859Y-158999703D01*
X177265722Y-158995826D01*
X177240091Y-158989406D01*
X177215212Y-158980505D01*
X177191326Y-158969207D01*
X177168663Y-158955623D01*
X177147440Y-158939883D01*
X177127861Y-158922139D01*
X177110117Y-158902560D01*
X177094377Y-158881337D01*
X177080793Y-158858674D01*
X177069495Y-158834788D01*
X177060594Y-158809909D01*
X177054174Y-158784278D01*
X177050297Y-158758141D01*
X177049000Y-158731750D01*
X177049000Y-158193250D01*
X177050297Y-158166859D01*
X177054174Y-158140722D01*
X177060594Y-158115091D01*
X177069495Y-158090212D01*
X177080793Y-158066326D01*
X177094377Y-158043663D01*
X177110117Y-158022440D01*
X177127861Y-158002861D01*
X177147440Y-157985117D01*
X177168663Y-157969377D01*
X177191326Y-157955793D01*
X177215212Y-157944495D01*
X177240091Y-157935594D01*
X177265722Y-157929174D01*
X177291859Y-157925297D01*
X177318250Y-157924000D01*
X178281750Y-157924000D01*
X178308141Y-157925297D01*
G37*
G36*
X190795641Y-164350297D02*
G01*
X190821778Y-164354174D01*
X190847409Y-164360594D01*
X190872288Y-164369495D01*
X190896174Y-164380793D01*
X190918837Y-164394377D01*
X190940060Y-164410117D01*
X190959639Y-164427861D01*
X190977383Y-164447440D01*
X190993123Y-164468663D01*
X191006707Y-164491326D01*
X191018005Y-164515212D01*
X191026906Y-164540091D01*
X191033326Y-164565722D01*
X191037203Y-164591859D01*
X191038500Y-164618250D01*
X191038500Y-165581750D01*
X191037203Y-165608141D01*
X191033326Y-165634278D01*
X191026906Y-165659909D01*
X191018005Y-165684788D01*
X191006707Y-165708674D01*
X190993123Y-165731337D01*
X190977383Y-165752560D01*
X190959639Y-165772139D01*
X190940060Y-165789883D01*
X190918837Y-165805623D01*
X190896174Y-165819207D01*
X190872288Y-165830505D01*
X190847409Y-165839406D01*
X190821778Y-165845826D01*
X190795641Y-165849703D01*
X190769250Y-165851000D01*
X190230750Y-165851000D01*
X190204359Y-165849703D01*
X190178222Y-165845826D01*
X190152591Y-165839406D01*
X190127712Y-165830505D01*
X190103826Y-165819207D01*
X190081163Y-165805623D01*
X190059940Y-165789883D01*
X190040361Y-165772139D01*
X190022617Y-165752560D01*
X190006877Y-165731337D01*
X189993293Y-165708674D01*
X189981995Y-165684788D01*
X189973094Y-165659909D01*
X189966674Y-165634278D01*
X189962797Y-165608141D01*
X189961500Y-165581750D01*
X189961500Y-164618250D01*
X189962797Y-164591859D01*
X189966674Y-164565722D01*
X189973094Y-164540091D01*
X189981995Y-164515212D01*
X189993293Y-164491326D01*
X190006877Y-164468663D01*
X190022617Y-164447440D01*
X190040361Y-164427861D01*
X190059940Y-164410117D01*
X190081163Y-164394377D01*
X190103826Y-164380793D01*
X190127712Y-164369495D01*
X190152591Y-164360594D01*
X190178222Y-164354174D01*
X190204359Y-164350297D01*
X190230750Y-164349000D01*
X190769250Y-164349000D01*
X190795641Y-164350297D01*
G37*
G36*
X192670641Y-164350297D02*
G01*
X192696778Y-164354174D01*
X192722409Y-164360594D01*
X192747288Y-164369495D01*
X192771174Y-164380793D01*
X192793837Y-164394377D01*
X192815060Y-164410117D01*
X192834639Y-164427861D01*
X192852383Y-164447440D01*
X192868123Y-164468663D01*
X192881707Y-164491326D01*
X192893005Y-164515212D01*
X192901906Y-164540091D01*
X192908326Y-164565722D01*
X192912203Y-164591859D01*
X192913500Y-164618250D01*
X192913500Y-165581750D01*
X192912203Y-165608141D01*
X192908326Y-165634278D01*
X192901906Y-165659909D01*
X192893005Y-165684788D01*
X192881707Y-165708674D01*
X192868123Y-165731337D01*
X192852383Y-165752560D01*
X192834639Y-165772139D01*
X192815060Y-165789883D01*
X192793837Y-165805623D01*
X192771174Y-165819207D01*
X192747288Y-165830505D01*
X192722409Y-165839406D01*
X192696778Y-165845826D01*
X192670641Y-165849703D01*
X192644250Y-165851000D01*
X192105750Y-165851000D01*
X192079359Y-165849703D01*
X192053222Y-165845826D01*
X192027591Y-165839406D01*
X192002712Y-165830505D01*
X191978826Y-165819207D01*
X191956163Y-165805623D01*
X191934940Y-165789883D01*
X191915361Y-165772139D01*
X191897617Y-165752560D01*
X191881877Y-165731337D01*
X191868293Y-165708674D01*
X191856995Y-165684788D01*
X191848094Y-165659909D01*
X191841674Y-165634278D01*
X191837797Y-165608141D01*
X191836500Y-165581750D01*
X191836500Y-164618250D01*
X191837797Y-164591859D01*
X191841674Y-164565722D01*
X191848094Y-164540091D01*
X191856995Y-164515212D01*
X191868293Y-164491326D01*
X191881877Y-164468663D01*
X191897617Y-164447440D01*
X191915361Y-164427861D01*
X191934940Y-164410117D01*
X191956163Y-164394377D01*
X191978826Y-164380793D01*
X192002712Y-164369495D01*
X192027591Y-164360594D01*
X192053222Y-164354174D01*
X192079359Y-164350297D01*
X192105750Y-164349000D01*
X192644250Y-164349000D01*
X192670641Y-164350297D01*
G37*
G36*
X197358141Y-150925297D02*
G01*
X197384278Y-150929174D01*
X197409909Y-150935594D01*
X197434788Y-150944495D01*
X197458674Y-150955793D01*
X197481337Y-150969377D01*
X197502560Y-150985117D01*
X197522139Y-151002861D01*
X197539883Y-151022440D01*
X197555623Y-151043663D01*
X197569207Y-151066326D01*
X197580505Y-151090212D01*
X197589406Y-151115091D01*
X197595826Y-151140722D01*
X197599703Y-151166859D01*
X197601000Y-151193250D01*
X197601000Y-151731750D01*
X197599703Y-151758141D01*
X197595826Y-151784278D01*
X197589406Y-151809909D01*
X197580505Y-151834788D01*
X197569207Y-151858674D01*
X197555623Y-151881337D01*
X197539883Y-151902560D01*
X197522139Y-151922139D01*
X197502560Y-151939883D01*
X197481337Y-151955623D01*
X197458674Y-151969207D01*
X197434788Y-151980505D01*
X197409909Y-151989406D01*
X197384278Y-151995826D01*
X197358141Y-151999703D01*
X197331750Y-152001000D01*
X196368250Y-152001000D01*
X196341859Y-151999703D01*
X196315722Y-151995826D01*
X196290091Y-151989406D01*
X196265212Y-151980505D01*
X196241326Y-151969207D01*
X196218663Y-151955623D01*
X196197440Y-151939883D01*
X196177861Y-151922139D01*
X196160117Y-151902560D01*
X196144377Y-151881337D01*
X196130793Y-151858674D01*
X196119495Y-151834788D01*
X196110594Y-151809909D01*
X196104174Y-151784278D01*
X196100297Y-151758141D01*
X196099000Y-151731750D01*
X196099000Y-151193250D01*
X196100297Y-151166859D01*
X196104174Y-151140722D01*
X196110594Y-151115091D01*
X196119495Y-151090212D01*
X196130793Y-151066326D01*
X196144377Y-151043663D01*
X196160117Y-151022440D01*
X196177861Y-151002861D01*
X196197440Y-150985117D01*
X196218663Y-150969377D01*
X196241326Y-150955793D01*
X196265212Y-150944495D01*
X196290091Y-150935594D01*
X196315722Y-150929174D01*
X196341859Y-150925297D01*
X196368250Y-150924000D01*
X197331750Y-150924000D01*
X197358141Y-150925297D01*
G37*
G36*
X197358141Y-152800297D02*
G01*
X197384278Y-152804174D01*
X197409909Y-152810594D01*
X197434788Y-152819495D01*
X197458674Y-152830793D01*
X197481337Y-152844377D01*
X197502560Y-152860117D01*
X197522139Y-152877861D01*
X197539883Y-152897440D01*
X197555623Y-152918663D01*
X197569207Y-152941326D01*
X197580505Y-152965212D01*
X197589406Y-152990091D01*
X197595826Y-153015722D01*
X197599703Y-153041859D01*
X197601000Y-153068250D01*
X197601000Y-153606750D01*
X197599703Y-153633141D01*
X197595826Y-153659278D01*
X197589406Y-153684909D01*
X197580505Y-153709788D01*
X197569207Y-153733674D01*
X197555623Y-153756337D01*
X197539883Y-153777560D01*
X197522139Y-153797139D01*
X197502560Y-153814883D01*
X197481337Y-153830623D01*
X197458674Y-153844207D01*
X197434788Y-153855505D01*
X197409909Y-153864406D01*
X197384278Y-153870826D01*
X197358141Y-153874703D01*
X197331750Y-153876000D01*
X196368250Y-153876000D01*
X196341859Y-153874703D01*
X196315722Y-153870826D01*
X196290091Y-153864406D01*
X196265212Y-153855505D01*
X196241326Y-153844207D01*
X196218663Y-153830623D01*
X196197440Y-153814883D01*
X196177861Y-153797139D01*
X196160117Y-153777560D01*
X196144377Y-153756337D01*
X196130793Y-153733674D01*
X196119495Y-153709788D01*
X196110594Y-153684909D01*
X196104174Y-153659278D01*
X196100297Y-153633141D01*
X196099000Y-153606750D01*
X196099000Y-153068250D01*
X196100297Y-153041859D01*
X196104174Y-153015722D01*
X196110594Y-152990091D01*
X196119495Y-152965212D01*
X196130793Y-152941326D01*
X196144377Y-152918663D01*
X196160117Y-152897440D01*
X196177861Y-152877861D01*
X196197440Y-152860117D01*
X196218663Y-152844377D01*
X196241326Y-152830793D01*
X196265212Y-152819495D01*
X196290091Y-152810594D01*
X196315722Y-152804174D01*
X196341859Y-152800297D01*
X196368250Y-152799000D01*
X197331750Y-152799000D01*
X197358141Y-152800297D01*
G37*
G36*
X183864391Y-137287797D02*
G01*
X183890528Y-137291674D01*
X183916159Y-137298094D01*
X183941038Y-137306995D01*
X183964924Y-137318293D01*
X183987587Y-137331877D01*
X184008810Y-137347617D01*
X184028389Y-137365361D01*
X184046133Y-137384940D01*
X184061873Y-137406163D01*
X184075457Y-137428826D01*
X184086755Y-137452712D01*
X184095656Y-137477591D01*
X184102076Y-137503222D01*
X184105953Y-137529359D01*
X184107250Y-137555750D01*
X184107250Y-138094250D01*
X184105953Y-138120641D01*
X184102076Y-138146778D01*
X184095656Y-138172409D01*
X184086755Y-138197288D01*
X184075457Y-138221174D01*
X184061873Y-138243837D01*
X184046133Y-138265060D01*
X184028389Y-138284639D01*
X184008810Y-138302383D01*
X183987587Y-138318123D01*
X183964924Y-138331707D01*
X183941038Y-138343005D01*
X183916159Y-138351906D01*
X183890528Y-138358326D01*
X183864391Y-138362203D01*
X183838000Y-138363500D01*
X182874500Y-138363500D01*
X182848109Y-138362203D01*
X182821972Y-138358326D01*
X182796341Y-138351906D01*
X182771462Y-138343005D01*
X182747576Y-138331707D01*
X182724913Y-138318123D01*
X182703690Y-138302383D01*
X182684111Y-138284639D01*
X182666367Y-138265060D01*
X182650627Y-138243837D01*
X182637043Y-138221174D01*
X182625745Y-138197288D01*
X182616844Y-138172409D01*
X182610424Y-138146778D01*
X182606547Y-138120641D01*
X182605250Y-138094250D01*
X182605250Y-137555750D01*
X182606547Y-137529359D01*
X182610424Y-137503222D01*
X182616844Y-137477591D01*
X182625745Y-137452712D01*
X182637043Y-137428826D01*
X182650627Y-137406163D01*
X182666367Y-137384940D01*
X182684111Y-137365361D01*
X182703690Y-137347617D01*
X182724913Y-137331877D01*
X182747576Y-137318293D01*
X182771462Y-137306995D01*
X182796341Y-137298094D01*
X182821972Y-137291674D01*
X182848109Y-137287797D01*
X182874500Y-137286500D01*
X183838000Y-137286500D01*
X183864391Y-137287797D01*
G37*
G36*
X183864391Y-139162797D02*
G01*
X183890528Y-139166674D01*
X183916159Y-139173094D01*
X183941038Y-139181995D01*
X183964924Y-139193293D01*
X183987587Y-139206877D01*
X184008810Y-139222617D01*
X184028389Y-139240361D01*
X184046133Y-139259940D01*
X184061873Y-139281163D01*
X184075457Y-139303826D01*
X184086755Y-139327712D01*
X184095656Y-139352591D01*
X184102076Y-139378222D01*
X184105953Y-139404359D01*
X184107250Y-139430750D01*
X184107250Y-139969250D01*
X184105953Y-139995641D01*
X184102076Y-140021778D01*
X184095656Y-140047409D01*
X184086755Y-140072288D01*
X184075457Y-140096174D01*
X184061873Y-140118837D01*
X184046133Y-140140060D01*
X184028389Y-140159639D01*
X184008810Y-140177383D01*
X183987587Y-140193123D01*
X183964924Y-140206707D01*
X183941038Y-140218005D01*
X183916159Y-140226906D01*
X183890528Y-140233326D01*
X183864391Y-140237203D01*
X183838000Y-140238500D01*
X182874500Y-140238500D01*
X182848109Y-140237203D01*
X182821972Y-140233326D01*
X182796341Y-140226906D01*
X182771462Y-140218005D01*
X182747576Y-140206707D01*
X182724913Y-140193123D01*
X182703690Y-140177383D01*
X182684111Y-140159639D01*
X182666367Y-140140060D01*
X182650627Y-140118837D01*
X182637043Y-140096174D01*
X182625745Y-140072288D01*
X182616844Y-140047409D01*
X182610424Y-140021778D01*
X182606547Y-139995641D01*
X182605250Y-139969250D01*
X182605250Y-139430750D01*
X182606547Y-139404359D01*
X182610424Y-139378222D01*
X182616844Y-139352591D01*
X182625745Y-139327712D01*
X182637043Y-139303826D01*
X182650627Y-139281163D01*
X182666367Y-139259940D01*
X182684111Y-139240361D01*
X182703690Y-139222617D01*
X182724913Y-139206877D01*
X182747576Y-139193293D01*
X182771462Y-139181995D01*
X182796341Y-139173094D01*
X182821972Y-139166674D01*
X182848109Y-139162797D01*
X182874500Y-139161500D01*
X183838000Y-139161500D01*
X183864391Y-139162797D01*
G37*
G36*
X175714391Y-154825297D02*
G01*
X175740528Y-154829174D01*
X175766159Y-154835594D01*
X175791038Y-154844495D01*
X175814924Y-154855793D01*
X175837587Y-154869377D01*
X175858810Y-154885117D01*
X175878389Y-154902861D01*
X175896133Y-154922440D01*
X175911873Y-154943663D01*
X175925457Y-154966326D01*
X175936755Y-154990212D01*
X175945656Y-155015091D01*
X175952076Y-155040722D01*
X175955953Y-155066859D01*
X175957250Y-155093250D01*
X175957250Y-156056750D01*
X175955953Y-156083141D01*
X175952076Y-156109278D01*
X175945656Y-156134909D01*
X175936755Y-156159788D01*
X175925457Y-156183674D01*
X175911873Y-156206337D01*
X175896133Y-156227560D01*
X175878389Y-156247139D01*
X175858810Y-156264883D01*
X175837587Y-156280623D01*
X175814924Y-156294207D01*
X175791038Y-156305505D01*
X175766159Y-156314406D01*
X175740528Y-156320826D01*
X175714391Y-156324703D01*
X175688000Y-156326000D01*
X175149500Y-156326000D01*
X175123109Y-156324703D01*
X175096972Y-156320826D01*
X175071341Y-156314406D01*
X175046462Y-156305505D01*
X175022576Y-156294207D01*
X174999913Y-156280623D01*
X174978690Y-156264883D01*
X174959111Y-156247139D01*
X174941367Y-156227560D01*
X174925627Y-156206337D01*
X174912043Y-156183674D01*
X174900745Y-156159788D01*
X174891844Y-156134909D01*
X174885424Y-156109278D01*
X174881547Y-156083141D01*
X174880250Y-156056750D01*
X174880250Y-155093250D01*
X174881547Y-155066859D01*
X174885424Y-155040722D01*
X174891844Y-155015091D01*
X174900745Y-154990212D01*
X174912043Y-154966326D01*
X174925627Y-154943663D01*
X174941367Y-154922440D01*
X174959111Y-154902861D01*
X174978690Y-154885117D01*
X174999913Y-154869377D01*
X175022576Y-154855793D01*
X175046462Y-154844495D01*
X175071341Y-154835594D01*
X175096972Y-154829174D01*
X175123109Y-154825297D01*
X175149500Y-154824000D01*
X175688000Y-154824000D01*
X175714391Y-154825297D01*
G37*
G36*
X177589391Y-154825297D02*
G01*
X177615528Y-154829174D01*
X177641159Y-154835594D01*
X177666038Y-154844495D01*
X177689924Y-154855793D01*
X177712587Y-154869377D01*
X177733810Y-154885117D01*
X177753389Y-154902861D01*
X177771133Y-154922440D01*
X177786873Y-154943663D01*
X177800457Y-154966326D01*
X177811755Y-154990212D01*
X177820656Y-155015091D01*
X177827076Y-155040722D01*
X177830953Y-155066859D01*
X177832250Y-155093250D01*
X177832250Y-156056750D01*
X177830953Y-156083141D01*
X177827076Y-156109278D01*
X177820656Y-156134909D01*
X177811755Y-156159788D01*
X177800457Y-156183674D01*
X177786873Y-156206337D01*
X177771133Y-156227560D01*
X177753389Y-156247139D01*
X177733810Y-156264883D01*
X177712587Y-156280623D01*
X177689924Y-156294207D01*
X177666038Y-156305505D01*
X177641159Y-156314406D01*
X177615528Y-156320826D01*
X177589391Y-156324703D01*
X177563000Y-156326000D01*
X177024500Y-156326000D01*
X176998109Y-156324703D01*
X176971972Y-156320826D01*
X176946341Y-156314406D01*
X176921462Y-156305505D01*
X176897576Y-156294207D01*
X176874913Y-156280623D01*
X176853690Y-156264883D01*
X176834111Y-156247139D01*
X176816367Y-156227560D01*
X176800627Y-156206337D01*
X176787043Y-156183674D01*
X176775745Y-156159788D01*
X176766844Y-156134909D01*
X176760424Y-156109278D01*
X176756547Y-156083141D01*
X176755250Y-156056750D01*
X176755250Y-155093250D01*
X176756547Y-155066859D01*
X176760424Y-155040722D01*
X176766844Y-155015091D01*
X176775745Y-154990212D01*
X176787043Y-154966326D01*
X176800627Y-154943663D01*
X176816367Y-154922440D01*
X176834111Y-154902861D01*
X176853690Y-154885117D01*
X176874913Y-154869377D01*
X176897576Y-154855793D01*
X176921462Y-154844495D01*
X176946341Y-154835594D01*
X176971972Y-154829174D01*
X176998109Y-154825297D01*
X177024500Y-154824000D01*
X177563000Y-154824000D01*
X177589391Y-154825297D01*
G37*
G36*
X184658141Y-131512797D02*
G01*
X184684278Y-131516674D01*
X184709909Y-131523094D01*
X184734788Y-131531995D01*
X184758674Y-131543293D01*
X184781337Y-131556877D01*
X184802560Y-131572617D01*
X184822139Y-131590361D01*
X184839883Y-131609940D01*
X184855623Y-131631163D01*
X184869207Y-131653826D01*
X184880505Y-131677712D01*
X184889406Y-131702591D01*
X184895826Y-131728222D01*
X184899703Y-131754359D01*
X184901000Y-131780750D01*
X184901000Y-132319250D01*
X184899703Y-132345641D01*
X184895826Y-132371778D01*
X184889406Y-132397409D01*
X184880505Y-132422288D01*
X184869207Y-132446174D01*
X184855623Y-132468837D01*
X184839883Y-132490060D01*
X184822139Y-132509639D01*
X184802560Y-132527383D01*
X184781337Y-132543123D01*
X184758674Y-132556707D01*
X184734788Y-132568005D01*
X184709909Y-132576906D01*
X184684278Y-132583326D01*
X184658141Y-132587203D01*
X184631750Y-132588500D01*
X183668250Y-132588500D01*
X183641859Y-132587203D01*
X183615722Y-132583326D01*
X183590091Y-132576906D01*
X183565212Y-132568005D01*
X183541326Y-132556707D01*
X183518663Y-132543123D01*
X183497440Y-132527383D01*
X183477861Y-132509639D01*
X183460117Y-132490060D01*
X183444377Y-132468837D01*
X183430793Y-132446174D01*
X183419495Y-132422288D01*
X183410594Y-132397409D01*
X183404174Y-132371778D01*
X183400297Y-132345641D01*
X183399000Y-132319250D01*
X183399000Y-131780750D01*
X183400297Y-131754359D01*
X183404174Y-131728222D01*
X183410594Y-131702591D01*
X183419495Y-131677712D01*
X183430793Y-131653826D01*
X183444377Y-131631163D01*
X183460117Y-131609940D01*
X183477861Y-131590361D01*
X183497440Y-131572617D01*
X183518663Y-131556877D01*
X183541326Y-131543293D01*
X183565212Y-131531995D01*
X183590091Y-131523094D01*
X183615722Y-131516674D01*
X183641859Y-131512797D01*
X183668250Y-131511500D01*
X184631750Y-131511500D01*
X184658141Y-131512797D01*
G37*
G36*
X184658141Y-129637797D02*
G01*
X184684278Y-129641674D01*
X184709909Y-129648094D01*
X184734788Y-129656995D01*
X184758674Y-129668293D01*
X184781337Y-129681877D01*
X184802560Y-129697617D01*
X184822139Y-129715361D01*
X184839883Y-129734940D01*
X184855623Y-129756163D01*
X184869207Y-129778826D01*
X184880505Y-129802712D01*
X184889406Y-129827591D01*
X184895826Y-129853222D01*
X184899703Y-129879359D01*
X184901000Y-129905750D01*
X184901000Y-130444250D01*
X184899703Y-130470641D01*
X184895826Y-130496778D01*
X184889406Y-130522409D01*
X184880505Y-130547288D01*
X184869207Y-130571174D01*
X184855623Y-130593837D01*
X184839883Y-130615060D01*
X184822139Y-130634639D01*
X184802560Y-130652383D01*
X184781337Y-130668123D01*
X184758674Y-130681707D01*
X184734788Y-130693005D01*
X184709909Y-130701906D01*
X184684278Y-130708326D01*
X184658141Y-130712203D01*
X184631750Y-130713500D01*
X183668250Y-130713500D01*
X183641859Y-130712203D01*
X183615722Y-130708326D01*
X183590091Y-130701906D01*
X183565212Y-130693005D01*
X183541326Y-130681707D01*
X183518663Y-130668123D01*
X183497440Y-130652383D01*
X183477861Y-130634639D01*
X183460117Y-130615060D01*
X183444377Y-130593837D01*
X183430793Y-130571174D01*
X183419495Y-130547288D01*
X183410594Y-130522409D01*
X183404174Y-130496778D01*
X183400297Y-130470641D01*
X183399000Y-130444250D01*
X183399000Y-129905750D01*
X183400297Y-129879359D01*
X183404174Y-129853222D01*
X183410594Y-129827591D01*
X183419495Y-129802712D01*
X183430793Y-129778826D01*
X183444377Y-129756163D01*
X183460117Y-129734940D01*
X183477861Y-129715361D01*
X183497440Y-129697617D01*
X183518663Y-129681877D01*
X183541326Y-129668293D01*
X183565212Y-129656995D01*
X183590091Y-129648094D01*
X183615722Y-129641674D01*
X183641859Y-129637797D01*
X183668250Y-129636500D01*
X184631750Y-129636500D01*
X184658141Y-129637797D01*
G37*
G36*
X194183141Y-129637797D02*
G01*
X194209278Y-129641674D01*
X194234909Y-129648094D01*
X194259788Y-129656995D01*
X194283674Y-129668293D01*
X194306337Y-129681877D01*
X194327560Y-129697617D01*
X194347139Y-129715361D01*
X194364883Y-129734940D01*
X194380623Y-129756163D01*
X194394207Y-129778826D01*
X194405505Y-129802712D01*
X194414406Y-129827591D01*
X194420826Y-129853222D01*
X194424703Y-129879359D01*
X194426000Y-129905750D01*
X194426000Y-130444250D01*
X194424703Y-130470641D01*
X194420826Y-130496778D01*
X194414406Y-130522409D01*
X194405505Y-130547288D01*
X194394207Y-130571174D01*
X194380623Y-130593837D01*
X194364883Y-130615060D01*
X194347139Y-130634639D01*
X194327560Y-130652383D01*
X194306337Y-130668123D01*
X194283674Y-130681707D01*
X194259788Y-130693005D01*
X194234909Y-130701906D01*
X194209278Y-130708326D01*
X194183141Y-130712203D01*
X194156750Y-130713500D01*
X193193250Y-130713500D01*
X193166859Y-130712203D01*
X193140722Y-130708326D01*
X193115091Y-130701906D01*
X193090212Y-130693005D01*
X193066326Y-130681707D01*
X193043663Y-130668123D01*
X193022440Y-130652383D01*
X193002861Y-130634639D01*
X192985117Y-130615060D01*
X192969377Y-130593837D01*
X192955793Y-130571174D01*
X192944495Y-130547288D01*
X192935594Y-130522409D01*
X192929174Y-130496778D01*
X192925297Y-130470641D01*
X192924000Y-130444250D01*
X192924000Y-129905750D01*
X192925297Y-129879359D01*
X192929174Y-129853222D01*
X192935594Y-129827591D01*
X192944495Y-129802712D01*
X192955793Y-129778826D01*
X192969377Y-129756163D01*
X192985117Y-129734940D01*
X193002861Y-129715361D01*
X193022440Y-129697617D01*
X193043663Y-129681877D01*
X193066326Y-129668293D01*
X193090212Y-129656995D01*
X193115091Y-129648094D01*
X193140722Y-129641674D01*
X193166859Y-129637797D01*
X193193250Y-129636500D01*
X194156750Y-129636500D01*
X194183141Y-129637797D01*
G37*
G36*
X194183141Y-131512797D02*
G01*
X194209278Y-131516674D01*
X194234909Y-131523094D01*
X194259788Y-131531995D01*
X194283674Y-131543293D01*
X194306337Y-131556877D01*
X194327560Y-131572617D01*
X194347139Y-131590361D01*
X194364883Y-131609940D01*
X194380623Y-131631163D01*
X194394207Y-131653826D01*
X194405505Y-131677712D01*
X194414406Y-131702591D01*
X194420826Y-131728222D01*
X194424703Y-131754359D01*
X194426000Y-131780750D01*
X194426000Y-132319250D01*
X194424703Y-132345641D01*
X194420826Y-132371778D01*
X194414406Y-132397409D01*
X194405505Y-132422288D01*
X194394207Y-132446174D01*
X194380623Y-132468837D01*
X194364883Y-132490060D01*
X194347139Y-132509639D01*
X194327560Y-132527383D01*
X194306337Y-132543123D01*
X194283674Y-132556707D01*
X194259788Y-132568005D01*
X194234909Y-132576906D01*
X194209278Y-132583326D01*
X194183141Y-132587203D01*
X194156750Y-132588500D01*
X193193250Y-132588500D01*
X193166859Y-132587203D01*
X193140722Y-132583326D01*
X193115091Y-132576906D01*
X193090212Y-132568005D01*
X193066326Y-132556707D01*
X193043663Y-132543123D01*
X193022440Y-132527383D01*
X193002861Y-132509639D01*
X192985117Y-132490060D01*
X192969377Y-132468837D01*
X192955793Y-132446174D01*
X192944495Y-132422288D01*
X192935594Y-132397409D01*
X192929174Y-132371778D01*
X192925297Y-132345641D01*
X192924000Y-132319250D01*
X192924000Y-131780750D01*
X192925297Y-131754359D01*
X192929174Y-131728222D01*
X192935594Y-131702591D01*
X192944495Y-131677712D01*
X192955793Y-131653826D01*
X192969377Y-131631163D01*
X192985117Y-131609940D01*
X193002861Y-131590361D01*
X193022440Y-131572617D01*
X193043663Y-131556877D01*
X193066326Y-131543293D01*
X193090212Y-131531995D01*
X193115091Y-131523094D01*
X193140722Y-131516674D01*
X193166859Y-131512797D01*
X193193250Y-131511500D01*
X194156750Y-131511500D01*
X194183141Y-131512797D01*
G37*
M02*
